<?xml version="1.0" encoding="UTF-8" standalone="no"?>
<!-- Generator: Adobe Illustrator 12.0.0, SVG Export Plug-In . SVG Version: 6.00 Build 51448)  -->

<svg
   xmlns:dc="http://purl.org/dc/elements/1.1/"
   xmlns:cc="http://creativecommons.org/ns#"
   xmlns:rdf="http://www.w3.org/1999/02/22-rdf-syntax-ns#"
   xmlns:svg="http://www.w3.org/2000/svg"
   xmlns="http://www.w3.org/2000/svg"
   xmlns:sodipodi="http://sodipodi.sourceforge.net/DTD/sodipodi-0.dtd"
   xmlns:inkscape="http://www.inkscape.org/namespaces/inkscape"
   version="1.1"
   id="Layer_1"
   width="100"
   height="100"
   viewBox="0 0 99.999998 100"
   overflow="visible"
   enable-background="new 0 0 223.104 207.65"
   xml:space="preserve"
   inkscape:version="0.48.2 r9819"
   sodipodi:docname="player_pig.svg"
   style="overflow:visible"><metadata
   id="metadata3689"><rdf:RDF><cc:Work
       rdf:about=""><dc:format>image/svg+xml</dc:format><dc:type
         rdf:resource="http://purl.org/dc/dcmitype/StillImage" /></cc:Work></rdf:RDF></metadata><defs
   id="defs3687" /><sodipodi:namedview
   pagecolor="#ffffff"
   bordercolor="#666666"
   borderopacity="1"
   objecttolerance="10"
   gridtolerance="10"
   guidetolerance="10"
   inkscape:pageopacity="0"
   inkscape:pageshadow="2"
   inkscape:window-width="1440"
   inkscape:window-height="852"
   id="namedview3685"
   showgrid="false"
   inkscape:zoom="1.1365278"
   inkscape:cx="-1.0717236"
   inkscape:cy="103.825"
   inkscape:window-x="0"
   inkscape:window-y="0"
   inkscape:window-maximized="1"
   inkscape:current-layer="Layer_1" />
<g
   id="g3641"
   transform="matrix(0.40963919,0,0,0.40963919,4.5897421,7.6268627)">
	
		<circle
   clip-rule="evenodd"
   cx="110.466"
   cy="105.75"
   r="94.222"
   id="circle3643"
   sodipodi:cx="110.466"
   sodipodi:cy="105.75"
   sodipodi:rx="94.222"
   sodipodi:ry="94.222"
   style="fill:#ffb0b0;fill-rule:evenodd;stroke:#000000;stroke-width:4.15689993"
   d="m 204.688,105.75 c 0,52.03737 -42.18462,94.222 -94.222,94.222 -52.03737,0 -94.221997,-42.18463 -94.221997,-94.222 0,-52.037374 42.184627,-94.222 94.221997,-94.222 52.03738,0 94.222,42.184626 94.222,94.222 z" />
	<path
   clip-rule="evenodd"
   d="M 79.471,54.605 C 80.054,41.044 77.841,15.92 64.217,8.78 43.65,-1.997 20.677,36.701 9.769,50.046 -3.298,66.032 11.97,78.797 30.301,85.337 61.839,96.585 77.97,89.563 79.471,54.605 z"
   id="path3645"
   inkscape:connector-curvature="0"
   style="fill:#ffb0b0;fill-rule:evenodd;stroke:#000000;stroke-width:4.15689993" />
	<path
   clip-rule="evenodd"
   d="m 160.35,137.588 c -22.477,-54.687 -106.185,14.28 -62.174,31.164 9.619,3.692 16.547,-3.225 25.343,-3.642 7.984,-0.379 14.146,4.503 21.723,4.783 20.683,0.76 22.083,-15.196 15.108,-32.305"
   id="path3647"
   inkscape:connector-curvature="0"
   style="fill:#ef7d7d;fill-rule:evenodd;stroke:#000000;stroke-width:4.15689993" />
	<path
   clip-rule="evenodd"
   d="m 106.31,155.602 c 8.754,-2.304 20.814,-13.792 11.119,-20.95 -4.406,6.159 -0.582,11.575 -6.963,18.18"
   id="path3649"
   inkscape:connector-curvature="0"
   style="fill-rule:evenodd" />
	<path
   clip-rule="evenodd"
   d="m 143.039,136.194 c -15.219,-1.792 -1.18,16.287 6.642,19.188 0.231,0.428 1.75,-2.332 1.529,-2.219 -7.708,-2.686 -10.206,-9.27 -5.233,-15.612 -1.246,-2.614 -2.314,-0.265 -4.322,-1.357"
   id="path3651"
   inkscape:connector-curvature="0"
   style="fill-rule:evenodd" />
	<g
   id="g3653">
		<circle
   cx="159.953"
   cy="105.551"
   r="12.019"
   id="circle3655"
   sodipodi:cx="159.953"
   sodipodi:cy="105.551"
   sodipodi:rx="12.019"
   sodipodi:ry="12.019"
   style="fill:#00a23d"
   d="m 171.972,105.551 c 0,6.63791 -5.38109,12.019 -12.019,12.019 -6.63791,0 -12.019,-5.38109 -12.019,-12.019 0,-6.637908 5.38109,-12.018998 12.019,-12.018998 6.63791,0 12.019,5.38109 12.019,12.018998 z" />
		<path
   d="m 167.275,105.551 c 0,4.047 -3.276,7.326 -7.322,7.326 -4.044,0 -7.322,-3.279 -7.322,-7.326 0,-4.043 3.278,-7.323 7.322,-7.323 4.046,0 7.322,3.28 7.322,7.323 z"
   id="path3657"
   inkscape:connector-curvature="0" />
		<path
   d="m 159.953,101.301 c 0,2.349 -1.901,4.25 -4.251,4.25 -2.343,0 -4.248,-1.901 -4.248,-4.25 0,-2.342 1.905,-4.249 4.248,-4.249 2.35,0 4.251,1.907 4.251,4.249 z"
   id="path3659"
   inkscape:connector-curvature="0"
   style="fill:#ffffff" />
		<ellipse
   cx="157.828"
   cy="111.308"
   rx="2.125"
   ry="2.3440001"
   id="ellipse3661"
   sodipodi:cx="157.828"
   sodipodi:cy="111.308"
   sodipodi:rx="2.125"
   sodipodi:ry="2.3440001"
   style="fill:#ffffff"
   d="m 159.953,111.308 c 0,1.29455 -0.95139,2.344 -2.125,2.344 -1.1736,0 -2.125,-1.04945 -2.125,-2.344 0,-1.29456 0.9514,-2.344 2.125,-2.344 1.17361,0 2.125,1.04944 2.125,2.344 z" />
	</g>
	<g
   id="g3663">
		<circle
   cx="89.585999"
   cy="107.135"
   r="12.019"
   id="circle3665"
   sodipodi:cx="89.585999"
   sodipodi:cy="107.135"
   sodipodi:rx="12.019"
   sodipodi:ry="12.019"
   style="fill:#00a23d"
   d="m 101.605,107.135 c 0,6.63791 -5.381091,12.019 -12.019001,12.019 -6.637911,0 -12.019001,-5.38109 -12.019001,-12.019 0,-6.63791 5.38109,-12.018998 12.019001,-12.018998 6.63791,0 12.019001,5.381088 12.019001,12.018998 z" />
		<circle
   cx="89.586998"
   cy="107.135"
   r="7.323"
   id="circle3667"
   sodipodi:cx="89.586998"
   sodipodi:cy="107.135"
   sodipodi:rx="7.323"
   sodipodi:ry="7.323"
   d="m 96.909998,107.135 c 0,4.04438 -3.278619,7.323 -7.323,7.323 -4.044381,0 -7.323,-3.27862 -7.323,-7.323 0,-4.04438 3.278619,-7.322998 7.323,-7.322998 4.044381,0 7.323,3.278618 7.323,7.322998 z" />
		<path
   d="m 89.587,102.884 c 0,2.349 -1.902,4.251 -4.253,4.251 -2.342,0 -4.248,-1.902 -4.248,-4.251 0,-2.342 1.906,-4.248 4.248,-4.248 2.351,0 4.253,1.906 4.253,4.248 z"
   id="path3669"
   inkscape:connector-curvature="0"
   style="fill:#ffffff" />
		<ellipse
   cx="87.459999"
   cy="112.891"
   rx="2.1259999"
   ry="2.3440001"
   id="ellipse3671"
   sodipodi:cx="87.459999"
   sodipodi:cy="112.891"
   sodipodi:rx="2.1259999"
   sodipodi:ry="2.3440001"
   style="fill:#ffffff"
   d="m 89.585999,112.891 c 0,1.29455 -0.951843,2.344 -2.126,2.344 -1.174157,0 -2.126,-1.04945 -2.126,-2.344 0,-1.29456 0.951843,-2.344 2.126,-2.344 1.174157,0 2.126,1.04944 2.126,2.344 z" />
	</g>
	<path
   clip-rule="evenodd"
   d="m 141.112,171.178 c 0.881,4.699 -8.048,7.77 -11.454,8.502 -7.069,1.524 -19.017,-1.611 -21.49,-9.211"
   id="path3673"
   inkscape:connector-curvature="0"
   style="fill:none;stroke:#000000;stroke-width:4.15689993" />
	<path
   clip-rule="evenodd"
   d="m 114.19,104.581 c 4.975,-3.008 14.549,-4.216 20.174,-2.99 2.288,0.499 5.874,2.356 7.103,2.99"
   id="path3675"
   inkscape:connector-curvature="0"
   style="fill:none;stroke:#000000;stroke-width:2.0783999;stroke-linecap:round" />
	<path
   clip-rule="evenodd"
   d="m 16.418,99.62 c -4.723,20.728 -3.478,47.958 11.475,64.649 11.808,13.182 29.178,14.646 45.559,11.514"
   id="path3677"
   inkscape:connector-curvature="0"
   style="fill:#ffb0b0;fill-rule:evenodd;stroke:#000000;stroke-width:4.15689993" />
	<path
   clip-rule="evenodd"
   d="m 166.264,172.95 c 10.837,14.577 25.762,-0.407 31.29,-11.004 5.056,-9.689 7.831,-20.69 8.701,-31.554 0.85,-10.564 -1.491,-20.612 -1.732,-31.125"
   id="path3679"
   inkscape:connector-curvature="0"
   style="fill:#ffb0b0;fill-rule:evenodd;stroke:#000000;stroke-width:4.15689993" />
	<path
   clip-rule="evenodd"
   d="m 191.062,37.626 c -5.868,-1.89 -11.688,-11.09 -13.865,-16.512 -3.147,-7.843 -5.328,-14.677 -15.516,-13.979 -8.978,0.615 -16.41,7.412 -24.11,11.362"
   id="path3681"
   inkscape:connector-curvature="0"
   style="fill:#ffb0b0;fill-rule:evenodd;stroke:#000000;stroke-width:4.15689993" />
	<path
   clip-rule="evenodd"
   d="m 151.031,18.852 c 6.853,-3.023 7.824,-3.006 5.758,3.375 -5.157,15.937 -6.644,43.34 7.103,55.905 4.532,4.143 11.016,5.92 17.019,6.215 11.629,0.568 25.498,-3.71 32.262,-13.871 C 225.867,51.409 202.511,47.623 188.857,35.575 182.941,30.357 180.403,21.915 176.107,15.48 170.899,7.682 161.404,7.122 153.16,10.351"
   id="path3683"
   inkscape:connector-curvature="0"
   style="fill:#ffb0b0;fill-rule:evenodd;stroke:#000000;stroke-width:4.15689993" />
</g>
</svg>