<?xml version="1.0" encoding="UTF-8" standalone="no"?>
<!-- Generator: Adobe Illustrator 12.0.0, SVG Export Plug-In . SVG Version: 6.00 Build 51448)  -->

<svg
   xmlns:dc="http://purl.org/dc/elements/1.1/"
   xmlns:cc="http://creativecommons.org/ns#"
   xmlns:rdf="http://www.w3.org/1999/02/22-rdf-syntax-ns#"
   xmlns:svg="http://www.w3.org/2000/svg"
   xmlns="http://www.w3.org/2000/svg"
   xmlns:sodipodi="http://sodipodi.sourceforge.net/DTD/sodipodi-0.dtd"
   xmlns:inkscape="http://www.inkscape.org/namespaces/inkscape"
   version="1.1"
   id="Layer_1"
   width="100"
   height="100"
   viewBox="0 0 100 100"
   overflow="visible"
   enable-background="new 0 0 226.771 223.86"
   xml:space="preserve"
   inkscape:version="0.48.2 r9819"
   sodipodi:docname="player_bull.svg"
   style="overflow:visible"><metadata
   id="metadata59"><rdf:RDF><cc:Work
       rdf:about=""><dc:format>image/svg+xml</dc:format><dc:type
         rdf:resource="http://purl.org/dc/dcmitype/StillImage" /></cc:Work></rdf:RDF></metadata><defs
   id="defs57" /><sodipodi:namedview
   pagecolor="#ffffff"
   bordercolor="#666666"
   borderopacity="1"
   objecttolerance="10"
   gridtolerance="10"
   guidetolerance="10"
   inkscape:pageopacity="0"
   inkscape:pageshadow="2"
   inkscape:window-width="1440"
   inkscape:window-height="852"
   id="namedview55"
   showgrid="false"
   showguides="true"
   inkscape:guide-bbox="true"
   inkscape:zoom="3.6408391"
   inkscape:cx="-20.563626"
   inkscape:cy="44.507244"
   inkscape:window-x="0"
   inkscape:window-y="0"
   inkscape:window-maximized="1"
   inkscape:current-layer="Layer_1" />
<g
   id="g3"
   transform="matrix(0.38697219,0,0,0.38697219,6.0645838,6.300667)">
	<path
   d="m 38.757,133.218 c -13.687,9.462 -9.383,29.869 -0.643,40.825 10.261,12.861 25.683,20.942 40.285,27.808 12.038,5.662 27.029,14.272 40.671,14.921 2.119,-4.593 10.113,-8.282 14.338,-11.013 7.438,-4.81 14.122,-9.872 20.825,-15.664 6.224,-5.378 20.474,-17.576 18.975,-26.845"
   id="path5"
   inkscape:connector-curvature="0"
   style="fill:#8c5d29;stroke:#000000;stroke-width:6.79680014" />
	<path
   d="M 70.176,180.807 C 58.965,175.274 48.268,167.164 41.085,156.832 36.192,149.799 27.418,139.719 27.847,130.624 c 0.407,-8.633 5.13,-19.904 9.814,-26.999 -4.726,13.83 -18.885,17.862 -31.647,20.691 C 3.61,111.046 3.5,95.672 10.366,83.629 18.295,69.725 34.777,60.546 45.28,48.558 61.38,30.173 84.944,19.445 109.4,19.445 c 36.634,0 54.418,23.514 80.672,43.569 6.901,5.274 15.257,7.811 21.015,14.65 1.403,1.666 12.688,21.644 11.352,22.097 -6.889,2.336 -23.868,6.76 -29.421,0.677 2.057,14.399 -1.086,25.705 -6.477,39.283 -4.687,11.804 -7.639,20.018 -21.184,22.14"
   id="path7"
   inkscape:connector-curvature="0"
   style="fill:#8c5d29;stroke:#000000;stroke-width:6.79680014" />
	<path
   d="m 156.044,121.793 c -14.139,-9.823 -32.777,-12.637 -49.452,-5.616 -36.426,15.342 -45.01,75.31 -0.163,84.734 12.461,2.618 26.466,-1.44 38.505,-4.549 11.743,-3.031 20.394,-9.942 25.933,-20.729 6.887,-13.405 8.62,-23.155 0.792,-36.849 -3.937,-6.88 -9.332,-12.628 -15.615,-16.991 z"
   id="path9"
   inkscape:connector-curvature="0"
   style="fill:#ffcccc;stroke:#af4357;stroke-width:4.53119993" />
	<path
   d="m 105.215,129.792 c 5.737,-14.573 -10.308,-19.958 -18.806,-9.669 -6.046,7.317 -11.52,35.945 4.079,32.324"
   id="path11"
   inkscape:connector-curvature="0"
   style="fill:#ffcccc;stroke:#af4357;stroke-width:4.53119993" />
	<path
   d="m 141.465,125.262 c -11.641,-16.739 8.331,-26.725 20.81,-12.403 5.813,6.672 13.297,27.454 -0.42,29.392"
   id="path13"
   inkscape:connector-curvature="0"
   style="fill:#ffcccc;stroke:#af4357;stroke-width:4.53119993" />
	<path
   d="m 157.63,46.26 c 13.073,0.333 24.896,-10.389 26.363,-22.913 0.816,-6.976 -1.98,-11.35 -4.852,-17.081 6.627,-0.49 14.184,5.245 18.726,9.372 15.131,13.735 12.43,37.959 -5.067,48.665 -0.542,0.33 -1.085,0.651 -1.634,0.965 -5.492,3.126 -11.83,0.247 -17.39,-2.409 -5.949,-2.84 -12.71,-8.05 -15.286,-14.317 -0.391,-0.951 -0.642,-1.817 -0.78,-2.616"
   id="path15"
   inkscape:connector-curvature="0"
   style="fill:#fcd977;stroke:#000000;stroke-width:4.53119993" />
	<path
   d="m 23.548,16.826 c 0.39,-0.526 0.68,-1.032 0.84,-1.517 -2.345,7.144 -4.232,12.193 -0.22,19.688 2.209,4.123 4.31,5.339 8.586,7.2 6.083,2.647 12.274,3.729 18.144,7.142 0.286,0.163 3.452,0.559 3.174,0.279 0.852,0.858 1.555,5.3 1.669,6.688 C 56.456,65.02 53.291,72.5 47.463,78.829 34.219,93.213 18.713,73.063 13.011,61.889 8.932,53.906 7.322,46.102 9.852,37.352 c 1.289,-4.459 3.353,-8.792 5.971,-12.619 1.559,-2.282 5.801,-5.309 7.725,-7.907 z"
   id="path17"
   inkscape:connector-curvature="0"
   style="fill:#fcd977;stroke:#000000;stroke-width:4.53119993" />
	<path
   d="m 88.893,137.349 c -2.039,-3.821 -2.134,-14.479 4.358,-13.59 5.434,0.739 2.708,4.895 2.64,7.594 -0.141,5.343 3.408,13.848 10.014,13.076 -6.599,2.91 -13.815,-1.116 -17.012,-7.08 z"
   id="path19"
   inkscape:connector-curvature="0" />
	<path
   d="m 63.298,38.034 c -8.566,5.982 -20.833,12.037 -25.051,22.201 4.985,-1.725 10.575,-3.799 15.564,-5.064 -2.057,6.151 1.028,12.054 6.343,15.314 1.52,-3.364 4.646,-6.95 5.669,-10.892 3.421,4.397 9.097,8.481 15.4,7.719 1.458,-9.94 11.547,-11.242 16.457,-19.072 3.945,4.363 5.751,10.805 5.414,16.866 7.251,-1.817 13.101,-7.439 18.03,-12.277 0.069,2.781 2.365,6.825 2.413,10.032 5.588,-3.012 8.238,-13.976 15.422,-14.434 3.124,-0.202 12.619,9.449 15.95,11.917 -1.483,-3.811 -1.41,-8.952 -2.002,-13.077 0.453,3.172 13.264,-4.018 14.3,-5.496 -5.084,-2.911 -10.686,-5.553 -16.267,-7.474 -5.068,-1.749 -10.366,-3.942 -15.62,-5.033"
   id="path21"
   inkscape:connector-curvature="0"
   style="fill:#8c5d29;stroke:#000000;stroke-width:2.26559997" />
	<g
   id="g23">
		<circle
   cx="84.257004"
   cy="90.709"
   r="13.028"
   id="circle25"
   sodipodi:cx="84.257004"
   sodipodi:cy="90.709"
   sodipodi:rx="13.028"
   sodipodi:ry="13.028"
   style="fill:#00a0c6"
   d="m 97.285004,90.709 c 0,7.195165 -5.832835,13.028 -13.028,13.028 -7.195166,0 -13.028,-5.832835 -13.028,-13.028 0,-7.195166 5.832834,-13.028 13.028,-13.028 7.195165,0 13.028,5.832834 13.028,13.028 z" />
		<circle
   cx="84.258003"
   cy="90.709"
   r="7.9380002"
   id="circle27"
   sodipodi:cx="84.258003"
   sodipodi:cy="90.709"
   sodipodi:rx="7.9380002"
   sodipodi:ry="7.9380002"
   d="m 92.196003,90.709 c 0,4.384036 -3.553963,7.938 -7.938,7.938 -4.384036,0 -7.938,-3.553964 -7.938,-7.938 0,-4.384037 3.553964,-7.938001 7.938,-7.938001 4.384037,0 7.938,3.553964 7.938,7.938001 z" />
		<path
   d="m 84.258,86.102 c 0,2.545 -2.062,4.607 -4.609,4.607 -2.539,0 -4.605,-2.062 -4.605,-4.607 0,-2.539 2.066,-4.605 4.605,-4.605 2.547,0 4.609,2.066 4.609,4.605 z"
   id="path29"
   inkscape:connector-curvature="0"
   style="fill:#ffffff" />
		<ellipse
   cx="81.953003"
   cy="96.947998"
   rx="2.3039999"
   ry="2.5409999"
   id="ellipse31"
   sodipodi:cx="81.953003"
   sodipodi:cy="96.947998"
   sodipodi:rx="2.3039999"
   sodipodi:ry="2.5409999"
   style="fill:#ffffff"
   d="m 84.257003,96.947998 c 0,1.403356 -1.031536,2.541 -2.304,2.541 -1.272464,0 -2.304,-1.137644 -2.304,-2.541 0,-1.403355 1.031536,-2.541 2.304,-2.541 1.272464,0 2.304,1.137645 2.304,2.541 z" />
	</g>
	<g
   id="g33">
		<circle
   cx="143.748"
   cy="85.273003"
   r="13.027"
   id="circle35"
   sodipodi:cx="143.748"
   sodipodi:cy="85.273003"
   sodipodi:rx="13.027"
   sodipodi:ry="13.027"
   style="fill:#00a0c6"
   d="m 156.775,85.273003 c 0,7.194613 -5.83239,13.027 -13.027,13.027 -7.19461,0 -13.027,-5.832387 -13.027,-13.027 0,-7.194614 5.83239,-13.027001 13.027,-13.027001 7.19461,0 13.027,5.832387 13.027,13.027001 z" />
		<circle
   cx="143.748"
   cy="85.273003"
   r="7.9400001"
   id="circle37"
   sodipodi:cx="143.748"
   sodipodi:cy="85.273003"
   sodipodi:rx="7.9400001"
   sodipodi:ry="7.9400001"
   d="m 151.688,85.273003 c 0,4.385141 -3.55486,7.94 -7.94,7.94 -4.38514,0 -7.94,-3.554859 -7.94,-7.94 0,-4.385141 3.55486,-7.94 7.94,-7.94 4.38514,0 7.94,3.554859 7.94,7.94 z" />
		<path
   d="m 143.748,80.666 c 0,2.545 -2.062,4.607 -4.609,4.607 -2.541,0 -4.606,-2.062 -4.606,-4.607 0,-2.539 2.065,-4.605 4.606,-4.605 2.548,0 4.609,2.066 4.609,4.605 z"
   id="path39"
   inkscape:connector-curvature="0"
   style="fill:#ffffff" />
		<ellipse
   cx="141.44299"
   cy="91.512001"
   rx="2.3050001"
   ry="2.5409999"
   id="ellipse41"
   sodipodi:cx="141.44299"
   sodipodi:cy="91.512001"
   sodipodi:rx="2.3050001"
   sodipodi:ry="2.5409999"
   style="fill:#ffffff"
   d="m 143.74799,91.512001 c 0,1.403356 -1.03198,2.541 -2.305,2.541 -1.27301,0 -2.305,-1.137644 -2.305,-2.541 0,-1.403355 1.03199,-2.541 2.305,-2.541 1.27302,0 2.305,1.137645 2.305,2.541 z" />
	</g>
	<path
   d="m 119.149,219.616 c -1.296,-6.067 -0.36,-12.28 1.851,-18.019"
   id="path43"
   inkscape:connector-curvature="0"
   style="fill:none;stroke:#000000;stroke-width:4.53119993;stroke-linecap:round" />
	<path
   d="m 151.16,166.504 c -1.206,-1.335 -2.642,-2.297 -4.143,-2.561 -5.651,-1 -11.427,4.723 -16.986,5.39 -6.523,0.785 -14.268,-4.483 -20.403,-1.137 -3.177,1.733 -7.924,10.176 -4.625,13.503 4.888,4.93 20.15,-1.703 26.051,-1.938 6.205,-0.25 20.198,4.762 23.003,-2.65 1.2,-3.163 -0.32,-7.748 -2.897,-10.607 z"
   id="path45"
   inkscape:connector-curvature="0" />
	<path
   d="m 154.454,117.113 c -4.601,-5.082 -6.922,1.753 -4.764,5.723 2.658,4.884 8.01,8.468 3.445,14.556 6.385,-4.458 9.157,-18.935 -0.5,-21.187"
   id="path47"
   inkscape:connector-curvature="0" />
	<path
   d="m 121.3,190.688 c 4.376,-1.972 10.666,-6.298 15.441,-3.635"
   id="path49"
   inkscape:connector-curvature="0"
   style="fill:#ffcccc;stroke:#af4357;stroke-width:4.53119993" />
	<path
   d="m 36.821,106.667 c 1.679,-2.99 4.02,-10.426 0.774,-12.747 -6.505,-4.658 -15.792,8.107 -20.302,10.474"
   id="path51"
   inkscape:connector-curvature="0"
   style="fill:none;stroke:#000000;stroke-width:4.53119993" />
	<path
   d="m 191.695,98.04 c -2.006,-2.717 -8.815,-12.809 -5.725,-16.197 3.347,-3.661 17.433,3.839 19.347,6.655"
   id="path53"
   inkscape:connector-curvature="0"
   style="fill:none;stroke:#000000;stroke-width:4.53119993" />
</g>
</svg>