<?xml version="1.0" encoding="UTF-8" standalone="no"?>
<svg
   xmlns:dc="http://purl.org/dc/elements/1.1/"
   xmlns:cc="http://creativecommons.org/ns#"
   xmlns:rdf="http://www.w3.org/1999/02/22-rdf-syntax-ns#"
   xmlns:svg="http://www.w3.org/2000/svg"
   xmlns="http://www.w3.org/2000/svg"
   xmlns:sodipodi="http://sodipodi.sourceforge.net/DTD/sodipodi-0.dtd"
   xmlns:inkscape="http://www.inkscape.org/namespaces/inkscape"
   id="svg2"
   viewBox="0 0 11.11 11.11"
   version="1.1"
   inkscape:version="0.48.2 r9819"
   width="100%"
   height="100%"
   sodipodi:docname="computer_easy_20.svg">
  <defs
     id="defs3840" />
  <sodipodi:namedview
     pagecolor="#ffffff"
     bordercolor="#666666"
     borderopacity="1"
     objecttolerance="10"
     gridtolerance="10"
     guidetolerance="10"
     inkscape:pageopacity="0"
     inkscape:pageshadow="2"
     inkscape:window-width="1440"
     inkscape:window-height="852"
     id="namedview3838"
     showgrid="false"
     inkscape:zoom="3.6875"
     inkscape:cx="-72.135593"
     inkscape:cy="32"
     inkscape:window-x="0"
     inkscape:window-y="0"
     inkscape:window-maximized="1"
     inkscape:current-layer="svg2" />
  <g
     id="layer1"
     transform="matrix(0.13555635,0,0,0.13555635,1.2176989,-132.76201)">
    <g
       id="g3295"
       transform="matrix(0.31048,0,0,0.31048,-120.09,904.36)">
      <rect
         id="rect4181"
         height="39.695"
         width="18.075001"
         y="298.45001"
         x="573.42999"
         style="fill:#a4a4a4;stroke:#484848;stroke-width:2.80679989;stroke-linecap:round;stroke-linejoin:round" />
      <rect
         id="rect4274"
         ry="0"
         height="9.1222"
         width="21.927999"
         y="299.85999"
         x="568.25"
         style="fill:#e3e3e3" />
      <rect
         id="rect4276"
         ry="0"
         height="9.1222"
         width="21.927999"
         y="327.62"
         x="568.17999"
         style="opacity:0.35" />
      <rect
         id="rect4129"
         height="39.695"
         width="18.075001"
         y="298.45001"
         x="573.42999"
         style="fill:none;stroke:#484848;stroke-width:2.80679989;stroke-linecap:round;stroke-linejoin:round" />
    </g>
    <g
       id="g3300"
       transform="matrix(0.31048,0,0,0.31048,-120.09,906.32)">
      <rect
         id="rect4179"
         height="39.695"
         width="18.075001"
         y="298.45001"
         x="388.17999"
         style="fill:#a4a4a4;stroke:#484848;stroke-width:2.80679989;stroke-linecap:round;stroke-linejoin:round" />
      <rect
         id="rect4270"
         ry="0"
         height="9.1222"
         width="21.927999"
         y="299.73001"
         x="389.29001"
         style="fill:#e3e3e3" />
      <rect
         id="rect4272"
         ry="0"
         height="9.1222"
         width="21.927999"
         y="327.79999"
         x="389.64001"
         style="opacity:0.35" />
      <rect
         id="rect3359"
         height="39.695"
         width="18.075001"
         y="298.45001"
         x="388.17999"
         style="fill:none;stroke:#484848;stroke-width:2.80679989;stroke-linecap:round;stroke-linejoin:round" />
    </g>
    <g
       id="g3290"
       transform="matrix(0.31048,0,0,0.55808,-120.09,836.21)">
      <rect
         id="rect4166"
         height="87.084"
         width="169.31"
         y="273.69"
         x="404.89001"
         style="fill:#a4a4a4;stroke:#484848;stroke-width:2.80679989;stroke-linecap:round;stroke-linejoin:round" />
      <path
         id="rect4187"
         d="m 549.65,274.74 h 22.683 v 92.503 H 549.65 c 6.5532,-30.834 10.453,-61.669 0,-92.503 z"
         inkscape:connector-curvature="0"
         style="opacity:0.32846004" />
      <path
         id="path4185"
         d="m 407.67,320.78 1.4177,-42.884 74.073,-1.0632 -67.694,6.3795 -7.7972,37.568 z"
         inkscape:connector-curvature="0"
         style="fill:#e5e5e5" />
    </g>
    <g
       id="g3305"
       transform="matrix(0.39708,0,0,0.39708,-161.66,883.41)">
      <path
         id="path4171"
         d="m 353.55,256.11 c 0,6.4158 -4.8618,11.617 -10.859,11.617 -5.9973,0 -10.859,-5.201 -10.859,-11.617 0,-6.4158 4.8618,-11.617 10.859,-11.617 5.9973,0 10.859,5.201 10.859,11.617 z"
         transform="matrix(1.8179,0,0,1.6993,-163.5,-131.52)"
         inkscape:connector-curvature="0"
         style="fill:#ffffff;stroke:#484848;stroke-width:2.86570001" />
      <path
         id="path4175"
         transform="matrix(1.5005,0,0,1.8381,-55.292,-159.64)"
         d="m 349.26,252.07 a 6.1872,5.0508 0 1 1 -12.374,0 6.1872,5.0508 0 1 1 12.374,0 z"
         inkscape:connector-curvature="0"
         style="fill:#292929" />
    </g>
    <g
       id="g4150"
       transform="matrix(0.39708,0,0,0.39708,-141.5,883.08)">
      <path
         id="path4152"
         d="m 353.55,256.11 c 0,6.4158 -4.8618,11.617 -10.859,11.617 -5.9973,0 -10.859,-5.201 -10.859,-11.617 0,-6.4158 4.8618,-11.617 10.859,-11.617 5.9973,0 10.859,5.201 10.859,11.617 z"
         transform="matrix(1.8179,0,0,1.6993,-163.5,-131.52)"
         inkscape:connector-curvature="0"
         style="fill:#ffffff;stroke:#484848;stroke-width:2.86570001" />
      <path
         id="path4154"
         transform="matrix(1.5005,0,0,1.8381,-55.292,-159.64)"
         d="m 349.26,252.07 c 0,2.7895 -2.7701,5.0508 -6.1872,5.0508 -3.4171,0 -6.1872,-2.2613 -6.1872,-5.0508 0,-2.7895 2.7701,-5.0508 6.1872,-5.0508 3.4171,0 6.1872,2.2613 6.1872,5.0508 z"
         inkscape:connector-curvature="0"
         style="fill:#292929" />
    </g>
    <g
       id="g3285"
       transform="matrix(0.31048,0,0,0.72239,-120.09,783.39)">
      <path
         id="rect4168"
         d="m 397.44,324.01 h 23.16 l 21.683,22.997 h 92.639 l 24.636,-22.997 h 23.16 v 47.409 H 397.438 V 324.01 z"
         inkscape:connector-curvature="0"
         style="fill:#a4a4a4;stroke:#484848;stroke-width:2.80679989;stroke-linecap:round;stroke-linejoin:round" />
      <path
         id="rect4189"
         d="m 580.59,324.95 -0.008,45.56 h -34.024 l 0.57924,-32.805 13.718,-12.773 z"
         inkscape:connector-curvature="0"
         style="opacity:0.32846004" />
      <path
         id="path4192"
         d="m 400.26,334.91 0.13445,33.993 61.936,0.0556 -56.331,-5.333 -5.7394,-28.716 4e-5,-3e-5 z"
         inkscape:connector-curvature="0"
         style="fill:#e5e5e5" />
    </g>
  </g>
  <metadata
     id="metadata3836">
    <rdf:RDF>
      <cc:Work>
        <dc:format>image/svg+xml</dc:format>
        <dc:type
           rdf:resource="http://purl.org/dc/dcmitype/StillImage" />
        <cc:license
           rdf:resource="http://creativecommons.org/licenses/publicdomain/" />
        <dc:publisher>
          <cc:Agent
             rdf:about="http://openclipart.org/">
            <dc:title>Openclipart</dc:title>
          </cc:Agent>
        </dc:publisher>
        <dc:title>Cute Robot Head (Same Eyes)</dc:title>
        <dc:date>2012-12-26T16:37:56</dc:date>
        <dc:description>Made for https://github.com/janamcr/laserflect based on http://openclipart.org/detail/170101</dc:description>
        <dc:source>http://openclipart.org/detail/173914/cute-robot-head-same-eyes-by-qubodup-173914</dc:source>
        <dc:creator>
          <cc:Agent>
            <dc:title>qubodup</dc:title>
          </cc:Agent>
        </dc:creator>
        <dc:subject>
          <rdf:Bag>
            <rdf:li>android</rdf:li>
            <rdf:li>artificial</rdf:li>
            <rdf:li>cartoon</rdf:li>
            <rdf:li>cartoony</rdf:li>
            <rdf:li>clip art</rdf:li>
            <rdf:li>clipart</rdf:li>
            <rdf:li>comic</rdf:li>
            <rdf:li>cute</rdf:li>
            <rdf:li>doodle</rdf:li>
            <rdf:li>eyes</rdf:li>
            <rdf:li>head</rdf:li>
            <rdf:li>humanoid</rdf:li>
            <rdf:li>icon</rdf:li>
            <rdf:li>robot</rdf:li>
            <rdf:li>robotic</rdf:li>
            <rdf:li>sci-fi</rdf:li>
            <rdf:li>science</rdf:li>
            <rdf:li>technology</rdf:li>
            <rdf:li>toy</rdf:li>
          </rdf:Bag>
        </dc:subject>
      </cc:Work>
      <cc:License
         rdf:about="http://creativecommons.org/licenses/publicdomain/">
        <cc:permits
           rdf:resource="http://creativecommons.org/ns#Reproduction" />
        <cc:permits
           rdf:resource="http://creativecommons.org/ns#Distribution" />
        <cc:permits
           rdf:resource="http://creativecommons.org/ns#DerivativeWorks" />
      </cc:License>
    </rdf:RDF>
  </metadata>
</svg>
