<?xml version="1.0" encoding="UTF-8" standalone="no"?>
<svg
   xmlns:dc="http://purl.org/dc/elements/1.1/"
   xmlns:cc="http://creativecommons.org/ns#"
   xmlns:rdf="http://www.w3.org/1999/02/22-rdf-syntax-ns#"
   xmlns:svg="http://www.w3.org/2000/svg"
   xmlns="http://www.w3.org/2000/svg"
   xmlns:sodipodi="http://sodipodi.sourceforge.net/DTD/sodipodi-0.dtd"
   xmlns:inkscape="http://www.inkscape.org/namespaces/inkscape"
   id="svg2"
   viewBox="0 0 11.11 11.11"
   version="1.1"
   inkscape:version="0.48.2 r9819"
   width="100%"
   height="100%"
   sodipodi:docname="computer_hard_20.svg">
  <sodipodi:namedview
     pagecolor="#ffffff"
     bordercolor="#666666"
     borderopacity="1"
     objecttolerance="10"
     gridtolerance="10"
     guidetolerance="10"
     inkscape:pageopacity="0"
     inkscape:pageshadow="2"
     inkscape:window-width="1440"
     inkscape:window-height="852"
     id="namedview4090"
     showgrid="false"
     inkscape:zoom="54.405872"
     inkscape:cx="-0.38634912"
     inkscape:cy="4.3299831"
     inkscape:window-x="0"
     inkscape:window-y="0"
     inkscape:window-maximized="1"
     inkscape:current-layer="svg2" />
  <defs
     id="defs4">
    <filter
       id="filter5552"
       width="1.883"
       y="-0.39875999"
       x="-0.44148001"
       height="1.7975"
       color-interpolation-filters="sRGB">
      <feGaussianBlur
         id="feGaussianBlur5554"
         stdDeviation="77.757061" />
    </filter>
    <filter
       id="filter5556"
       width="1.3988"
       y="-0.23772"
       x="-0.19938"
       height="1.4754"
       color-interpolation-filters="sRGB">
      <feGaussianBlur
         id="feGaussianBlur5558"
         stdDeviation="77.757061" />
    </filter>
    <filter
       id="filter3866"
       width="2.2219999"
       y="-0.74514002"
       x="-0.61102003"
       height="2.4902999"
       color-interpolation-filters="sRGB">
      <feGaussianBlur
         id="feGaussianBlur3868"
         stdDeviation="68.221387" />
    </filter>
    <filter
       id="filter3882"
       width="1.3084"
       y="-0.15422"
       x="-0.15422"
       height="1.3084"
       color-interpolation-filters="sRGB">
      <feGaussianBlur
         id="feGaussianBlur3884"
         stdDeviation="4.0015337" />
    </filter>
    <filter
       id="filter3894"
       width="1.3084"
       y="-0.15422"
       x="-0.15422"
       height="1.3084"
       color-interpolation-filters="sRGB">
      <feGaussianBlur
         id="feGaussianBlur3896"
         stdDeviation="4.0015337" />
    </filter>
    <filter
       id="filter3933"
       width="1.4529999"
       y="-0.22651"
       x="-0.22651"
       height="1.4529999"
       color-interpolation-filters="sRGB">
      <feGaussianBlur
         id="feGaussianBlur3935"
         stdDeviation="3.2057743" />
    </filter>
    <filter
       id="filter3969"
       width="1.4529999"
       y="-0.22651"
       x="-0.22651"
       height="1.4529999"
       color-interpolation-filters="sRGB">
      <feGaussianBlur
         id="feGaussianBlur3971"
         stdDeviation="3.2057743" />
    </filter>
    <filter
       id="filter4023"
       color-interpolation-filters="sRGB">
      <feGaussianBlur
         id="feGaussianBlur4025"
         stdDeviation="2.9024255" />
    </filter>
    <filter
       id="filter4053"
       width="1.7133"
       y="-0.35663"
       x="-0.35663"
       height="1.7133"
       color-interpolation-filters="sRGB">
      <feGaussianBlur
         id="feGaussianBlur4055"
         stdDeviation="5.3535644" />
    </filter>
    <filter
       id="filter4195"
       color-interpolation-filters="sRGB">
      <feGaussianBlur
         id="feGaussianBlur4197"
         stdDeviation="8.2107641" />
    </filter>
  </defs>
  <path
     id="path4851"
     d="M 9.2951463,5.1983191 C 9.5740594,7.0471832 7.6784192,10.8404 5.7524667,11.032153 3.6014469,11.24618 1.7973251,7.9297298 1.5183152,6.0809626 1.2394022,4.2321954 2.7541517,2.5358618 4.9015883,2.2921035 6.9731954,2.0570612 8.8919814,3.2614231 9.2648339,5.0307776"
     inkscape:connector-curvature="0"
     style="fill:#1a1a1a" />
  <path
     id="path4854"
     transform="matrix(0.00418428,-3.2306457e-4,2.81799e-4,0.00364969,-17.282941,18.830096)"
     d="m 5930.1,-3842.5 c 211.35,124.75 262.11,369.58 113.37,546.85 -148.74,177.26 -440.66,219.83 -652.01,95.081 -211.35,-124.749 -262.11,-369.58 -113.37,-546.85 143.48,-171 421.62,-217.62 632.45,-106.02"
     inkscape:connector-curvature="0"
     style="opacity:0.87346999;filter:url(#filter5556)" />
  <path
     id="path4856"
     transform="matrix(0.00418428,-3.2306457e-4,2.81799e-4,0.00364969,-16.874256,18.799106)"
     d="m 5782.4,-3735.5 c 95.45,74.371 118.37,220.33 51.198,326 -67.174,105.68 -199.01,131.05 -294.46,56.683 -95.45,-74.371 -118.37,-220.33 -51.198,-326 64.799,-101.94 190.41,-129.74 285.62,-63.206"
     inkscape:connector-curvature="0"
     style="opacity:0.87346999;filter:url(#filter5552)" />
  <path
     id="path3870"
     style="opacity:0.80000000000000004;color:#000000;stroke-width:0;fill:#ff0000;fill-opacity:1"
     d="M 7.7657293,6.1310084 C 8.3020684,6.2692867 8.4308631,6.540659 8.0534143,6.7371347 7.6759655,6.9336104 6.9351875,6.9807915 6.3988359,6.842522 5.8624968,6.7042438 5.7337021,6.4328715 6.1111508,6.2363957 6.4752528,6.0468613 7.1810501,5.9951815 7.7160059,6.1188804"
     inkscape:connector-curvature="0" />
  <path
     id="path3872"
     style="opacity:0.80000000000000004;color:#000000;stroke-width:0;fill:#ff0000;fill-opacity:1"
     d="M 4.1913813,6.1310084 C 4.7277204,6.2692867 4.8565151,6.540659 4.4790663,6.7371347 4.1016175,6.9336104 3.3608395,6.9807915 2.8244879,6.842522 2.2881488,6.7042438 2.1593541,6.4328715 2.5368028,6.2363957 2.9009048,6.0468613 3.6067021,5.9951815 4.1416579,6.1188804"
     inkscape:connector-curvature="0" />
  <path
     id="path3874"
     style="color:#000000;fill:#ff0000;stroke-width:0;filter:url(#filter3894)"
     d="m -594.39,924.06 c 14.062,9.8962 17.439,29.318 7.5425,43.38 -9.8962,14.062 -29.318,17.439 -43.38,7.5425 -14.062,-9.8962 -17.439,-29.318 -7.5425,-43.38 9.5463,-13.565 28.051,-17.263 42.078,-8.4105"
     transform="matrix(0.01246199,0,0,0.01246199,11.13849,-5.3461427)"
     inkscape:connector-curvature="0" />
  <path
     id="path3876"
     style="color:#000000;fill:#ff0000;stroke-width:0;filter:url(#filter3882)"
     d="m -594.39,924.06 c 14.062,9.8962 17.439,29.318 7.5425,43.38 -9.8962,14.062 -29.318,17.439 -43.38,7.5425 -14.062,-9.8962 -17.439,-29.318 -7.5425,-43.38 9.5463,-13.565 28.051,-17.263 42.078,-8.4105"
     transform="matrix(0.01246199,0,0,0.01246199,14.783341,-5.3461427)"
     inkscape:connector-curvature="0" />
  <path
     id="path3898"
     style="color:#000000;stroke-width:0;filter:url(#filter3933)"
     d="m -682.73,661.09 c 7.67,5.3979 9.512,15.992 4.1141,23.662 -5.3979,7.6701 -15.992,9.512 -23.662,4.1141 -7.67,-5.3979 -9.512,-15.992 -4.1141,-23.662 5.2071,-7.3989 15.301,-9.4164 22.952,-4.5875"
     transform="matrix(0.01246199,0,0,0.01246199,12.126114,-1.9129946)"
     inkscape:connector-curvature="0" />
  <path
     id="path3900"
     style="color:#000000;stroke-width:0;filter:url(#filter3969)"
     d="m -682.73,661.09 c 7.67,5.3979 9.512,15.992 4.1141,23.662 -5.3979,7.6701 -15.992,9.512 -23.662,4.1141 -7.67,-5.3979 -9.512,-15.992 -4.1141,-23.662 5.2071,-7.3989 15.301,-9.4164 22.952,-4.5875"
     transform="matrix(0.01246199,0,0,0.01246199,15.794401,-1.9365279)"
     inkscape:connector-curvature="0" />
  <rect
     id="rect3902"
     style="color:#000000;stroke-width:0"
     height="0.98762327"
     width="0.14108351"
     y="9.0145855"
     x="4.2252049" />
  <rect
     id="rect3904"
     style="color:#000000;stroke-width:0"
     height="0.98762327"
     width="0.14108351"
     y="9.0145855"
     x="6.3414769" />
  <rect
     id="rect3906"
     style="color:#000000;stroke-width:0"
     height="0.98762327"
     width="0.14108351"
     y="9.0145855"
     x="5.7066593" />
  <rect
     id="rect3908"
     style="color:#000000;stroke-width:0"
     height="0.98762327"
     width="0.14108351"
     y="9.0145855"
     x="5.0246782" />
  <path
     id="path3910"
     style="color:#000000;stroke-width:0"
     d="m 5.1488228,8.1638938 c 0.042482,0.033635 0.052684,0.099644 0.022787,0.1474378 -0.029898,0.047792 -0.088572,0.059269 -0.1310503,0.025634 -0.042482,-0.033635 -0.052684,-0.099643 -0.022787,-0.1474378 0.02884,-0.046102 0.084744,-0.058674 0.1271248,-0.028585"
     inkscape:connector-curvature="0" />
  <path
     id="path3912"
     style="color:#000000;stroke-width:0"
     d="m 5.5255488,8.1403606 c 0.042482,0.033635 0.052684,0.099644 0.022787,0.1474378 -0.029898,0.047792 -0.088572,0.059269 -0.1310503,0.025634 -0.042482,-0.033635 -0.052684,-0.099643 -0.022787,-0.1474378 0.02884,-0.046102 0.084744,-0.058673 0.1271248,-0.028585"
     inkscape:connector-curvature="0" />
  <path
     id="path3914"
     style="color:#000000;stroke-width:0"
     d="m 5.3376698,7.9757244 c 0.042482,0.033635 0.052684,0.099644 0.022787,0.1474378 -0.029898,0.047792 -0.088572,0.059269 -0.1310503,0.025634 -0.042482,-0.033635 -0.052684,-0.099643 -0.022787,-0.1474378 0.02884,-0.046102 0.084744,-0.058674 0.1271248,-0.028585"
     inkscape:connector-curvature="0" />
  <path
     id="path3916"
     style="color:#000000;stroke-width:0"
     d="m 5.0790948,7.9052214 c 0.042482,0.033635 0.052684,0.099644 0.022787,0.1474378 -0.029898,0.047792 -0.088572,0.059269 -0.1310503,0.025634 -0.042482,-0.033635 -0.052684,-0.099643 -0.022787,-0.1474378 0.02884,-0.046102 0.084744,-0.058674 0.1271248,-0.028585"
     inkscape:connector-curvature="0" />
  <path
     id="path3918"
     style="color:#000000;stroke-width:0"
     d="m 5.5962458,7.9052214 c 0.042482,0.033635 0.052684,0.099644 0.022787,0.1474378 -0.029898,0.047792 -0.088572,0.059269 -0.1310503,0.025634 -0.042482,-0.033635 -0.052684,-0.099643 -0.022787,-0.1474378 0.02884,-0.046102 0.084744,-0.058674 0.1271248,-0.028585"
     inkscape:connector-curvature="0" />
  <path
     id="path3920"
     style="color:#000000;stroke-width:0"
     d="m 5.3376698,7.7170519 c 0.042482,0.033635 0.052684,0.099644 0.022787,0.1474378 -0.029898,0.047792 -0.088572,0.059269 -0.1310503,0.025634 -0.042482,-0.033635 -0.052684,-0.099643 -0.022787,-0.1474378 0.02884,-0.046102 0.084744,-0.058673 0.1271248,-0.028585"
     inkscape:connector-curvature="0" />
  <path
     id="rect3922"
     style="color:#000000;fill:#666666;stroke-width:0"
     d="m 1.4974936,5.0876255 c 3.0325012,7.3041315 5.5426216,5.9703855 7.7597864,0 V 5.628465 c -1.8844061,4.99448 -4.0772629,9.236573 -7.7597864,0 z"
     inkscape:connector-curvature="0" />
  <path
     id="rect3112"
     d="M 3.1435259,2.595034 C 5.1875323,1.4164328 6.622869,1.9530498 7.9875091,2.6890703 8.9014335,3.4831008 9.3698718,4.3328171 9.2807746,5.2521648 6.7098357,3.8084994 4.1388968,3.6557751 1.5680547,5.1581285 1.5894574,4.0159409 2.2484863,3.2380835 3.1435259,2.595034 z"
     inkscape:connector-curvature="0"
     style="fill:#666666;fill-rule:evenodd;stroke:#000000;stroke-width:0.01246199px" />
  <path
     id="path3108"
     d="m 1.6206232,4.9340061 c 0.069033,0.2653407 0.085611,0.7860774 0.037028,1.1631024 C 1.6090684,6.4741336 1.5137279,6.5646824 1.4446885,6.2993417 1.3756553,6.034001 1.3590771,5.5132643 1.4076602,5.1362393 1.454526,4.7725361 1.5453652,4.673376 1.6142302,4.9107395"
     inkscape:connector-curvature="0"
     style="fill:#b3b3b3;fill-rule:evenodd;stroke:#000000;stroke-width:0.01246199px" />
  <path
     id="path3110"
     d="m 9.3570702,4.8634644 c 0.069033,0.2653407 0.085611,0.7860774 0.037028,1.1631024 C 9.3455154,6.4035919 9.2501749,6.4941407 9.1811355,6.2288 9.1121023,5.9634593 9.0955241,5.4427226 9.1441072,5.0656976 9.190973,4.7019944 9.2818122,4.6028343 9.3506772,4.8401978"
     inkscape:connector-curvature="0"
     style="fill:#b3b3b3;fill-rule:evenodd;stroke:#000000;stroke-width:0.01246199px" />
  <path
     id="path3964"
     style="opacity:0.8;color:#000000;fill:#ffffff;stroke-width:0;filter:url(#filter3866)"
     d="m 488.45,145.07 c 60.508,34.918 75.039,103.45 32.456,153.06 -42.583,49.616 -126.16,61.532 -186.66,26.613 -60.508,-34.918 -75.039,-103.45 -32.456,-153.06 41.078,-47.862 120.7,-60.913 181.06,-29.676"
     transform="matrix(0.01079432,0,0,-0.01282903,1.1134071,6.1227996)"
     inkscape:connector-curvature="0" />
  <g
     id="g4068"
     transform="matrix(0.01246199,0,0,0.01246199,15.041917,0.39142744)"
     style="fill-rule:evenodd">
    <path
       id="path3111"
       transform="matrix(0.6849,-0.72864,0.72864,0.6849,-150.05,-919.98)"
       d="m -1402.1,181.98 c 16.192,5.6978 20.081,16.88 8.6853,24.976 -11.396,8.0962 -33.76,10.04 -49.952,4.3426 -16.192,-5.6978 -20.081,-16.88 -8.6853,-24.976 10.993,-7.81 32.301,-9.9395 48.454,-4.8424"
       inkscape:connector-curvature="0"
       style="fill:#808080;stroke-width:0" />
    <path
       id="path3113"
       d="m -953.85,229.17 c 0.5103,1.9649 0.6151,4.284 0.25,6.9375 -1.9056,13.848 -15.821,31.479 -31.062,39.375 -8.6365,4.4742 -15.841,4.8658 -20.125,1.8438 2.1531,8.2898 11.585,10.196 23.906,3.8125 15.242,-7.896 29.157,-25.495 31.062,-39.344 0.8259,-6.0013 -0.7549,-10.314 -4.0312,-12.625 z"
       inkscape:connector-curvature="0"
       style="fill:#999999;stroke:#000000;stroke-width:0.1" />
    <path
       id="rect3128"
       d="m -1105.6,22.266 5.5454,-3.6125 125.65,228.93 -15.93,8.2206 z"
       inkscape:connector-curvature="0"
       style="fill:#999999;stroke-width:0" />
    <path
       id="path3199"
       transform="translate(120.75,94.065)"
       d="m -1214.5,-91.817 c 8.1353,5.7253 10.089,16.962 4.3636,25.097 -5.7253,8.1353 -16.962,10.089 -25.097,4.3637 -8.1354,-5.7253 -10.089,-16.962 -4.3637,-25.097 5.5229,-7.8477 16.229,-9.9876 24.344,-4.8658"
       inkscape:connector-curvature="0"
       style="fill:#808080;stroke-width:0" />
    <path
       id="path3969"
       d="m -1095.7,33.119 1.4633,-3.0513 118.69,214.52 -4.797,6.7969 z"
       inkscape:connector-curvature="0"
       style="fill:#ffffff;stroke-width:0;filter:url(#filter4023)" />
    <path
       id="path4027"
       d="m -1214.5,-91.817 c 8.1353,5.7253 10.089,16.962 4.3636,25.097 -5.7253,8.1353 -16.962,10.089 -25.097,4.3637 -8.1354,-5.7253 -10.089,-16.962 -4.3637,-25.097 5.5229,-7.8477 16.229,-9.9876 24.344,-4.8658"
       transform="matrix(0.59263,0,0,0.59263,-373.55,59.326)"
       inkscape:connector-curvature="0"
       style="fill:#ffffff;stroke-width:0;filter:url(#filter4053)" />
  </g>
  <g
     id="g4076"
     transform="matrix(-0.01246199,0,0,0.01246199,-3.9319164,0.45022192)"
     style="fill-rule:evenodd">
    <path
       id="path4078"
       transform="matrix(0.6849,-0.72864,0.72864,0.6849,-150.05,-919.98)"
       d="m -1402.1,181.98 c 16.192,5.6978 20.081,16.88 8.6853,24.976 -11.396,8.0962 -33.76,10.04 -49.952,4.3426 -16.192,-5.6978 -20.081,-16.88 -8.6853,-24.976 10.993,-7.81 32.301,-9.9395 48.454,-4.8424"
       inkscape:connector-curvature="0"
       style="fill:#808080;stroke-width:0" />
    <path
       id="path4080"
       d="m -953.85,229.17 c 0.5103,1.9649 0.6151,4.284 0.25,6.9375 -1.9056,13.848 -15.821,31.479 -31.062,39.375 -8.6365,4.4742 -15.841,4.8658 -20.125,1.8438 2.1531,8.2898 11.585,10.196 23.906,3.8125 15.242,-7.896 29.157,-25.495 31.062,-39.344 0.8259,-6.0013 -0.7549,-10.314 -4.0312,-12.625 z"
       inkscape:connector-curvature="0"
       style="fill:#999999;stroke:#000000;stroke-width:0.1" />
    <path
       id="path4082"
       d="m -1105.6,22.266 5.5454,-3.6125 125.65,228.93 -15.93,8.2206 z"
       inkscape:connector-curvature="0"
       style="fill:#999999;stroke-width:0" />
    <path
       id="path4084"
       transform="translate(120.75,94.065)"
       d="m -1214.5,-91.817 c 8.1353,5.7253 10.089,16.962 4.3636,25.097 -5.7253,8.1353 -16.962,10.089 -25.097,4.3637 -8.1354,-5.7253 -10.089,-16.962 -4.3637,-25.097 5.5229,-7.8477 16.229,-9.9876 24.344,-4.8658"
       inkscape:connector-curvature="0"
       style="fill:#808080;stroke-width:0" />
    <path
       id="path4086"
       d="m -1095.7,33.119 1.4633,-3.0513 118.69,214.52 -4.797,6.7969 z"
       inkscape:connector-curvature="0"
       style="fill:#ffffff;stroke-width:0;filter:url(#filter4023)" />
    <path
       id="path4088"
       d="m -1214.5,-91.817 c 8.1353,5.7253 10.089,16.962 4.3636,25.097 -5.7253,8.1353 -16.962,10.089 -25.097,4.3637 -8.1354,-5.7253 -10.089,-16.962 -4.3637,-25.097 5.5229,-7.8477 16.229,-9.9876 24.344,-4.8658"
       transform="matrix(0.59263,0,0,0.59263,-373.55,59.326)"
       inkscape:connector-curvature="0"
       style="fill:#ffffff;stroke-width:0;filter:url(#filter4053)" />
  </g>
  <path
     id="path4178"
     style="opacity:0.32653001;color:#000000;fill:#e6e6e6;stroke-width:0;filter:url(#filter4195)"
     d="m -168.29,473.8 v 55.844 c 27.941,72.746 55.015,137.36 81.284,194.5 h 34.079 c -37.602,-68.91 -76.043,-152.03 -115.36,-250.34 z m 771.9,0 c -34.144,95.436 -68.991,179.39 -104.62,250.34 h 29.593 c 25.696,-61.593 50.625,-127.38 75.022,-194.5 v -55.844 z"
     transform="matrix(0.00968448,0,0,0.01006895,3.3082008,0.54940068)"
     inkscape:connector-curvature="0" />
  <metadata
     id="metadata4088">
    <rdf:RDF>
      <cc:Work>
        <dc:format>image/svg+xml</dc:format>
        <dc:type
           rdf:resource="http://purl.org/dc/dcmitype/StillImage" />
        <cc:license
           rdf:resource="http://creativecommons.org/licenses/publicdomain/" />
        <dc:publisher>
          <cc:Agent
             rdf:about="http://openclipart.org/">
            <dc:title>Openclipart</dc:title>
          </cc:Agent>
        </dc:publisher>
        <dc:title>Iron man</dc:title>
        <dc:date>2011-04-07T17:10:27</dc:date>
        <dc:description>Iron, clip art, clipart, face, man, robot, </dc:description>
        <dc:source>http://openclipart.org/detail/131599/iron-man-by-pauthonic</dc:source>
        <dc:creator>
          <cc:Agent>
            <dc:title>pauthonic</dc:title>
          </cc:Agent>
        </dc:creator>
        <dc:subject>
          <rdf:Bag>
            <rdf:li>Iron</rdf:li>
            <rdf:li>clip art</rdf:li>
            <rdf:li>clipart</rdf:li>
            <rdf:li>face</rdf:li>
            <rdf:li>man</rdf:li>
            <rdf:li>robot</rdf:li>
          </rdf:Bag>
        </dc:subject>
      </cc:Work>
      <cc:License
         rdf:about="http://creativecommons.org/licenses/publicdomain/">
        <cc:permits
           rdf:resource="http://creativecommons.org/ns#Reproduction" />
        <cc:permits
           rdf:resource="http://creativecommons.org/ns#Distribution" />
        <cc:permits
           rdf:resource="http://creativecommons.org/ns#DerivativeWorks" />
      </cc:License>
    </rdf:RDF>
  </metadata>
</svg>
