<?xml version="1.0" encoding="UTF-8" standalone="no"?>
<svg
   xmlns:dc="http://purl.org/dc/elements/1.1/"
   xmlns:cc="http://creativecommons.org/ns#"
   xmlns:rdf="http://www.w3.org/1999/02/22-rdf-syntax-ns#"
   xmlns:svg="http://www.w3.org/2000/svg"
   xmlns="http://www.w3.org/2000/svg"
   xmlns:sodipodi="http://sodipodi.sourceforge.net/DTD/sodipodi-0.dtd"
   xmlns:inkscape="http://www.inkscape.org/namespaces/inkscape"
   id="svg2816"
   xml:space="preserve"
   viewBox="0 0 11.11 11.11"
   version="1.1"
   inkscape:version="0.48.2 r9819"
   width="100%"
   height="100%"
   sodipodi:docname="computer_medium_20.svg"><sodipodi:namedview
   pagecolor="#ffffff"
   bordercolor="#666666"
   borderopacity="1"
   objecttolerance="10"
   gridtolerance="10"
   guidetolerance="10"
   inkscape:pageopacity="0"
   inkscape:pageshadow="2"
   inkscape:window-width="1440"
   inkscape:window-height="852"
   id="namedview3662"
   showgrid="false"
   inkscape:zoom="15.224581"
   inkscape:cx="8.0301085"
   inkscape:cy="12.676427"
   inkscape:window-x="0"
   inkscape:window-y="0"
   inkscape:window-maximized="1"
   inkscape:current-layer="svg2816" />
  <defs
   id="defs2820">
    <clipPath
   id="clipPath2832"
   clipPathUnits="userSpaceOnUse">
      <path
   id="path2834"
   d="M 0,595.28 H 841.89 V 0 H 0 v 595.28 z"
   inkscape:connector-curvature="0" />
    </clipPath>
    <linearGradient
   id="linearGradient2848"
   gradientUnits="userSpaceOnUse"
   gradientTransform="matrix(43.423,0,0,-43.423,476,353.26)">
      <stop
   id="stop2850"
   stop-color="#5a5758"
   offset="0" />
      <stop
   id="stop2852"
   stop-color="#262223"
   offset="1" />
    </linearGradient>
    <linearGradient
   id="linearGradient2874"
   gradientUnits="userSpaceOnUse"
   gradientTransform="matrix(31.033,0,0,-31.033,358.63,362)">
      <stop
   id="stop2876"
   stop-color="#5a5758"
   offset="0" />
      <stop
   id="stop2878"
   stop-color="#262223"
   offset=".55618" />
      <stop
   id="stop2880"
   stop-color="#231f20"
   offset="1" />
    </linearGradient>
    <linearGradient
   id="linearGradient2898"
   gradientUnits="userSpaceOnUse"
   gradientTransform="matrix(178.8,0,0,-178.8,324.5,300.47)">
      <stop
   id="stop2900"
   stop-color="#bdbcbc"
   offset="0" />
      <stop
   id="stop2902"
   stop-color="#5a5758"
   offset=".52809" />
      <stop
   id="stop2904"
   stop-color="#9c9a9b"
   offset="1" />
    </linearGradient>
    <linearGradient
   id="linearGradient2928"
   gradientUnits="userSpaceOnUse"
   gradientTransform="matrix(68.164,0,0,-68.164,435.36,300.33)">
      <stop
   id="stop2930"
   stop-color="#5a5758"
   offset="0" />
      <stop
   id="stop2932"
   stop-color="#373334"
   offset=".52809" />
      <stop
   id="stop2934"
   stop-color="#9c9a9b"
   offset="1" />
    </linearGradient>
    <linearGradient
   id="linearGradient3010"
   gradientUnits="userSpaceOnUse"
   gradientTransform="matrix(45.573,0,0,-45.573,331.71,255.33)">
      <stop
   id="stop3012"
   stop-color="#5a5758"
   offset="0" />
      <stop
   id="stop3014"
   stop-color="#262223"
   offset=".55618" />
      <stop
   id="stop3016"
   stop-color="#231f20"
   offset="1" />
    </linearGradient>
  </defs>
  <g
   id="g2826"
   transform="matrix(0.04448302,0,0,-0.04448302,-13.215242,18.750113)">
    <g
   id="g2828">
      <g
   id="g2830"
   clip-path="url(#clipPath2832)">
        <g
   id="g2836">
          <g
   id="g2838">
            <g
   id="g2844">
              <g
   id="g2846">
                <path
   id="path2858"
   d="m 496,311 c -6.666,5.333 -20,14.666 -20,22.666 0,8 9.334,34 14.667,46 5.333,12 16,20.667 16,20.667 0,0 14,-14.667 12.667,-34 -1.521,-22.038 -2,-34 -4,-38 -2,-4 -10.668,-20 -16,-22 -3.12,-1.17 -3.33,4.67 -3.33,4.67"
   inkscape:connector-curvature="0"
   style="fill:url(#linearGradient2848)" />
              </g>
            </g>
          </g>
        </g>
        <path
   id="path2860"
   d="m 496,311 c -6.666,5.333 -20,14.666 -20,22.666 0,8 9.334,34 14.667,46 5.333,12 16,20.667 16,20.667 0,0 14,-14.667 12.667,-34 -1.521,-22.038 -2,-34 -4,-38 -2,-4 -10.668,-20 -16,-22 -3.12,-1.17 -3.33,4.67 -3.33,4.67 z"
   inkscape:connector-curvature="0"
   style="fill:none;stroke:#231f20;stroke-width:3" />
        <g
   id="g2862">
          <g
   id="g2864">
            <g
   id="g2870">
              <g
   id="g2872">
                <path
   id="path2882"
   d="m 369.76,324.67 c -6.635,9.257 -9.048,5.555 -10.857,30.238 -1.81,24.683 6.032,44.43 6.032,44.43 0,0 15.682,-14.811 16.889,-17.896 1.206,-3.085 7.841,-24.683 7.841,-24.683 l -3.61,-14.19 -16.29,-17.9 z"
   inkscape:connector-curvature="0"
   style="fill:url(#linearGradient2874)" />
              </g>
            </g>
          </g>
        </g>
        <path
   id="path2884"
   d="m 369.76,324.67 c -6.635,9.257 -9.048,5.555 -10.857,30.238 -1.81,24.683 6.032,44.43 6.032,44.43 0,0 15.682,-14.811 16.889,-17.896 1.206,-3.085 7.841,-24.683 7.841,-24.683 l -3.61,-14.19 -16.29,-17.9 z"
   inkscape:connector-curvature="0"
   style="fill:none;stroke:#231f20;stroke-width:3" />
        <g
   id="g2886">
          <g
   id="g2888">
            <g
   id="g2894">
              <g
   id="g2896">
                <path
   id="path2908"
   d="m 501.33,285 c 5.332,14 -1.334,46 -6.668,53.334 -5.332,7.332 -38.772,33.309 -58,35.332 -25.333,2.668 -54.146,-6.402 -67.999,-19.332 -9.99,-9.33 -14.95,-37.26 -17.33,-41.33 -4.66,-8 -6.66,-8.67 -13.33,-20 -6.67,-11.33 -14.77,-24.07 -13.33,-32 2.66,-14.67 13.33,-26 13.33,-26 0,0 40.667,-11.334 49.333,-7.334 8.667,4 40.001,29.334 50.001,34.667 10,5.333 58.666,8.667 64,22.667"
   inkscape:connector-curvature="0"
   style="fill:url(#linearGradient2898)" />
              </g>
            </g>
          </g>
        </g>
        <path
   id="path2910"
   d="m 501.33,285 c 5.332,14 -1.334,46 -6.668,53.334 -5.332,7.332 -38.772,33.309 -58,35.332 -25.333,2.668 -54.146,-6.402 -67.999,-19.332 -9.99,-9.33 -14.95,-37.26 -17.33,-41.33 -4.66,-8 -6.66,-8.67 -13.33,-20 -6.67,-11.33 -14.77,-24.07 -13.33,-32 2.66,-14.67 13.33,-26 13.33,-26 0,0 40.667,-11.334 49.333,-7.334 8.667,4 40.001,29.334 50.001,34.667 10,5.333 58.666,8.667 64,22.667 z"
   inkscape:connector-curvature="0"
   style="fill:none;stroke:#231f20;stroke-width:3" />
        <path
   id="path2912"
   d="m 445.63,289.33 c -6.215,10.668 -37.293,16.488 -37.293,16.488 0,0 1.554,17.459 10.1,25.219 8.546,7.76 27.233,2.625 31.079,-6.789 2.645,-6.477 -3.886,-34.918 -3.886,-34.918"
   inkscape:connector-curvature="0"
   style="fill:#100f0d" />
        <path
   id="path2914"
   d="m 445.63,289.33 c -6.215,10.668 -37.293,16.488 -37.293,16.488 0,0 1.554,17.459 10.1,25.219 8.546,7.76 27.233,2.625 31.079,-6.789 2.645,-6.477 -3.886,-34.918 -3.886,-34.918 z"
   inkscape:connector-curvature="0"
   style="fill:none;stroke:#231f20" />
        <g
   id="g2916">
          <g
   id="g2918">
            <g
   id="g2924">
              <g
   id="g2926">
                <path
   id="path2938"
   d="M 494.67,338.33 C 479.33,335 478,335 464.67,328.33 451.33,321.67 438,293.67 436,283 c -2,-10.667 1.334,-20.667 1.334,-20.667 0,0 15.332,3.333 25.332,6 10,2.667 33.334,8 38,14 4.667,6 2.668,30.001 0.668,38.667 -2,8.666 -6.668,17.334 -6.668,17.334"
   inkscape:connector-curvature="0"
   style="fill:url(#linearGradient2928)" />
              </g>
            </g>
          </g>
        </g>
        <path
   id="path2940"
   d="M 494.67,338.33 C 479.33,335 478,335 464.67,328.33 451.33,321.67 438,293.67 436,283 c -2,-10.667 1.334,-20.667 1.334,-20.667 0,0 15.332,3.333 25.332,6 10,2.667 33.334,8 38,14 4.667,6 2.668,30.001 0.668,38.667 -2,8.666 -6.668,17.334 -6.668,17.334 z"
   inkscape:connector-curvature="0"
   style="fill:none;stroke:#100f0d;stroke-width:3" />
        <path
   id="path2942"
   d="m 381.15,252.55 c -1.032,-6.36 -8.001,-10.521 -15.565,-9.293 l -23.48,3.809 c -7.564,1.229 -12.859,7.379 -11.827,13.741 1.032,6.359 8.001,10.52 15.565,9.293 l 23.48,-3.811 c 7.564,-1.227 12.859,-7.379 11.827,-13.739"
   inkscape:connector-curvature="0"
   style="fill:#ffffff" />
        <path
   id="path2944"
   d="m 381.15,252.55 c -1.032,-6.36 -8.001,-10.521 -15.565,-9.293 l -23.48,3.809 c -7.564,1.229 -12.859,7.379 -11.827,13.741 1.032,6.359 8.001,10.52 15.565,9.293 l 23.48,-3.811 c 7.564,-1.227 12.859,-7.379 11.827,-13.739 z"
   inkscape:connector-curvature="0"
   style="fill:none;stroke:#231f20;stroke-width:3" />
        <path
   id="path2946"
   d="m 343.33,233.67 3.67,-8.34 c 0,0 26.341,-11.998 40,-8.334 13.667,3.666 41,39.333 41,39.333 0,0 -36,-28 -40.667,-28.667 -4.66,-0.66 0.67,-1.99 -13.33,-0.66 -14,1.333 -30.667,6.666 -30.667,6.666"
   inkscape:connector-curvature="0"
   style="fill:#ed1838" />
        <path
   id="path2948"
   d="m 343.33,233.67 3.67,-8.34 c 0,0 26.341,-11.998 40,-8.334 13.667,3.666 41,39.333 41,39.333 0,0 -36,-28 -40.667,-28.667 -4.66,-0.66 0.67,-1.99 -13.33,-0.66 -14,1.333 -30.667,6.666 -30.667,6.666 z"
   inkscape:connector-curvature="0"
   style="fill:none;stroke:#231f20" />
        <path
   id="path2950"
   d="m 440.01,331.67 c 9.023,-4.957 2.983,-18.307 -1.699,-23.142 -3.992,-4.11 -13.954,-9.049 -18.92,-3.974 -4.605,4.707 -2.999,12.283 -1.866,17.613"
   inkscape:connector-curvature="0"
   style="fill:#5e5f61" />
        <path
   id="path2952"
   d="m 440.01,331.67 c 9.023,-4.957 2.983,-18.307 -1.699,-23.142 -3.992,-4.11 -13.954,-9.049 -18.92,-3.974 -4.605,4.707 -2.999,12.283 -1.866,17.613"
   inkscape:connector-curvature="0"
   style="fill:none;stroke:#231f20;stroke-width:2" />
        <path
   id="path2954"
   d="m 417.52,322.17 c 3.221,5.613 5.795,7.377 8.72,8.978 3.923,2.155 9.374,2.937 13.765,0.525"
   inkscape:connector-curvature="0"
   style="fill:#5e5f61" />
        <path
   id="path2956"
   d="m 417.52,322.17 c 3.221,5.613 5.795,7.377 8.72,8.978 3.923,2.155 9.374,2.937 13.765,0.525"
   inkscape:connector-curvature="0"
   style="fill:none;stroke:#231f20;stroke-width:2" />
        <path
   id="path2958"
   d="m 416.86,316.66 c -0.373,-6.255 0.033,-15.392 10.894,-14.245 6.997,0.734 12.798,8.711 12.808,14.248 0.013,5.756 -6.534,13.176 -14.105,10.97 -6.2,-1.81 -8.552,-5.391 -9.203,-8.023 l -0.394,-2.95 z"
   inkscape:connector-curvature="0"
   style="fill:#ffffff" />
        <path
   id="path2960"
   d="m 416.86,316.66 c -0.373,-6.255 0.033,-15.392 10.894,-14.245 6.997,0.734 12.798,8.711 12.808,14.248 0.013,5.756 -6.534,13.176 -14.105,10.97 -6.2,-1.81 -8.552,-5.391 -9.203,-8.023 l -0.394,-2.95 z"
   inkscape:connector-curvature="0"
   style="fill:none;stroke:#231f20" />
        <path
   id="path2962"
   d="m 418.74,311.53 c -0.939,-3.797 0.693,-7.465 3.646,-8.195 2.953,-0.731 6.106,1.754 7.045,5.55 0.939,3.794 -0.692,7.464 -3.645,8.194 -2.953,0.731 -6.107,-1.755 -7.046,-5.549"
   inkscape:connector-curvature="0"
   style="fill:#100f0d" />
        <path
   id="path2964"
   d="m 418.74,311.53 c -0.939,-3.797 0.693,-7.465 3.646,-8.195 2.953,-0.731 6.106,1.754 7.045,5.55 0.939,3.794 -0.692,7.464 -3.645,8.194 -2.953,0.731 -6.107,-1.755 -7.046,-5.549 z"
   inkscape:connector-curvature="0"
   style="fill:none;stroke:#231f20" />
        <path
   id="path2966"
   d="m 427.25,304.14 c -1.211,0.069 -3.542,3.702 -2.948,5.247 4.636,-0.415 6.208,-3.17 2.948,-5.247"
   inkscape:connector-curvature="0"
   style="fill:#ffffff" />
        <path
   id="path2968"
   d="m 343.58,233.42 -5.333,1.334 c 0,0 2,-9.333 3.333,-12 1.334,-2.667 18,-10 32,-12 14,-2 20,-5.334 31.334,9.333 11.333,14.667 32.667,42 32.667,42 l -9.334,-6 c 0,0 -29.564,-35.993 -39.667,-39.667 -7.333,-2.666 -13.801,0.662 -42.666,9 l -2.334,8 z"
   inkscape:connector-curvature="0"
   style="fill:#2e2d2d" />
        <path
   id="path2970"
   d="m 343.58,233.42 -5.333,1.334 c 0,0 2,-9.333 3.333,-12 1.334,-2.667 18,-10 32,-12 14,-2 20,-5.334 31.334,9.333 11.333,14.667 32.667,42 32.667,42 l -9.334,-6 c 0,0 -29.564,-35.993 -39.667,-39.667 -7.333,-2.666 -13.801,0.662 -42.666,9 l -2.334,8 z"
   inkscape:connector-curvature="0"
   style="fill:none;stroke:#231f20;stroke-width:3" />
        <path
   id="path2972"
   d="m 341.33,223 c 3.334,-9 1.667,-13 8.667,-17 7,-4 33.333,-15.333 41.667,-12.666 8.333,2.666 16.333,7.666 19,12 2.667,4.333 39,60.332 39,60.332 l -12.333,-3.333 c 0,-0.01 -35.33,-48.34 -40.33,-50.34 -5,-2 -5.333,-2.666 -11.667,-2.666 -6.333,0 -29.401,5.797 -32.666,7 -6.334,2.332 -11.334,6.666 -11.334,6.666"
   inkscape:connector-curvature="0"
   style="fill:#5e5f61" />
        <path
   id="path2974"
   d="m 341.33,223 c 3.334,-9 1.667,-13 8.667,-17 7,-4 33.333,-15.333 41.667,-12.666 8.333,2.666 16.333,7.666 19,12 2.667,4.333 39,60.332 39,60.332 l -12.333,-3.333 c 0,-0.01 -35.33,-48.34 -40.33,-50.34 -5,-2 -5.333,-2.666 -11.667,-2.666 -6.333,0 -29.401,5.797 -32.666,7 -6.334,2.332 -11.334,6.666 -11.334,6.666 z"
   inkscape:connector-curvature="0"
   style="fill:none;stroke:#231f20;stroke-width:3" />
        <path
   id="path2976"
   d="m 353.67,308 c 8,0.666 20,1.334 21,0.666 1,-0.666 4.666,14 4.333,19 -0.333,5 -1.333,7.668 -3.333,9 -2,1.334 -6.25,2.354 -10.667,1.334 -4.333,-1 -9,-5.334 -10.333,-12.334 -1.334,-7 -1.334,-17 -1.334,-17"
   inkscape:connector-curvature="0"
   style="fill:#100f0d" />
        <path
   id="path2978"
   d="m 353.67,308 c 8,0.666 20,1.334 21,0.666 1,-0.666 4.666,14 4.333,19 -0.333,5 -1.333,7.668 -3.333,9 -2,1.334 -6.25,2.354 -10.667,1.334 -4.333,-1 -9,-5.334 -10.333,-12.334 -1.334,-7 -1.334,-17 -1.334,-17"
   inkscape:connector-curvature="0"
   style="fill:none;stroke:#231f20" />
        <path
   id="path2980"
   d="m 364.27,336.82 c -7.117,-0.438 -8.147,-12.165 -7.029,-17.28 0.957,-4.352 5.194,-11.377 9.926,-9.443 4.389,1.794 6.063,7.816 7.237,12.053"
   inkscape:connector-curvature="0"
   style="fill:#5e5f61" />
        <path
   id="path2982"
   d="m 364.27,336.82 c -7.117,-0.438 -8.147,-12.165 -7.029,-17.28 0.957,-4.352 5.194,-11.377 9.926,-9.443 4.389,1.794 6.063,7.816 7.237,12.053"
   inkscape:connector-curvature="0"
   style="fill:none;stroke:#231f20;stroke-width:2" />
        <path
   id="path2984"
   d="m 374.4,322.16 c 0.027,5.168 -0.898,7.335 -2.09,9.507 -1.595,2.918 -4.582,5.376 -8.044,5.163"
   inkscape:connector-curvature="0"
   style="fill:#5e5f61" />
        <path
   id="path2986"
   d="m 374.4,322.16 c 0.027,5.168 -0.898,7.335 -2.09,9.507 -1.595,2.918 -4.582,5.376 -8.044,5.163"
   inkscape:connector-curvature="0"
   style="fill:none;stroke:#231f20;stroke-width:2" />
        <path
   id="path2988"
   d="m 372.88,317.95 c -1.951,-4.639 -5.37,-11.089 -11.463,-6.486 -3.926,2.963 -4.62,10.731 -2.702,14.728 1.993,4.155 8.485,7.231 12.243,3.008 3.078,-3.461 3.238,-6.86 2.713,-8.984 l -0.791,-2.266 z"
   inkscape:connector-curvature="0"
   style="fill:#ffffff" />
        <path
   id="path2990"
   d="m 372.88,317.95 c -1.951,-4.639 -5.37,-11.089 -11.463,-6.486 -3.926,2.963 -4.62,10.731 -2.702,14.728 1.993,4.155 8.485,7.231 12.243,3.008 3.078,-3.461 3.238,-6.86 2.713,-8.984 l -0.791,-2.266 z"
   inkscape:connector-curvature="0"
   style="fill:none;stroke:#231f20" />
        <path
   id="path2992"
   d="m 369.98,314.9 c -0.758,-3.063 -3.008,-5.142 -5.028,-4.642 -2.018,0.499 -3.04,3.387 -2.281,6.452 0.757,3.062 3.008,5.142 5.027,4.642 2.018,-0.5 3.039,-3.388 2.282,-6.452"
   inkscape:connector-curvature="0"
   style="fill:#100f0d" />
        <path
   id="path2994"
   d="m 369.98,314.9 c -0.758,-3.063 -3.008,-5.142 -5.028,-4.642 -2.018,0.499 -3.04,3.387 -2.281,6.452 0.757,3.062 3.008,5.142 5.027,4.642 2.018,-0.5 3.039,-3.388 2.282,-6.452 z"
   inkscape:connector-curvature="0"
   style="fill:none;stroke:#231f20" />
        <path
   id="path2996"
   d="m 362.32,312.53 c 0.748,-0.371 3.404,1.438 3.586,2.758 -2.915,1.313 -4.811,-0.127 -3.586,-2.758"
   inkscape:connector-curvature="0"
   style="fill:#ffffff" />
        <g
   id="g2998">
          <g
   id="g3000">
            <g
   id="g3006">
              <g
   id="g3008">
                <path
   id="path3018"
   d="m 377.17,251.51 c -0.782,-4.64 -5.327,-7.741 -10.154,-6.926 l -27.866,4.699 c -4.826,0.817 -8.104,5.235 -7.321,9.874 0.783,4.638 5.328,7.739 10.155,6.925 l 27.866,-4.699 c 4.826,-0.816 8.103,-5.235 7.32,-9.873"
   inkscape:connector-curvature="0"
   style="fill:url(#linearGradient3010)" />
              </g>
            </g>
          </g>
        </g>
        <path
   id="path3020"
   d="m 377.17,251.51 c -0.782,-4.64 -5.327,-7.741 -10.154,-6.926 l -27.866,4.699 c -4.826,0.817 -8.104,5.235 -7.321,9.874 0.783,4.638 5.328,7.739 10.155,6.925 l 27.866,-4.699 c 4.826,-0.816 8.103,-5.235 7.32,-9.873 z"
   inkscape:connector-curvature="0"
   style="fill:none;stroke:#231f20" />
        <path
   id="path3022"
   d="m 343.33,301.33 c 8.334,5 5.675,4.638 14.334,7 3.666,1 6.653,1.324 19.333,1 13,-0.334 24,-1.667 30.667,-3 6.667,-1.334 29,-5.668 38,-17.668 9,-12 12.333,-18.332 13,-20.332"
   inkscape:connector-curvature="0"
   style="fill:none;stroke:#231f20;stroke-width:2" />
        <path
   id="path3024"
   d="m 412,348 c -0.75,1.75 -18,4 -21,3 -3,-1 -6.5,-30.75 -4,-32 2.5,-1.25 7.75,-2.25 11,-1 3.25,1.25 14.75,28.25 14,30"
   inkscape:connector-curvature="0"
   style="fill:#ffffff" />
        <path
   id="path3026"
   d="m 407.75,204.25 c -8,11.5 -7.5,12.75 -6.75,10.25 0.75,-2.5 -9.779,-5.869 -12.25,-6.25 l 2.25,-13.5 c 0,0 8.5,1.5 12.5,4.5 4,3 4.25,5 4.25,5"
   inkscape:connector-curvature="0"
   style="fill:#949594" />
        <path
   id="path3028"
   d="m 407.67,306.33 c 4.25,15.75 8.583,30.666 25.333,42.916 16.75,12.25 27,14.25 27,14.25"
   inkscape:connector-curvature="0"
   style="fill:none;stroke:#231f20;stroke-width:2" />
        <path
   id="path3030"
   d="m 376,310.25 c 4.75,23.75 7.75,42.5 10.25,47.75 2.5,5.25 8.5,10 8.5,10"
   inkscape:connector-curvature="0"
   style="fill:none;stroke:#231f20;stroke-width:2" />
        <path
   id="path3032"
   d="m 511.67,315 c 0,-6.26 -4.029,-11.334 -9,-11.334 -4.971,0 -9,5.074 -9,11.334 0,6.26 4.029,11.334 9,11.334 4.971,0 9,-5.074 9,-11.334"
   inkscape:connector-curvature="0"
   style="fill:#5e5f61" />
        <path
   id="path3034"
   d="m 511.67,315 c 0,-6.26 -4.029,-11.334 -9,-11.334 -4.971,0 -9,5.074 -9,11.334 0,6.26 4.029,11.334 9,11.334 4.971,0 9,-5.074 9,-11.334 z"
   inkscape:connector-curvature="0"
   style="fill:none;stroke:#231f20;stroke-width:3" />
      </g>
    </g>
  </g>
<metadata
   id="metadata3660"><rdf:RDF><cc:Work><dc:format>image/svg+xml</dc:format><dc:type
         rdf:resource="http://purl.org/dc/dcmitype/StillImage" /><cc:license
         rdf:resource="http://creativecommons.org/licenses/publicdomain/" /><dc:publisher><cc:Agent
           rdf:about="http://openclipart.org/"><dc:title>Openclipart</dc:title></cc:Agent></dc:publisher><dc:title>Robot Dog</dc:title><dc:date>2010-09-13T09:54:33</dc:date><dc:description>A robot technical robot dog</dc:description><dc:source>http://openclipart.org/detail/84649/robot-dog-by-wildchief</dc:source><dc:creator><cc:Agent><dc:title>wildchief</dc:title></cc:Agent></dc:creator><dc:subject><rdf:Bag><rdf:li>canine</rdf:li><rdf:li>clip art</rdf:li><rdf:li>clipart</rdf:li><rdf:li>dog</rdf:li><rdf:li>hound</rdf:li><rdf:li>robot</rdf:li></rdf:Bag></dc:subject></cc:Work><cc:License
       rdf:about="http://creativecommons.org/licenses/publicdomain/"><cc:permits
         rdf:resource="http://creativecommons.org/ns#Reproduction" /><cc:permits
         rdf:resource="http://creativecommons.org/ns#Distribution" /><cc:permits
         rdf:resource="http://creativecommons.org/ns#DerivativeWorks" /></cc:License></rdf:RDF></metadata></svg>