<?xml version="1.0" encoding="UTF-8" standalone="no"?>
<!-- Generator: Adobe Illustrator 12.0.0, SVG Export Plug-In . SVG Version: 6.00 Build 51448)  -->

<svg
   xmlns:dc="http://purl.org/dc/elements/1.1/"
   xmlns:cc="http://creativecommons.org/ns#"
   xmlns:rdf="http://www.w3.org/1999/02/22-rdf-syntax-ns#"
   xmlns:svg="http://www.w3.org/2000/svg"
   xmlns="http://www.w3.org/2000/svg"
   xmlns:xlink="http://www.w3.org/1999/xlink"
   xmlns:sodipodi="http://sodipodi.sourceforge.net/DTD/sodipodi-0.dtd"
   xmlns:inkscape="http://www.inkscape.org/namespaces/inkscape"
   version="1.1"
   id="Layer_1"
   width="100"
   height="100"
   viewBox="-2.296 -2.604 99.999998 99.999997"
   overflow="visible"
   enable-background="new -2.296 -2.604 50.519 57.282"
   xml:space="preserve"
   inkscape:version="0.48.2 r9819"
   sodipodi:docname="game_over.svg"
   style="overflow:visible"><metadata
   id="metadata3410"><rdf:RDF><cc:Work
       rdf:about=""><dc:format>image/svg+xml</dc:format><dc:type
         rdf:resource="http://purl.org/dc/dcmitype/StillImage" /></cc:Work></rdf:RDF></metadata><defs
   id="defs3408"><radialGradient
     inkscape:collect="always"
     xlink:href="#XMLID_13_"
     id="radialGradient3439"
     gradientUnits="userSpaceOnUse"
     gradientTransform="matrix(0.9361,0.3519,0.3519,-0.9361,-128.8396,162.8647)"
     cx="99.075401"
     cy="182.3325"
     r="25.2605" /><radialGradient
     inkscape:collect="always"
     xlink:href="#XMLID_14_"
     id="radialGradient3441"
     gradientUnits="userSpaceOnUse"
     gradientTransform="matrix(0.9468,0.3219,0.3219,-0.9468,-115.9567,155.5075)"
     cx="84.807899"
     cy="190.814"
     r="4.6023002" /><radialGradient
     inkscape:collect="always"
     xlink:href="#XMLID_15_"
     id="radialGradient3443"
     gradientUnits="userSpaceOnUse"
     gradientTransform="matrix(0.9468,0.3219,0.3219,-0.9468,-115.9567,155.5075)"
     cx="99.2034"
     cy="190.38921"
     r="4.6015" /><radialGradient
     inkscape:collect="always"
     xlink:href="#XMLID_16_"
     id="radialGradient3445"
     gradientUnits="userSpaceOnUse"
     gradientTransform="matrix(1.73425,-0.2352,-0.2352,-1.73425,-79.408349,379.4428)"
     cx="95.3479"
     cy="168.354"
     r="3.0058" /><radialGradient
     inkscape:collect="always"
     xlink:href="#XMLID_17_"
     id="radialGradient3447"
     gradientUnits="userSpaceOnUse"
     gradientTransform="matrix(-1.714825,0.349125,0.349125,1.714825,-1362.5468,-836.79949)"
     cx="-689.19562"
     cy="665.45648"
     r="2.5569999" /><radialGradient
     inkscape:collect="always"
     xlink:href="#XMLID_18_"
     id="radialGradient3449"
     gradientUnits="userSpaceOnUse"
     gradientTransform="matrix(1.638175,0.61582499,0.393225,-1.04615,-157.32797,110.0793)"
     cx="102.2424"
     cy="85.452599"
     r="3.6894" /></defs><sodipodi:namedview
   pagecolor="#ffffff"
   bordercolor="#666666"
   borderopacity="1"
   objecttolerance="10"
   gridtolerance="10"
   guidetolerance="10"
   inkscape:pageopacity="0"
   inkscape:pageshadow="2"
   inkscape:window-width="1440"
   inkscape:window-height="852"
   id="namedview3406"
   showgrid="false"
   inkscape:zoom="4.1199678"
   inkscape:cx="-5.8087037"
   inkscape:cy="67.476256"
   inkscape:window-x="0"
   inkscape:window-y="0"
   inkscape:window-maximized="1"
   inkscape:current-layer="Layer_1" />


<radialGradient
   id="XMLID_16_"
   cx="95.3479"
   cy="168.354"
   r="3.0058"
   gradientTransform="matrix(1.73425,-0.2352,-0.2352,-1.73425,-79.408349,379.4428)"
   gradientUnits="userSpaceOnUse">
	<stop
   offset="0"
   style="stop-color:#565759"
   id="stop3366" />
	<stop
   offset="1"
   style="stop-color:#000000"
   id="stop3368" />
</radialGradient>

<radialGradient
   id="XMLID_17_"
   cx="-689.19562"
   cy="665.45648"
   r="2.5569999"
   gradientTransform="matrix(-1.714825,0.349125,0.349125,1.714825,-1362.5468,-836.79949)"
   gradientUnits="userSpaceOnUse">
	<stop
   offset="0"
   style="stop-color:#565759"
   id="stop3373" />
	<stop
   offset="1"
   style="stop-color:#000000"
   id="stop3375" />
</radialGradient>

<radialGradient
   id="XMLID_18_"
   cx="102.2424"
   cy="85.452599"
   r="3.6894"
   gradientTransform="matrix(1.638175,0.61582499,0.393225,-1.04615,-157.32797,110.0793)"
   gradientUnits="userSpaceOnUse">
	<stop
   offset="0"
   style="stop-color:#143557"
   id="stop3380" />
	<stop
   offset="0.1637"
   style="stop-color:#12395B"
   id="stop3382" />
	<stop
   offset="0.3894"
   style="stop-color:#034366"
   id="stop3384" />
	<stop
   offset="0.6511"
   style="stop-color:#005478"
   id="stop3386" />
	<stop
   offset="0.9379"
   style="stop-color:#006C94"
   id="stop3388" />
	<stop
   offset="1"
   style="stop-color:#00729A"
   id="stop3390" />
</radialGradient>





<g
   id="g3412"
   transform="translate(5.7958746,0.12175038)"><ellipse
     transform="matrix(1.75,0,0,1.75,1.722,1.7094974)"
     style="opacity:0.75;fill:#bcbec0"
     sodipodi:ry="2.3610001"
     sodipodi:rx="22.792999"
     sodipodi:cy="51.323002"
     sodipodi:cx="24.160999"
     id="ellipse3336"
     ry="2.3610001"
     rx="22.792999"
     cy="51.323002"
     cx="24.160999"
     enable-background="new    "
     d="m 46.953999,51.323002 c 0,1.303944 -10.204774,2.361 -22.793,2.361 -12.588226,0 -22.792999,-1.057056 -22.792999,-2.361 0,-1.303944 10.204773,-2.361 22.792999,-2.361 12.588226,0 22.793,1.057056 22.793,2.361 z" /><g
     transform="matrix(1.75,0,0,1.75,1.722,1.7094974)"
     id="g3338">
	<path
   style="fill:#8cc63f;stroke:#006031;stroke-width:0.52240002"
   inkscape:connector-curvature="0"
   id="path3340"
   d="m 33.597,15.392 c 6.46,5.076 9.197,13.932 6.152,22.03 C 35.987,47.427 24.829,52.488 14.821,48.729 4.817,44.969 -0.244,33.808 3.516,23.803 6.668,15.416 15.016,10.504 23.526,11.347 l 0.252,-0.358 C 23.543,10.221 23.503,6.741 23.305,6.675 21.181,5.953 20.046,3.647 20.767,1.523 c 0.723,-2.124 3.028,-3.258 5.152,-2.538 2.125,0.723 3.262,3.029 2.539,5.154 -0.437,1.282 -1.452,2.203 -2.653,2.574 -0.176,0.054 -0.23,3.698 -0.375,4.465 l 0.539,0.57 c 0.829,0.192 1.655,0.44 2.472,0.749 1.107,0.415 2.152,0.921 3.134,1.507 l 0.802,-0.029 c 0.343,-0.688 2.5,-3.636 2.396,-3.787 C 34.061,9.166 33.828,7.83 34.259,6.56 34.982,4.436 37.288,3.3 39.412,4.022 c 2.123,0.722 3.26,3.028 2.538,5.151 -0.724,2.125 -3.029,3.26 -5.152,2.539 -0.204,-0.069 -2.515,2.634 -3.213,3.148 l 0.012,0.532 z" />
	
		<radialGradient
   gradientUnits="userSpaceOnUse"
   gradientTransform="matrix(0.9361,0.3519,0.3519,-0.9361,-128.8396,162.8647)"
   r="25.2605"
   cy="182.3325"
   cx="99.075401"
   id="XMLID_13_">
		<stop
   id="stop3343"
   style="stop-color:#FFF200"
   offset="0" />
		<stop
   id="stop3345"
   style="stop-color:#006E3A"
   offset="0.9157" />
		<stop
   id="stop3347"
   style="stop-color:#005D36"
   offset="1" />
	</radialGradient>
	<circle
   d="m 40.271,30.663 c 0,10.355339 -8.394661,18.75 -18.75,18.75 -10.355339,0 -18.7500001,-8.394661 -18.7500001,-18.75 0,-10.355339 8.3946611,-18.75 18.7500001,-18.75 10.355339,0 18.75,8.394661 18.75,18.75 z"
   style="fill:url(#radialGradient3439);stroke:#28903a;stroke-width:0.52240002"
   sodipodi:ry="18.75"
   sodipodi:rx="18.75"
   sodipodi:cy="30.663"
   sodipodi:cx="21.521"
   id="circle3349"
   r="18.75"
   cy="30.663"
   cx="21.521" />
	
		<radialGradient
   gradientUnits="userSpaceOnUse"
   gradientTransform="matrix(0.9468,0.3219,0.3219,-0.9468,-115.9567,155.5075)"
   r="4.6023002"
   cy="190.814"
   cx="84.807899"
   id="XMLID_14_">
		<stop
   id="stop3352"
   style="stop-color:#FFF200"
   offset="0" />
		<stop
   id="stop3354"
   style="stop-color:#006E3A"
   offset="1" />
	</radialGradient>
	<circle
   d="m 28.005001,2.8410001 c 0,1.8866046 -1.529396,3.4159999 -3.416,3.4159999 -1.886605,0 -3.416,-1.5293953 -3.416,-3.4159999 0,-1.88660466 1.529395,-3.41599991 3.416,-3.41599991 1.886604,0 3.416,1.52939525 3.416,3.41599991 z"
   style="opacity:0.5;fill:url(#radialGradient3441)"
   sodipodi:ry="3.4159999"
   sodipodi:rx="3.4159999"
   sodipodi:cy="2.8410001"
   sodipodi:cx="24.589001"
   id="circle3356"
   r="3.4159999"
   cy="2.8410001"
   cx="24.589001"
   enable-background="new    " />
	
		<radialGradient
   gradientUnits="userSpaceOnUse"
   gradientTransform="matrix(0.9468,0.3219,0.3219,-0.9468,-115.9567,155.5075)"
   r="4.6015"
   cy="190.38921"
   cx="99.2034"
   id="XMLID_15_">
		<stop
   id="stop3359"
   style="stop-color:#FFF200"
   offset="0" />
		<stop
   id="stop3361"
   style="stop-color:#006E3A"
   offset="1" />
	</radialGradient>
	<circle
   d="m 41.498001,7.8779998 c 0,1.8866046 -1.529396,3.4160002 -3.416,3.4160002 -1.886605,0 -3.416,-1.5293956 -3.416,-3.4160002 0,-1.8866047 1.529395,-3.4159999 3.416,-3.4159999 1.886604,0 3.416,1.5293952 3.416,3.4159999 z"
   style="opacity:0.41000001;fill:url(#radialGradient3443)"
   sodipodi:ry="3.4159999"
   sodipodi:rx="3.4159999"
   sodipodi:cy="7.8779998"
   sodipodi:cx="38.082001"
   id="circle3363"
   r="3.4159999"
   cy="7.8779998"
   cx="38.082001"
   enable-background="new    " />
</g><path
     style="fill:url(#radialGradient3445)"
     inkscape:connector-curvature="0"
     id="path3370"
     d="m 30.415,65.048997 c 1.6835,-0.231 5.2535,-0.5145 6.3,0.833 0.749,0.966 -0.15925,0.8295 -0.952,0.73325 -1.03425,-0.126 -2.051,-0.44975 -3.115,-0.47075 -1.80075,-0.03675 -3.367,0.53375 -5.01725,1.16025 -0.79625,0.30625 -2.41675,0.58275 -1.0535,-0.609 0.96075,-0.84 2.583,-1.4735 3.83775,-1.64675 z" /><path
     style="fill:url(#radialGradient3447)"
     inkscape:connector-curvature="0"
     id="path3377"
     d="m 52.045,64.842497 c -0.86275,-0.2905 -1.757,-0.46725 -2.5795,-0.51975 -1.295,-0.0875 -4.1965,-0.2555 -4.45725,1.561 0.8995,0.46725 2.2225,-0.29925 3.21125,-0.336 2.5165,-0.10325 4.7845,2.02475 7.2415,1.778 0.23975,-0.02275 -0.99925,-1.25125 -1.036,-1.27925 -0.69825,-0.539 -1.54525,-0.92225 -2.38,-1.204 z" /><path
     style="fill:url(#radialGradient3449)"
     inkscape:connector-curvature="0"
     id="path3392"
     d="m 43.70975,84.067997 c -1.3335,-0.336 -2.429,-1.3125 -2.219,-2.80525 0.19425,-1.39475 0.73325,-2.60575 2.16825,-3.0485 0.8855,-0.27475 1.9215,-0.056 2.71425,0.3955 1.23375,0.69825 1.68175,2.46925 1.16025,3.73275 -0.6825,1.6625 -2.07375,2.17 -3.82375,1.7255 z" /><g
     transform="matrix(1.75,0,0,1.75,1.722,1.7094974)"
     id="g3394">
	<path
   style="fill:none;stroke:#1e3319;stroke-width:0.33000001"
   inkscape:connector-curvature="0"
   id="path3396"
   d="m 22.646,45.302 c 0.058,-0.646 0.553,-1.313 1.125,-1.542 0.939,-0.376 2.319,0.277 2.537,1.29 0.258,1.197 -1.026,2.264 -2.142,1.979 -0.638,-0.162 -1.333,-0.628 -1.496,-1.321 -0.03,-0.131 -0.037,-0.268 -0.024,-0.406 z" />
</g><rect
     style="fill:none"
     id="rect3398"
     height="100.2435"
     width="88.408249"
     y="-2.8475018"
     x="-2.296" /><path
     style="fill:#185c00"
     inkscape:connector-curvature="0"
     id="path3400"
     d="m 3.85525,25.353747 c 0.4374999,0.434 0.6912499,1.0325 1.1637499,1.449 -1.1707499,1.2215 -0.46025,4.655 0.2975,5.9255 0.595,-1.5645 1.393,-3.3425 2.8945,-4.2385 -0.23275,1.6835 1.09025,2.7475 1.694,4.15275 -2.03875,-1.00275 -4.879,2.70725 -4.963,4.45725 -0.63525,-1.23375 -0.791,-2.891 -0.99925,-4.2455 -0.2432499,-1.5785 0.084,-3.1255 -0.01225,-4.6305 -1.0832499,1.554 -2.0019999,3.91125 -2.0264999,5.74 -0.3045,-0.8155 -0.15225,-3.57175 -1.38250002,-3.5735 C 0.98174997,30.071747 3.717,25.215497 3.85525,25.353747 z" /><path
     style="fill:#185c00"
     inkscape:connector-curvature="0"
     id="path3402"
     d="m 15.99675,12.361747 c 0.462,0.78225 0.5985,1.7325 1.12175,2.506 -2.1315,1.30725 -2.401,6.48375 -1.792,8.58375 1.435,-2.0125 3.241,-4.25775 5.72425,-4.977 -0.966,2.3205 0.53375,4.333 0.86975,6.573 -2.541,-2.2015 -7.99225,2.044 -8.764,4.51325 -0.448,-1.9985 -0.04725,-4.431 0.15925,-6.44175 0.245,-2.35025 1.2915,-4.43625 1.71325,-6.62725 -2.128,1.8165 -4.32775,4.844 -5.0452501,7.448 -0.1295,-1.27925 1.1182501,-5.16425 -0.63875,-5.62625 0.7770001,-0.2835 6.5047501,-6.202 6.6517501,-5.95175 z" /><path
     style="fill:#185c00"
     inkscape:connector-curvature="0"
     id="path3404"
     d="m 32.98225,1.2177474 c 0.35175,1.1725 0.22225,2.464 0.65625,3.64525 -3.2095,1.02025 -5.2325,7.7192496 -5.11525,10.6662496 2.534,-2.177 5.6175,-4.53425 9.107,-4.67425 -2.016,2.7265 -0.70175,5.85025 -0.9835,8.89 -2.618,-3.70125 -11.13,0.09975 -12.936,3.08875 0.056,-2.76325 1.36325,-5.8205 2.2855,-8.38775 1.07625,-3.00125 3.122,-5.3969997 4.382,-8.1304997 -3.3775,1.69575 -7.22925,4.9507497 -9.01075,8.1322497 0.23975,-1.7185 3.13075,-6.4049997 0.9765,-7.5757497 1.113,-0.12425 10.5245,-6.0304999 10.63825,-5.6542499 z" /></g>
</svg>