<?xml version="1.0" encoding="UTF-8" standalone="no"?>
<!-- Generator: Adobe Illustrator 12.0.0, SVG Export Plug-In . SVG Version: 6.00 Build 51448)  -->

<svg
   xmlns:dc="http://purl.org/dc/elements/1.1/"
   xmlns:cc="http://creativecommons.org/ns#"
   xmlns:rdf="http://www.w3.org/1999/02/22-rdf-syntax-ns#"
   xmlns:svg="http://www.w3.org/2000/svg"
   xmlns="http://www.w3.org/2000/svg"
   xmlns:sodipodi="http://sodipodi.sourceforge.net/DTD/sodipodi-0.dtd"
   xmlns:inkscape="http://www.inkscape.org/namespaces/inkscape"
   version="1.1"
   id="Layer_1"
   width="22.219999"
   height="22.219999"
   viewBox="0 0 22.219999 22.219999"
   overflow="visible"
   enable-background="new 0 0 211.956 221.711"
   xml:space="preserve"
   inkscape:version="0.48.2 r9819"
   sodipodi:docname="player_chick.svg"
   style="overflow:visible"><metadata
   id="metadata3136"><rdf:RDF><cc:Work
       rdf:about=""><dc:format>image/svg+xml</dc:format><dc:type
         rdf:resource="http://purl.org/dc/dcmitype/StillImage" /><dc:title></dc:title></cc:Work></rdf:RDF></metadata><defs
   id="defs3134" /><sodipodi:namedview
   pagecolor="#ffffff"
   bordercolor="#666666"
   borderopacity="1"
   objecttolerance="10"
   gridtolerance="10"
   guidetolerance="10"
   inkscape:pageopacity="0"
   inkscape:pageshadow="2"
   inkscape:window-width="1440"
   inkscape:window-height="852"
   id="namedview3132"
   showgrid="false"
   inkscape:zoom="1.0644488"
   inkscape:cx="-173.03965"
   inkscape:cy="110.8555"
   inkscape:window-x="0"
   inkscape:window-y="0"
   inkscape:window-maximized="1"
   inkscape:current-layer="Layer_1" />
<g
   id="g3104"
   transform="matrix(0.08876825,0,0,0.08876825,1.7897771,1.2403557)">
	<g
   id="g3106">
		<path
   d="m 203.679,116.412 c 0,54.5 -44.188,98.682 -98.685,98.682 -54.501,0 -98.683,-44.182 -98.683,-98.682 0,-13.904 2.932,-27.787 8.642,-40.465 2.688,-5.969 6.331,-11.139 9.599,-16.751 3.651,-6.271 0.479,-8.593 2.425,-14.978 1.591,-5.218 7.265,-6.315 11.517,-7.81 10.943,-3.844 15.533,-7.016 22.524,-16.33 8.271,-11.018 7.921,-3.362 19.452,-2.363 11.814,1.027 24.501,-9.551 36.594,-10.014 8.174,-0.311 10.295,5.872 16.731,7.541 6.353,1.648 12.963,-4.045 19.704,-0.176 4.983,2.857 4.576,9.791 7.969,13.393 4.216,4.473 11.126,7.078 15.313,11.889 4.781,5.493 5.898,13.736 9.602,20.157 10.26,17.791 17.296,34.954 17.296,55.907 z"
   id="path3108"
   inkscape:connector-curvature="0"
   style="fill:#fcd977" />
		<path
   d="m 203.679,116.412 c 0,54.5 -44.188,98.682 -98.685,98.682 -54.501,0 -98.683,-44.182 -98.683,-98.682 0,-18.601 5.304,-37.007 15.254,-52.724 3.058,-4.831 5.265,-6.28 6.432,-11.634 0.983,-4.507 -2.231,-6.677 1.92,-11.097 3.745,-3.988 8.387,-6.828 13.354,-9.04 3.727,-1.66 13.298,-2.376 15.906,-4.995 5.393,-5.417 2.42,-16.343 15.683,-14.495 10.008,1.393 6.247,6.712 16.705,1.377 6.292,-3.209 42.878,-13.536 41.956,1.133 5.228,-1.601 12.382,-1.758 17.546,0.155 8.397,3.114 3.27,8.016 7.938,13.563 5.307,6.307 17.242,5.593 22.249,13.847 2.836,4.672 0.491,6.267 1.146,10.07 1.193,6.944 6.997,12.121 10.438,18.806 7.14,13.875 10.841,29.435 10.841,45.034 z"
   id="path3110"
   inkscape:connector-curvature="0"
   style="fill:none;stroke:#000000;stroke-width:8.07409954" />
		<path
   d="m 138.013,172.455 c 1.622,6.662 -1.769,13.344 -13.798,17.891 -6.632,2.505 -12.674,7.448 -19.505,7.998 -3.274,0.265 -3.708,-0.463 -7.335,-1.314 -10.92,-2.561 -24.13,-4.132 -28.74,-16.015 -6.668,-17.181 20.401,-31.825 34.245,-31.825 14.113,-0.001 32.297,11.603 35.133,23.265 z"
   id="path3112"
   inkscape:connector-curvature="0"
   style="fill:#ff7f00;stroke:#8f0000;stroke-width:4.8427" />
		<path
   d="m 65.82,125.635 c 0,10.337 -7.985,18.716 -17.828,18.716 -9.848,0 -17.832,-8.379 -17.832,-18.716 0,-10.34 7.983,-18.722 17.832,-18.722 9.843,0 17.828,8.382 17.828,18.722 z"
   id="path3114"
   inkscape:connector-curvature="0" />
		<path
   d="m 179.834,124.609 c 0,10.337 -7.984,18.719 -17.827,18.719 -9.849,0 -17.833,-8.382 -17.833,-18.719 0,-10.337 7.984,-18.719 17.833,-18.719 9.843,0.001 17.827,8.382 17.827,18.719 z"
   id="path3116"
   inkscape:connector-curvature="0" />
		<circle
   cx="41.577"
   cy="119.634"
   r="4.71"
   id="circle3118"
   sodipodi:cx="41.577"
   sodipodi:cy="119.634"
   sodipodi:rx="4.71"
   sodipodi:ry="4.71"
   style="fill:#ffffff"
   d="m 46.287,119.634 c 0,2.60126 -2.108739,4.71 -4.71,4.71 -2.601262,0 -4.71,-2.10874 -4.71,-4.71 0,-2.60126 2.108738,-4.71 4.71,-4.71 2.601261,0 4.71,2.10874 4.71,4.71 z" />
		<circle
   cx="157.642"
   cy="119.298"
   r="4.3740001"
   id="circle3120"
   sodipodi:cx="157.642"
   sodipodi:cy="119.298"
   sodipodi:rx="4.3740001"
   sodipodi:ry="4.3740001"
   style="fill:#ffffff"
   d="m 162.016,119.298 c 0,2.41569 -1.95831,4.374 -4.374,4.374 -2.4157,0 -4.374,-1.95831 -4.374,-4.374 0,-2.4157 1.9583,-4.374 4.374,-4.374 2.41569,0 4.374,1.9583 4.374,4.374 z" />
		<circle
   cx="43.258999"
   cy="130.063"
   r="2.355"
   id="circle3122"
   sodipodi:cx="43.258999"
   sodipodi:cy="130.063"
   sodipodi:rx="2.355"
   sodipodi:ry="2.355"
   style="fill:#ffffff"
   d="m 45.613999,130.063 c 0,1.30063 -1.05437,2.355 -2.355,2.355 -1.300631,0 -2.355,-1.05437 -2.355,-2.355 0,-1.30063 1.054369,-2.355 2.355,-2.355 1.30063,0 2.355,1.05437 2.355,2.355 z" />
		<circle
   cx="154.95"
   cy="130.063"
   r="1.682"
   id="circle3124"
   sodipodi:cx="154.95"
   sodipodi:cy="130.063"
   sodipodi:rx="1.682"
   sodipodi:ry="1.682"
   style="fill:#ffffff"
   d="m 156.632,130.063 c 0,0.92895 -0.75306,1.682 -1.682,1.682 -0.92895,0 -1.682,-0.75305 -1.682,-1.682 0,-0.92894 0.75305,-1.682 1.682,-1.682 0.92894,0 1.682,0.75306 1.682,1.682 z" />
	</g>
	<path
   d="m 101.309,170.387 c 4.024,-0.789 15.51,8.337 15.707,12.536 0.182,3.832 -9.157,8.857 -12.734,9.094 -3.419,0.229 -14.339,-3.984 -15.007,-7.879 -0.589,-3.496 8.873,-13.137 12.034,-13.751 z"
   id="path3126"
   inkscape:connector-curvature="0" />
	<path
   d="M 62.86,91.262 C 59.119,88.305 53.352,87.285 48.684,86.923 41.014,86.324 35.141,88.9 29.214,93.325"
   id="path3128"
   inkscape:connector-curvature="0"
   style="fill:none;stroke:#000000;stroke-width:5.38269997;stroke-linecap:round" />
	<path
   d="m 142.432,77.371 c 8.2,-7.364 28.001,-6.739 34.95,1.646"
   id="path3130"
   inkscape:connector-curvature="0"
   style="fill:none;stroke:#000000;stroke-width:5.38269997;stroke-linecap:round" />
</g>
</svg>