<?xml version="1.0" encoding="utf-8"?>
<!-- Generator: Adobe Illustrator 12.0.0, SVG Export Plug-In . SVG Version: 6.00 Build 51448)  -->
<!DOCTYPE svg PUBLIC "-//W3C//DTD SVG 1.1//EN" "http://www.w3.org/Graphics/SVG/1.1/DTD/svg11.dtd" [
	<!ENTITY ns_svg "http://www.w3.org/2000/svg">
	<!ENTITY ns_xlink "http://www.w3.org/1999/xlink">
]>
<svg  version="1.1" id="Layer_1" xmlns="&ns_svg;" xmlns:xlink="&ns_xlink;" width="209.996" height="203.345"
	 viewBox="0 0 209.996 203.345" overflow="visible" enable-background="new 0 0 209.996 203.345" xml:space="preserve">
<g>
	<path fill="#8B5C29" stroke="#000000" stroke-width="3.6423" d="M65.543,44.957c-20.349-0.548-43.814,14.612-51.552,33.509
		c-1.955,4.774-9.129,27.308-4.37,31.208c4.617,3.779,18.759-2.998,22.766-5.033c9.319-4.726,16.3-11.893,21.747-20.708
		c3.403-5.51,17.729-28.377,5.201-31.589c-11.029-2.828-29.717,14.114-34.985,22.44"/>
	<path fill="#EFE2BD" stroke="#000000" stroke-width="2.8409" d="M92.06,150.661c-9.916-14.946-37.438-0.683-34.615,15.65
		c1.266,7.32,6.139,12.168,8.501,18.659c-0.372-1.024-0.292-2.041-0.424-2.728c4.731,3.4,5.659,11.403,4.354,16.898
		c0.169,0.164,0.336,0.331,0.499,0.498c11.064-2.668,21.048-15.665,21.777-26.772c1.014,1.664,1.65,3.908,2.142,5.534
		C96.403,170.516,96.723,157.683,92.06,150.661z"/>
	<path fill="#8B5C29" stroke="#000000" stroke-width="3.6423" d="M55.127,136.218c-7.717,3.984-8.137,12.657-2.193,18.619
		c6.15,6.164,17.525,7.854,25.87,7.395c18.399-1.014,16.397-31.4,31.966-30.849c17.301,0.615,5.924,38.429,9.075,47.3
		c1.885,5.303,9.929,4.354,16.321,4.613c12.634,0.509,42.668,1.287,38.987-17.948c-3.123-16.319-12.429-33.604-6.575-50.759"/>
	<path fill="#8B5C29" stroke="#000000" stroke-width="3.6423" d="M175.576,84.172c-0.68,10.272-5.216,19.536-7.145,29.471
		c-1.64,8.436-5.329,18.732-12.491,24.064c-0.436-1.362-1.626-3.157-1.966-4.756c-2.221,2.84-4.364,6.268-6.635,9.383
		c-1.304-1.601-2.456-4.531-3.662-6.431c-11.144,6.939-19.047,13.101-32.681,13.101c-13.575,0-28.925-3.004-42.269-5.449
		c-10.151-1.86-23.019-9.54-24.303-20.298c-2.982-24.952-0.213-55.313,14.162-76.429c11.583-17.011,31.914-27.084,52.409-27.084
		c9.931,0,20.21,2.389,29.063,6.844c16.112,8.108,27.582,22.837,33.296,39.819C175.318,72.238,175.968,78.228,175.576,84.172z"/>
	<path fill="#EFE2BD" stroke="#000000" stroke-width="2.8409" d="M168.624,30.864c-8.232,1.082-14.293,6.947-17.231,14.331
		c-2.141,5.387-0.52,9.7-6.726,11.727c-11.951,3.895-13.79-4.983-18.674-13.356c-4.55-7.802-3.39-12.872,3.578-19.049
		c11.795-10.456,27.479-15.986,43.096-11.363c7.273,2.154,13.546,6.182,21.191,4.318c2.691-0.654,3.786-5.407,7.009-3.625
		c5.432,3.005-2.95,12.438-5.968,14.336C187.367,32.92,177.003,29.765,168.624,30.864z"/>
	<path fill="#EFE2BD" stroke="#000000" stroke-width="2.8409" d="M37.898,23.806c8.231,1.082,14.292,6.945,17.23,14.324
		c1.761,4.419,1.465,12.654,8.447,10.985c4.535-1.081,6.849-8.088,9.803-11.129c3.095-3.19,9.554-5.076,10.157-10.16
		c0.67-5.661-7.197-11.245-11.098-14.174C61.62,5.52,46.983,2.21,33.858,6.094c-7.274,2.154-13.545,6.184-21.192,4.32
		c-2.69-0.655-3.788-5.408-7.009-3.626c-5.43,3.006,2.951,12.438,5.967,14.336C19.158,25.86,29.522,22.707,37.898,23.806z"/>
	<g>
		<g>
			<path fill="#FFBF00" d="M62.114,64.707c-5.175-0.231-9.582,3.964-9.824,9.349c-0.24,5.385,3.774,9.956,8.951,10.188
				c5.175,0.232,9.58-3.961,9.822-9.348C71.306,69.51,67.29,64.939,62.114,64.707z"/>
			
				<ellipse transform="matrix(0.999 0.0447 -0.0447 0.999 3.3785 -2.6863)" enable-background="new    " cx="61.693" cy="74.122" rx="7.671" ry="2.45"/>
		</g>
		
			<ellipse transform="matrix(0.999 0.0444 -0.0444 0.999 3.1799 -2.5084)" fill="#FFFFFF" cx="58.023" cy="70.287" rx="2.687" ry="2.872"/>
	</g>
	<g>
		<g>
			<path fill="#FFBF00" d="M115.052,73.789c-4.895-1.706-10.318,1.049-12.092,6.143c-1.773,5.089,0.763,10.619,5.657,12.325
				c4.891,1.703,10.313-1.052,12.088-6.143C122.479,81.022,119.942,75.493,115.052,73.789z"/>
			
				<ellipse transform="matrix(0.9443 0.329 -0.329 0.9443 33.433 -32.2259)" enable-background="new    " cx="111.949" cy="82.687" rx="7.671" ry="2.45"/>
		</g>
		
			<ellipse transform="matrix(0.9443 0.329 -0.329 0.9443 31.752 -31.6991)" fill="#FFFFFF" cx="109.532" cy="77.963" rx="2.687" ry="2.87"/>
	</g>
	<path d="M62.389,131.235c0.288,0.288,19.484-9.583,20.747-11.114c-3.379-6.134-10.188,0.192-13.657,3.2
		c-5.509,4.774-6.907,5.116-11.871-0.32c-1.915-2.099-3.71-5.867-6.505-7.02c-3.248-1.336-5.806,2.004-6.919,1.679
		C51.394,119.759,57.263,126.072,62.389,131.235z"/>
	<path fill="#8B5C29" stroke="#000000" stroke-width="2.6467" d="M61.605,128.646c1.234,4.277,0.48,10.429,0.474,13.974"/>
	<path fill="#8B5C29" stroke="#000000" stroke-width="3.6423" d="M148.405,55.414c20.349-0.549,43.813,14.612,51.552,33.51
		c1.956,4.771,9.131,27.308,4.369,31.208c-4.616,3.779-18.757-3-22.766-5.033c-9.319-4.727-16.3-11.893-21.749-20.71
		c-3.403-5.508-17.728-28.375-5.2-31.587c11.03-2.828,29.72,14.112,34.986,22.44"/>
	<path fill="#D59758" d="M63.13,125.533c5.661-0.561,6.678-6.102,11.028-8.197c4.553-2.192,7.58,3.205,11.321,1.734
		c3.04-1.193,6.47-12.337,7.054-15.399c0.804,1.43,2.257,1.999,3.143,3c-0.045-8.556,6.555-51.733,24.604-45.651
		c-1.229-3.482-4.928-5.773-6.775-8.868c1.807-1.028,1.694-1.89,2.699-3.377c-10.065,3.733-5.024-7.418-5.495-13.461
		c-3.554,2.888-8.234,4.055-12.174,6.239c0.47-4.57,2.861-8.856-1.072-12.659c-3.635,1.842-5.14,6.093-7.245,9.454
		c-2.213,3.534-5.78,6.543-7.247,10.379c-0.459-1.675-2.7-4.417-4.852-3.496c-2.118,0.905-1.08,7.292-1.589,9.447
		c-2.727-1.856-7.769-1.864-10.81-0.724c2.535,4.763,4.233,10.089,5.357,15.364c-5.606-2.028-16.156,25.208-17.835,30.01
		c-1.824,5.214-4.823,12.805-2.109,18.25C52.764,120.851,59.283,125.912,63.13,125.533z"/>
</g>
</svg>
