<?xml version="1.0" encoding="utf-8"?>
<!-- Generator: Adobe Illustrator 12.0.0, SVG Export Plug-In . SVG Version: 6.00 Build 51448)  -->
<!DOCTYPE svg PUBLIC "-//W3C//DTD SVG 1.1//EN" "http://www.w3.org/Graphics/SVG/1.1/DTD/svg11.dtd" >
<svg  version="1.1" id="Layer_1" xmlns="http://www.w3.org/2000/svg" xmlns:xlink="http://www.w3.org/1999/xlink" width="308.984" height="334.382"
	 viewBox="0 0 308.984 334.382" overflow="visible" enable-background="new 0 0 308.984 334.382" xml:space="preserve">
<g>
	<path fill="#FFFFFF" enable-background="new    " d="M264.472,228.889c1.445-9.716,3.801-19.174,5.891-28.906
		c1.428-6.644,3.717-13.266,4.893-20.034c2.367-13.623,6.85-27.269,6.85-41.219c0-67.738-57.111-122.65-127.559-122.65
		c-13.411,0-26.815,2.013-39.617,6.03C67.915,36.869,27.084,78.421,24.479,129.117c-0.161,3.14-0.225,6.098-0.191,8.957
		c0.112,9.512,1.295,17.903,3.462,28.111c2.971,13.987,6.784,28.418,11.582,41.824c2.544,7.101,8.673,18.044,6.274,25.649
		c-1.777,5.628-4.027,10.582-2.715,17.022c0.613,3.015,2.483,5.755,2.846,8.726c0.359,2.944-0.544,6.688-0.544,9.838
		c-0.002,10.029-1.538,19.532,2.333,28.862c0.68,1.639,2.101,3.373,3.394,5.064c12.005-3.463,24.941-12.016,37.884-16.327
		c-6.541,6.542,0,16.353-3.271,22.896c16.354-6.543,16.354-29.437,32.708-32.709c-3.272,6.543-6.542,16.355-3.272,19.627
		c6.542,3.27,16.355,0,19.625-9.813c-3.271,9.813,6.541,26.167,16.354,19.626c6.542,0,6.542-16.355,13.083-16.355
		c6.543-3.271,0,13.082,13.084,13.082c-3.271-6.539,6.541-9.811,3.27-16.353c9.813,16.353,22.896,29.437,35.979,45.792
		c0-16.355,0-32.709-3.27-49.063c6.541,3.271,9.813,16.354,16.354,16.354c6.541-3.27-3.271-9.813,0-16.354
		c3.271,9.813,13.082,13.084,19.625,9.813c6.027-0.604,11.387-2.326,16.223-4.881c-0.166-1.703-0.338-3.398-0.535-5.117
		C262.813,266.264,261.987,245.594,264.472,228.889z"/>
	<path fill="#F38620" d="M91.801,205.055c13.16,8.58,24.229,20.96,39.01,26.911c17.623,7.1,29.821-5.562,46.999-4.603
		c4.373,0.249,8.953,2.344,13.07,3.827c4.42,1.593,7.002,2.166,11.025,0.278c8.229-3.868,11.953-12.69,15.016-20.605
		c3.744-9.666,9.209-18.252,17.025-25.186c4.646-4.124,10.127-7.484,13.654-12.971c12.674-19.737-2.268-36.921-16.125-49.805
		c-18.838-17.51-32.285-30.49-46.959-50.575c-9.813-13.433-20.795-17.783-33.572-13.3c-13.207,4.631-19.636,16.604-25.853,28.183
		c-2.63,4.898-5.115,9.525-8.077,13.607c-13.842,19.078-26.212,33.7-37.817,44.7c-1.617,1.531-4.484,3.448-7.519,5.476
		c-7.412,4.955-15.814,10.571-16.511,16.78C53.001,187.094,79.157,196.81,91.801,205.055z"/>
	<path fill="#D26427" d="M229.81,159.082c-1.838,1.185-3.775,2.293-5.902,3.219c-5.297,2.303-27.135,7.857-28.166-1.779
		c-8.477,7.385-14.08,19.258-19.236,29.558c-2.631,5.251-3.979,10.777-9.836,11.084c-17.161,0.894-25.484-31.756-40.844-36.841
		c-7.717-2.552-14.03,1.105-20.861,4.98c-5.86,3.319-14.621,6.934-21.416,4.057c-3.644-1.546-8.333-11.275-12.157-9.053
		c-3.372,1.958,0.783,12.186,1.772,14.818c-0.976,0.074-2.057,0.255-3.039,0.265c0.198,7.18,20.439,15.114,25.999,19.299
		c8.577,6.461,16.719,11.381,25.231,17.073c-1.225-0.818,7.376-1.511,7.792-1.466c4.16,0.438,8.552,3.529,12.214,5.347
		c9.21,4.571,15.133,6.679,25.701,3.868c8.324-2.217,13.627-6.868,20.104-12.316c10.105-8.503,21.199-14.514,32.453-21.296
		c14.678-8.844,21.143-25.549,26.904-40.737C240.126,151.122,235.438,155.456,229.81,159.082z"/>
	<path fill="#231F20" d="M66.504,237.021c-0.018,0.01-0.035,0.01-0.052,0.016c0.019,0.017,0.036,0.029,0.056,0.044
		C66.91,237.063,66.91,237.044,66.504,237.021z"/>
	<path fill="#231F20" d="M269.774,232.01c1.379-14.274,4.295-28.664,6.676-42.792c1.176-6.96,2.885-13.84,4.785-20.73
		c2.686-9.718,5.775-19.527,5.775-29.758c0-70.335-59.426-127.556-132.465-127.556c-73.038,0-132.46,57.221-132.46,127.555
		c0,8.29,1.311,15.853,2.932,23.818c1.804,8.874,1.808,18.207,3.5,27.195c3.492,18.548,9.225,36.646,11.672,55.396
		c-3.622,2.75-5.75,8.635-6.361,13.105c0.987-0.76,3.28-1.68,4.32-2.6c1.011,3.501-1.635,9.896-1.992,14.061
		c0.923-1.118,2.444-1.744,3.476-2.612c0.854,12.782,1.789,25.147,3.346,37.56c3.832-0.232,7.794-1.275,11.844-2.754
		c-0.837-7.904-1.171-15.897-3.167-23.333c-1.151,0.313-2.607-0.121-3.652,0.394c0.525-2.457,9.009-31.035-1.227-23.018
		c1.865-4.306,6.67-15.954,10.532-18.219c2.693-1.581,6.13,0.533,9.144-0.684c-5.389-4.465-10.727-7.378-15.127-13.188
		c-4.691-6.19-8.593-14.336-11.172-21.669c-7.258-20.638-12.952-45.676-12.949-67.611c0.003-21.193,7.669-42.342,19.331-59.856
		c13.024-19.561,30.249-34.711,51.547-44.207c18.605-8.297,38.957-12.728,59.361-12.117c45.472,1.355,91.806,32.865,110.199,74.773
		c6.285,14.333,9.557,29.918,9.557,45.569c0,21.025-5.02,39.685-10.83,59.751c-2.203,7.614-4.844,14.884-8.98,21.671
		c-2.627,4.306-7.021,9.049-8.217,13.537c2.064,1.121,4.326,0.533,5.924-1.339c-2.104,2.466,3.494,17.562,4.076,20.878
		c1.264,7.148,1.627,15.213,1.893,22.531c0.172,4.771,0.533,9.533,0.967,14.291c2.377-1.023,4.639-2.236,6.793-3.63
		C267.993,268.314,268.032,250.047,269.774,232.01z"/>
	<path fill="#231F20" d="M92.347,204.508c13.16,8.58,24.229,20.96,39.01,26.911c17.625,7.101,29.821-5.562,47.002-4.6
		c4.369,0.246,8.949,2.341,13.07,3.827c4.418,1.591,6.998,2.166,11.02,0.275c8.234-3.865,11.955-12.688,15.02-20.603
		c3.742-9.666,9.205-18.251,17.023-25.189c4.648-4.12,10.133-7.48,13.658-12.971c12.672-19.735-2.268-36.92-16.131-49.803
		c-18.838-17.51-32.281-30.49-46.955-50.575c-9.813-13.433-20.793-17.783-33.573-13.3c-13.205,4.632-19.636,16.604-25.854,28.184
		c-2.63,4.898-5.115,9.524-8.076,13.607c-13.842,19.079-26.213,33.7-37.817,44.7c-1.618,1.532-4.485,3.448-7.519,5.476
		c-7.412,4.954-15.814,10.569-16.511,16.779C53.547,186.547,79.703,196.264,92.347,204.508z M58.966,167.594
		c1.629-14.587,25.56-19.963,35.151-27.439c4.73-3.686,8.499-8.884,12.296-13.244c2.784-3.194,7.079-14.31,12.067-13.354
		c0.007,0,8.926,11.844,10.296,8.375c2.309-5.84-1.954-13.206-3.599-18.816c-0.259,3.45,0.862,9.212-1.786,11.24
		c-7.434-17.946,12.427-46.91,29.18-52.79c20.513-7.194,32.07,13.69,38.46,29.402c3.484,8.568-0.408,18.122,3.246,26.169
		c3.174,7,8.982-6.433,8.521-9.68c-1.711,0.565-3.186,0.604-4.523,2.132c-1.377-6.768,4.533-9.563,9.436-6.181
		c4.082,2.816,6.408,8.136,10.152,11.4c6.113,5.327,11.945,11.035,17.455,16.925c4.795,5.124,13.24,13.623,14.162,20.875
		c1.049,8.202-6.99,17.168-11.854,22.726c-10.703,12.247-21.809,31.469-28.313,44.622c-6.289,0.939-12.029-0.511-18.078-2.114
		c-4.754-1.255-9.666-2.556-14.924-2.59c-5.686-0.039-11.121,2.22-16.379,4.405c-4.03,1.676-7.837,3.258-11.64,3.82
		c-23.42,3.469-38.587-11.358-54.645-27.054c-3.028-2.958-8.18-5.59-13.634-8.375C69.668,182.762,57.941,176.773,58.966,167.594z"/>
	<g>
		<path fill="#231F20" d="M227.702,160.229c-4.096,1.44-8.695,1.833-13.877,1.564c-2.498-0.134-21.26,2.964-19.416-3.715
			c-2.598,9.395-8.963,17.032-14.738,24.649c-3.49,4.605-9.42,18.852-16.439,17.858c-6.171-0.873-12.88-9.289-15.963-14.217
			c-5.224-8.356-8.211-18.079-12.974-26.531c-0.135,2.989,0.623,5.516,2.125,7.902c-5.95-3.379-10.101-6.529-17.35-6.494
			c-2.403,0.013-5.494,1.674-11.699,5.126c-6.887,3.833-19.434,12.214-27.149,5.941c-3.863-3.137-4.146-9.045-8.778-11.467
			c-0.158-0.214-0.161-0.239-0.011-0.077c6.697,7.255,1.813,19.648,14.722,18.737c7.394-0.521,12.3-8.005,18.62-5.728
			c5.04,1.818,9.239,8.037,12.679,11.908c4.829,5.433,10.311,10.979,16.442,14.955c2.261,1.466,18.673,4.615,18.771,4.816
			c-3.265-6.698-10.611-5.931-16.148-10.518c-2.797-2.316-6.549-6.42-2.861-9.282c6.029-4.679,10.607,5.781,12.96,9.26
			c3.452,5.098,7.681,10.07,13.887,11.706c9.927,2.62,17.367-8.761,21.259-16.197c2.08-3.967,2.512-7.448,6.938-9.327
			c3.258-1.383,8.711-1.683,8.898,3.088c0.209,5.284-10.043,11.566-13.053,14.604c4.002-4.041,10.738-6.819,15.295-10.489
			c5.387-4.338,10.449-9.042,15.633-13.604c8.092-7.117,24.441-12.844,25.176-25.22C236.983,155.111,232.72,158.458,227.702,160.229
			z"/>
	</g>
	<g>
		<path fill="#4879AA" d="M49.772,88.745c-5.349,13.668-3.027,28.426,5.188,32.896c8.21,4.467,19.243-3.018,24.594-16.689v0.001
			c5.348-13.669,3.026-28.425-5.189-32.898C66.153,67.587,55.122,75.074,49.772,88.745z M57.884,99.053
			c-5.805,0.822-2.992-12.671,1.208-17.155c10.661-11.38,10.78,9.957,2.008,15.739C59.817,98.485,58.754,98.931,57.884,99.053z"/>
	</g>
	<g>
		<path fill="#4879AA" d="M221.823,54.828c-2.771,2.542-4.299,6.564-4.408,11.63c-0.146,6.897,2.371,14.771,6.914,21.599
			c8.09,12.171,20.131,17.074,26.846,10.93c2.773-2.542,4.297-6.564,4.404-11.63c0.146-6.897-2.371-14.771-6.904-21.598
			C240.579,53.585,228.538,48.684,221.823,54.828z M228.966,81.796c-3.041-2.044-6.482-9.266-6.387-13.983
			c0.324-15.153,11.582,1.781,10.68,9.528C232.683,82.29,230.909,83.104,228.966,81.796z"/>
	</g>
	<path fill="#060606" d="M69.315,98.89c-0.978,5.86-4.185,10.209-7.167,9.713c-2.98-0.497-4.606-5.651-3.63-11.511
		c0.976-5.864,4.186-10.213,7.167-9.717C68.667,87.872,70.291,93.026,69.315,98.89z"/>
	<path fill="#060606" d="M243.493,72.822c1.941,5.056,1.287,10.015-1.467,11.072c-2.75,1.059-6.559-2.183-8.502-7.24
		c-1.945-5.057-1.287-10.015,1.463-11.074C237.741,64.524,241.548,67.765,243.493,72.822z"/>
</g>
</svg>
