<?xml version="1.0" encoding="UTF-8" standalone="no"?>
<!-- Generator: Adobe Illustrator 12.0.0, SVG Export Plug-In . SVG Version: 6.00 Build 51448)  -->

<svg
   xmlns:dc="http://purl.org/dc/elements/1.1/"
   xmlns:cc="http://creativecommons.org/ns#"
   xmlns:rdf="http://www.w3.org/1999/02/22-rdf-syntax-ns#"
   xmlns:svg="http://www.w3.org/2000/svg"
   xmlns="http://www.w3.org/2000/svg"
   xmlns:sodipodi="http://sodipodi.sourceforge.net/DTD/sodipodi-0.dtd"
   xmlns:inkscape="http://www.inkscape.org/namespaces/inkscape"
   version="1.1"
   id="Layer_1"
   width="11.11"
   height="11.11"
   viewBox="0 0 11.109999 11.11"
   overflow="visible"
   enable-background="new 0 0 308.984 334.382"
   xml:space="preserve"
   inkscape:version="0.48.2 r9819"
   sodipodi:docname="player_goose_20.svg"
   style="overflow:visible"><metadata
   id="metadata3542"><rdf:RDF><cc:Work
       rdf:about=""><dc:format>image/svg+xml</dc:format><dc:type
         rdf:resource="http://purl.org/dc/dcmitype/StillImage" /><dc:title></dc:title></cc:Work></rdf:RDF></metadata><defs
   id="defs3540" /><sodipodi:namedview
   pagecolor="#ffffff"
   bordercolor="#666666"
   borderopacity="1"
   objecttolerance="10"
   gridtolerance="10"
   guidetolerance="10"
   inkscape:pageopacity="0"
   inkscape:pageshadow="2"
   inkscape:window-width="1440"
   inkscape:window-height="852"
   id="namedview3538"
   showgrid="false"
   inkscape:zoom="13.119198"
   inkscape:cx="4.4120344"
   inkscape:cy="1.0223007"
   inkscape:window-x="0"
   inkscape:window-y="0"
   inkscape:window-maximized="1"
   inkscape:current-layer="Layer_1" />
<g
   id="g3508"
   transform="matrix(0.03493769,0,0,0.03493769,0.15546685,0.15882977)">
	<path
   enable-background="new    "
   d="m 264.472,228.889 c 1.445,-9.716 3.801,-19.174 5.891,-28.906 1.428,-6.644 3.717,-13.266 4.893,-20.034 2.367,-13.623 6.85,-27.269 6.85,-41.219 0,-67.738 -57.111,-122.65 -127.559,-122.65 -13.411,0 -26.815,2.013 -39.617,6.03 -47.015,14.759 -87.846,56.311 -90.451,107.007 -0.161,3.14 -0.225,6.098 -0.191,8.957 0.112,9.512 1.295,17.903 3.462,28.111 2.971,13.987 6.784,28.418 11.582,41.824 2.544,7.101 8.673,18.044 6.274,25.649 -1.777,5.628 -4.027,10.582 -2.715,17.022 0.613,3.015 2.483,5.755 2.846,8.726 0.359,2.944 -0.544,6.688 -0.544,9.838 -0.002,10.029 -1.538,19.532 2.333,28.862 0.68,1.639 2.101,3.373 3.394,5.064 12.005,-3.463 24.941,-12.016 37.884,-16.327 -6.541,6.542 0,16.353 -3.271,22.896 16.354,-6.543 16.354,-29.437 32.708,-32.709 -3.272,6.543 -6.542,16.355 -3.272,19.627 6.542,3.27 16.355,0 19.625,-9.813 -3.271,9.813 6.541,26.167 16.354,19.626 6.542,0 6.542,-16.355 13.083,-16.355 6.543,-3.271 0,13.082 13.084,13.082 -3.271,-6.539 6.541,-9.811 3.27,-16.353 9.813,16.353 22.896,29.437 35.979,45.792 0,-16.355 0,-32.709 -3.27,-49.063 6.541,3.271 9.813,16.354 16.354,16.354 6.541,-3.27 -3.271,-9.813 0,-16.354 3.271,9.813 13.082,13.084 19.625,9.813 6.027,-0.604 11.387,-2.326 16.223,-4.881 -0.166,-1.703 -0.338,-3.398 -0.535,-5.117 -1.948,-17.124 -2.774,-37.794 -0.289,-54.499 z"
   id="path3510"
   inkscape:connector-curvature="0"
   style="fill:#ffffff" />
	<path
   d="m 91.801,205.055 c 13.16,8.58 24.229,20.96 39.01,26.911 17.623,7.1 29.821,-5.562 46.999,-4.603 4.373,0.249 8.953,2.344 13.07,3.827 4.42,1.593 7.002,2.166 11.025,0.278 8.229,-3.868 11.953,-12.69 15.016,-20.605 3.744,-9.666 9.209,-18.252 17.025,-25.186 4.646,-4.124 10.127,-7.484 13.654,-12.971 12.674,-19.737 -2.268,-36.921 -16.125,-49.805 -18.838,-17.51 -32.285,-30.49 -46.959,-50.575 -9.813,-13.433 -20.795,-17.783 -33.572,-13.3 -13.207,4.631 -19.636,16.604 -25.853,28.183 -2.63,4.898 -5.115,9.525 -8.077,13.607 -13.842,19.078 -26.212,33.7 -37.817,44.7 -1.617,1.531 -4.484,3.448 -7.519,5.476 -7.412,4.955 -15.814,10.571 -16.511,16.78 -2.166,19.322 23.99,29.038 36.634,37.283 z"
   id="path3512"
   inkscape:connector-curvature="0"
   style="fill:#f38620" />
	<path
   d="m 229.81,159.082 c -1.838,1.185 -3.775,2.293 -5.902,3.219 -5.297,2.303 -27.135,7.857 -28.166,-1.779 -8.477,7.385 -14.08,19.258 -19.236,29.558 -2.631,5.251 -3.979,10.777 -9.836,11.084 -17.161,0.894 -25.484,-31.756 -40.844,-36.841 -7.717,-2.552 -14.03,1.105 -20.861,4.98 -5.86,3.319 -14.621,6.934 -21.416,4.057 -3.644,-1.546 -8.333,-11.275 -12.157,-9.053 -3.372,1.958 0.783,12.186 1.772,14.818 -0.976,0.074 -2.057,0.255 -3.039,0.265 0.198,7.18 20.439,15.114 25.999,19.299 8.577,6.461 16.719,11.381 25.231,17.073 -1.225,-0.818 7.376,-1.511 7.792,-1.466 4.16,0.438 8.552,3.529 12.214,5.347 9.21,4.571 15.133,6.679 25.701,3.868 8.324,-2.217 13.627,-6.868 20.104,-12.316 10.105,-8.503 21.199,-14.514 32.453,-21.296 14.678,-8.844 21.143,-25.549 26.904,-40.737 -6.397,1.96 -11.085,6.294 -16.713,9.92 z"
   id="path3514"
   inkscape:connector-curvature="0"
   style="fill:#d26427" />
	<path
   d="m 66.504,237.021 c -0.018,0.01 -0.035,0.01 -0.052,0.016 0.019,0.017 0.036,0.029 0.056,0.044 0.402,-0.018 0.402,-0.037 -0.004,-0.06 z"
   id="path3516"
   inkscape:connector-curvature="0"
   style="fill:#231f20" />
	<path
   d="m 269.774,232.01 c 1.379,-14.274 4.295,-28.664 6.676,-42.792 1.176,-6.96 2.885,-13.84 4.785,-20.73 2.686,-9.718 5.775,-19.527 5.775,-29.758 0,-70.335 -59.426,-127.556 -132.465,-127.556 -73.038,0 -132.46,57.221 -132.46,127.555 0,8.29 1.311,15.853 2.932,23.818 1.804,8.874 1.808,18.207 3.5,27.195 3.492,18.548 9.225,36.646 11.672,55.396 -3.622,2.75 -5.75,8.635 -6.361,13.105 0.987,-0.76 3.28,-1.68 4.32,-2.6 1.011,3.501 -1.635,9.896 -1.992,14.061 0.923,-1.118 2.444,-1.744 3.476,-2.612 0.854,12.782 1.789,25.147 3.346,37.56 3.832,-0.232 7.794,-1.275 11.844,-2.754 -0.837,-7.904 -1.171,-15.897 -3.167,-23.333 -1.151,0.313 -2.607,-0.121 -3.652,0.394 0.525,-2.457 9.009,-31.035 -1.227,-23.018 1.865,-4.306 6.67,-15.954 10.532,-18.219 2.693,-1.581 6.13,0.533 9.144,-0.684 C 61.063,232.573 55.725,229.66 51.325,223.85 46.634,217.66 42.732,209.514 40.153,202.181 32.895,181.543 27.201,156.505 27.204,134.57 27.207,113.377 34.873,92.228 46.535,74.714 59.559,55.153 76.784,40.003 98.082,30.507 116.687,22.21 137.039,17.779 157.443,18.39 c 45.472,1.355 91.806,32.865 110.199,74.773 6.285,14.333 9.557,29.918 9.557,45.569 0,21.025 -5.02,39.685 -10.83,59.751 -2.203,7.614 -4.844,14.884 -8.98,21.671 -2.627,4.306 -7.021,9.049 -8.217,13.537 2.064,1.121 4.326,0.533 5.924,-1.339 -2.104,2.466 3.494,17.562 4.076,20.878 1.264,7.148 1.627,15.213 1.893,22.531 0.172,4.771 0.533,9.533 0.967,14.291 2.377,-1.023 4.639,-2.236 6.793,-3.63 -0.832,-18.108 -0.793,-36.375 0.949,-54.412 z"
   id="path3518"
   inkscape:connector-curvature="0"
   style="fill:#231f20" />
	<path
   d="m 92.347,204.508 c 13.16,8.58 24.229,20.96 39.01,26.911 17.625,7.101 29.821,-5.562 47.002,-4.6 4.369,0.246 8.949,2.341 13.07,3.827 4.418,1.591 6.998,2.166 11.02,0.275 8.234,-3.865 11.955,-12.688 15.02,-20.603 3.742,-9.666 9.205,-18.251 17.023,-25.189 4.648,-4.12 10.133,-7.48 13.658,-12.971 12.672,-19.735 -2.268,-36.92 -16.131,-49.803 -18.838,-17.51 -32.281,-30.49 -46.955,-50.575 -9.813,-13.433 -20.793,-17.783 -33.573,-13.3 -13.205,4.632 -19.636,16.604 -25.854,28.184 -2.63,4.898 -5.115,9.524 -8.076,13.607 -13.842,19.079 -26.213,33.7 -37.817,44.7 -1.618,1.532 -4.485,3.448 -7.519,5.476 -7.412,4.954 -15.814,10.569 -16.511,16.779 -2.167,19.321 23.989,29.038 36.633,37.282 z M 58.966,167.594 c 1.629,-14.587 25.56,-19.963 35.151,-27.439 4.73,-3.686 8.499,-8.884 12.296,-13.244 2.784,-3.194 7.079,-14.31 12.067,-13.354 0.007,0 8.926,11.844 10.296,8.375 2.309,-5.84 -1.954,-13.206 -3.599,-18.816 -0.259,3.45 0.862,9.212 -1.786,11.24 -7.434,-17.946 12.427,-46.91 29.18,-52.79 20.513,-7.194 32.07,13.69 38.46,29.402 3.484,8.568 -0.408,18.122 3.246,26.169 3.174,7 8.982,-6.433 8.521,-9.68 -1.711,0.565 -3.186,0.604 -4.523,2.132 -1.377,-6.768 4.533,-9.563 9.436,-6.181 4.082,2.816 6.408,8.136 10.152,11.4 6.113,5.327 11.945,11.035 17.455,16.925 4.795,5.124 13.24,13.623 14.162,20.875 1.049,8.202 -6.99,17.168 -11.854,22.726 -10.703,12.247 -21.809,31.469 -28.313,44.622 -6.289,0.939 -12.029,-0.511 -18.078,-2.114 -4.754,-1.255 -9.666,-2.556 -14.924,-2.59 -5.686,-0.039 -11.121,2.22 -16.379,4.405 -4.03,1.676 -7.837,3.258 -11.64,3.82 -23.42,3.469 -38.587,-11.358 -54.645,-27.054 -3.028,-2.958 -8.18,-5.59 -13.634,-8.375 -10.345,-5.286 -22.072,-11.275 -21.047,-20.454 z"
   id="path3520"
   inkscape:connector-curvature="0"
   style="fill:#231f20" />
	<g
   id="g3522">
		<path
   d="m 227.702,160.229 c -4.096,1.44 -8.695,1.833 -13.877,1.564 -2.498,-0.134 -21.26,2.964 -19.416,-3.715 -2.598,9.395 -8.963,17.032 -14.738,24.649 -3.49,4.605 -9.42,18.852 -16.439,17.858 -6.171,-0.873 -12.88,-9.289 -15.963,-14.217 -5.224,-8.356 -8.211,-18.079 -12.974,-26.531 -0.135,2.989 0.623,5.516 2.125,7.902 -5.95,-3.379 -10.101,-6.529 -17.35,-6.494 -2.403,0.013 -5.494,1.674 -11.699,5.126 -6.887,3.833 -19.434,12.214 -27.149,5.941 -3.863,-3.137 -4.146,-9.045 -8.778,-11.467 -0.158,-0.214 -0.161,-0.239 -0.011,-0.077 6.697,7.255 1.813,19.648 14.722,18.737 7.394,-0.521 12.3,-8.005 18.62,-5.728 5.04,1.818 9.239,8.037 12.679,11.908 4.829,5.433 10.311,10.979 16.442,14.955 2.261,1.466 18.673,4.615 18.771,4.816 -3.265,-6.698 -10.611,-5.931 -16.148,-10.518 -2.797,-2.316 -6.549,-6.42 -2.861,-9.282 6.029,-4.679 10.607,5.781 12.96,9.26 3.452,5.098 7.681,10.07 13.887,11.706 9.927,2.62 17.367,-8.761 21.259,-16.197 2.08,-3.967 2.512,-7.448 6.938,-9.327 3.258,-1.383 8.711,-1.683 8.898,3.088 0.209,5.284 -10.043,11.566 -13.053,14.604 4.002,-4.041 10.738,-6.819 15.295,-10.489 5.387,-4.338 10.449,-9.042 15.633,-13.604 8.092,-7.117 24.441,-12.844 25.176,-25.22 -3.668,5.634 -7.931,8.981 -12.949,10.752 z"
   id="path3524"
   inkscape:connector-curvature="0"
   style="fill:#231f20" />
	</g>
	<g
   id="g3526">
		<path
   d="m 49.772,88.745 c -5.349,13.668 -3.027,28.426 5.188,32.896 8.21,4.467 19.243,-3.018 24.594,-16.689 v 0.001 C 84.902,91.284 82.58,76.528 74.365,72.055 66.153,67.587 55.122,75.074 49.772,88.745 z m 8.112,10.308 c -5.805,0.822 -2.992,-12.671 1.208,-17.155 10.661,-11.38 10.78,9.957 2.008,15.739 -1.283,0.848 -2.346,1.294 -3.216,1.416 z"
   id="path3528"
   inkscape:connector-curvature="0"
   style="fill:#4879aa" />
	</g>
	<g
   id="g3530">
		<path
   d="m 221.823,54.828 c -2.771,2.542 -4.299,6.564 -4.408,11.63 -0.146,6.897 2.371,14.771 6.914,21.599 8.09,12.171 20.131,17.074 26.846,10.93 2.773,-2.542 4.297,-6.564 4.404,-11.63 0.146,-6.897 -2.371,-14.771 -6.904,-21.598 -8.096,-12.174 -20.137,-17.075 -26.852,-10.931 z m 7.143,26.968 c -3.041,-2.044 -6.482,-9.266 -6.387,-13.983 0.324,-15.153 11.582,1.781 10.68,9.528 -0.576,4.949 -2.35,5.763 -4.293,4.455 z"
   id="path3532"
   inkscape:connector-curvature="0"
   style="fill:#4879aa" />
	</g>
	<path
   d="m 69.315,98.89 c -0.978,5.86 -4.185,10.209 -7.167,9.713 -2.98,-0.497 -4.606,-5.651 -3.63,-11.511 0.976,-5.864 4.186,-10.213 7.167,-9.717 2.982,0.497 4.606,5.651 3.63,11.515 z"
   id="path3534"
   inkscape:connector-curvature="0"
   style="fill:#060606" />
	<path
   d="m 243.493,72.822 c 1.941,5.056 1.287,10.015 -1.467,11.072 -2.75,1.059 -6.559,-2.183 -8.502,-7.24 -1.945,-5.057 -1.287,-10.015 1.463,-11.074 2.754,-1.056 6.561,2.185 8.506,7.242 z"
   id="path3536"
   inkscape:connector-curvature="0"
   style="fill:#060606" />
</g>
</svg>