<?xml version="1.0" encoding="UTF-8" standalone="no"?>
<!-- Generator: Adobe Illustrator 12.0.0, SVG Export Plug-In . SVG Version: 6.00 Build 51448)  -->

<svg
   xmlns:dc="http://purl.org/dc/elements/1.1/"
   xmlns:cc="http://creativecommons.org/ns#"
   xmlns:rdf="http://www.w3.org/1999/02/22-rdf-syntax-ns#"
   xmlns:svg="http://www.w3.org/2000/svg"
   xmlns="http://www.w3.org/2000/svg"
   xmlns:sodipodi="http://sodipodi.sourceforge.net/DTD/sodipodi-0.dtd"
   xmlns:inkscape="http://www.inkscape.org/namespaces/inkscape"
   version="1.1"
   id="Layer_1"
   width="11.11"
   height="11.11"
   viewBox="0 0 11.11 11.11"
   overflow="visible"
   enable-background="new 0 0 209.996 203.345"
   xml:space="preserve"
   inkscape:version="0.48.2 r9819"
   sodipodi:docname="player_goat_20.svg"
   style="overflow:visible"><metadata
   id="metadata49"><rdf:RDF><cc:Work
       rdf:about=""><dc:format>image/svg+xml</dc:format><dc:type
         rdf:resource="http://purl.org/dc/dcmitype/StillImage" /><dc:title></dc:title></cc:Work></rdf:RDF></metadata><defs
   id="defs47" /><sodipodi:namedview
   pagecolor="#ffffff"
   bordercolor="#666666"
   borderopacity="1"
   objecttolerance="10"
   gridtolerance="10"
   guidetolerance="10"
   inkscape:pageopacity="0"
   inkscape:pageshadow="2"
   inkscape:window-width="1440"
   inkscape:window-height="852"
   id="namedview45"
   showgrid="false"
   inkscape:zoom="12.868286"
   inkscape:cx="8.1473247"
   inkscape:cy="3.0157099"
   inkscape:window-x="0"
   inkscape:window-y="0"
   inkscape:window-maximized="1"
   inkscape:current-layer="Layer_1" />
<g
   id="g3"
   transform="matrix(0.05283879,0,0,0.05283879,0.00169722,0.16255836)">
	<path
   d="M 65.543,44.957 C 45.194,44.409 21.729,59.569 13.991,78.466 c -1.955,4.774 -9.129,27.308 -4.37,31.208 4.617,3.779 18.759,-2.998 22.766,-5.033 9.319,-4.726 16.3,-11.893 21.747,-20.708 3.403,-5.51 17.729,-28.377 5.201,-31.589 C 48.306,49.516 29.618,66.458 24.35,74.784"
   id="path5"
   inkscape:connector-curvature="0"
   style="fill:#8b5c29;stroke:#000000;stroke-width:3.64229989" />
	<path
   d="m 92.06,150.661 c -9.916,-14.946 -37.438,-0.683 -34.615,15.65 1.266,7.32 6.139,12.168 8.501,18.659 -0.372,-1.024 -0.292,-2.041 -0.424,-2.728 4.731,3.4 5.659,11.403 4.354,16.898 0.169,0.164 0.336,0.331 0.499,0.498 11.064,-2.668 21.048,-15.665 21.777,-26.772 1.014,1.664 1.65,3.908 2.142,5.534 2.109,-7.884 2.429,-20.717 -2.234,-27.739 z"
   id="path7"
   inkscape:connector-curvature="0"
   style="fill:#efe2bd;stroke:#000000;stroke-width:2.84089994" />
	<path
   d="m 55.127,136.218 c -7.717,3.984 -8.137,12.657 -2.193,18.619 6.15,6.164 17.525,7.854 25.87,7.395 18.399,-1.014 16.397,-31.4 31.966,-30.849 17.301,0.615 5.924,38.429 9.075,47.3 1.885,5.303 9.929,4.354 16.321,4.613 12.634,0.509 42.668,1.287 38.987,-17.948 -3.123,-16.319 -12.429,-33.604 -6.575,-50.759"
   id="path9"
   inkscape:connector-curvature="0"
   style="fill:#8b5c29;stroke:#000000;stroke-width:3.64229989" />
	<path
   d="m 175.576,84.172 c -0.68,10.272 -5.216,19.536 -7.145,29.471 -1.64,8.436 -5.329,18.732 -12.491,24.064 -0.436,-1.362 -1.626,-3.157 -1.966,-4.756 -2.221,2.84 -4.364,6.268 -6.635,9.383 -1.304,-1.601 -2.456,-4.531 -3.662,-6.431 -11.144,6.939 -19.047,13.101 -32.681,13.101 -13.575,0 -28.925,-3.004 -42.269,-5.449 -10.151,-1.86 -23.019,-9.54 -24.303,-20.298 C 41.442,98.305 44.211,67.944 58.586,46.828 70.169,29.817 90.5,19.744 110.995,19.744 c 9.931,0 20.21,2.389 29.063,6.844 16.112,8.108 27.582,22.837 33.296,39.819 1.964,5.831 2.614,11.821 2.222,17.765 z"
   id="path11"
   inkscape:connector-curvature="0"
   style="fill:#8b5c29;stroke:#000000;stroke-width:3.64229989" />
	<path
   d="m 168.624,30.864 c -8.232,1.082 -14.293,6.947 -17.231,14.331 -2.141,5.387 -0.52,9.7 -6.726,11.727 -11.951,3.895 -13.79,-4.983 -18.674,-13.356 -4.55,-7.802 -3.39,-12.872 3.578,-19.049 11.795,-10.456 27.479,-15.986 43.096,-11.363 7.273,2.154 13.546,6.182 21.191,4.318 2.691,-0.654 3.786,-5.407 7.009,-3.625 5.432,3.005 -2.95,12.438 -5.968,14.336 -7.532,4.737 -17.896,1.582 -26.275,2.681 z"
   id="path13"
   inkscape:connector-curvature="0"
   style="fill:#efe2bd;stroke:#000000;stroke-width:2.84089994" />
	<path
   d="m 37.898,23.806 c 8.231,1.082 14.292,6.945 17.23,14.324 1.761,4.419 1.465,12.654 8.447,10.985 4.535,-1.081 6.849,-8.088 9.803,-11.129 3.095,-3.19 9.554,-5.076 10.157,-10.16 C 84.205,22.165 76.338,16.581 72.437,13.652 61.62,5.52 46.983,2.21 33.858,6.094 26.584,8.248 20.313,12.278 12.666,10.414 9.976,9.759 8.878,5.006 5.657,6.788 c -5.43,3.006 2.951,12.438 5.967,14.336 7.534,4.736 17.898,1.583 26.274,2.682 z"
   id="path15"
   inkscape:connector-curvature="0"
   style="fill:#efe2bd;stroke:#000000;stroke-width:2.84089994" />
	<g
   id="g17">
		<g
   id="g19">
			<path
   d="m 62.114,64.707 c -5.175,-0.231 -9.582,3.964 -9.824,9.349 -0.24,5.385 3.774,9.956 8.951,10.188 5.175,0.232 9.58,-3.961 9.822,-9.348 0.243,-5.386 -3.773,-9.957 -8.949,-10.189 z"
   id="path21"
   inkscape:connector-curvature="0"
   style="fill:#ffbf00" />
			
				<ellipse
   transform="matrix(0.999,0.0447,-0.0447,0.999,3.3785,-2.6863)"
   enable-background="new    "
   cx="61.693001"
   cy="74.122002"
   rx="7.671"
   ry="2.45"
   id="ellipse23"
   sodipodi:cx="61.693001"
   sodipodi:cy="74.122002"
   sodipodi:rx="7.671"
   sodipodi:ry="2.45"
   d="m 69.364001,74.122002 c 0,1.353097 -3.434424,2.45 -7.671,2.45 -4.236577,0 -7.671,-1.096903 -7.671,-2.45 0,-1.353098 3.434423,-2.45 7.671,-2.45 4.236576,0 7.671,1.096902 7.671,2.45 z" />
		</g>
		
			<ellipse
   transform="matrix(0.999,0.0444,-0.0444,0.999,3.1799,-2.5084)"
   cx="58.022999"
   cy="70.287003"
   rx="2.687"
   ry="2.872"
   id="ellipse25"
   sodipodi:cx="58.022999"
   sodipodi:cy="70.287003"
   sodipodi:rx="2.687"
   sodipodi:ry="2.872"
   style="fill:#ffffff"
   d="m 60.709999,70.287003 c 0,1.586161 -1.203011,2.872 -2.687,2.872 -1.483989,0 -2.687,-1.285839 -2.687,-2.872 0,-1.586162 1.203011,-2.872 2.687,-2.872 1.483989,0 2.687,1.285838 2.687,2.872 z" />
	</g>
	<g
   id="g27">
		<g
   id="g29">
			<path
   d="m 115.052,73.789 c -4.895,-1.706 -10.318,1.049 -12.092,6.143 -1.773,5.089 0.763,10.619 5.657,12.325 4.891,1.703 10.313,-1.052 12.088,-6.143 1.774,-5.092 -0.763,-10.621 -5.653,-12.325 z"
   id="path31"
   inkscape:connector-curvature="0"
   style="fill:#ffbf00" />
			
				<ellipse
   transform="matrix(0.9443,0.329,-0.329,0.9443,33.433,-32.2259)"
   enable-background="new    "
   cx="111.949"
   cy="82.686996"
   rx="7.671"
   ry="2.45"
   id="ellipse33"
   sodipodi:cx="111.949"
   sodipodi:cy="82.686996"
   sodipodi:rx="7.671"
   sodipodi:ry="2.45"
   d="m 119.62,82.686996 c 0,1.353098 -3.43443,2.450001 -7.671,2.450001 -4.23658,0 -7.671,-1.096903 -7.671,-2.450001 0,-1.353097 3.43442,-2.45 7.671,-2.45 4.23657,0 7.671,1.096903 7.671,2.45 z" />
		</g>
		
			<ellipse
   transform="matrix(0.9443,0.329,-0.329,0.9443,31.752,-31.6991)"
   cx="109.532"
   cy="77.962997"
   rx="2.687"
   ry="2.8699999"
   id="ellipse35"
   sodipodi:cx="109.532"
   sodipodi:cy="77.962997"
   sodipodi:rx="2.687"
   sodipodi:ry="2.8699999"
   style="fill:#ffffff"
   d="m 112.219,77.962997 c 0,1.585058 -1.20301,2.87 -2.687,2.87 -1.48399,0 -2.687,-1.284942 -2.687,-2.87 0,-1.585057 1.20301,-2.869999 2.687,-2.869999 1.48399,0 2.687,1.284942 2.687,2.869999 z" />
	</g>
	<path
   d="m 62.389,131.235 c 0.288,0.288 19.484,-9.583 20.747,-11.114 -3.379,-6.134 -10.188,0.192 -13.657,3.2 -5.509,4.774 -6.907,5.116 -11.871,-0.32 -1.915,-2.099 -3.71,-5.867 -6.505,-7.02 -3.248,-1.336 -5.806,2.004 -6.919,1.679 7.21,2.099 13.079,8.412 18.205,13.575 z"
   id="path37"
   inkscape:connector-curvature="0" />
	<path
   d="m 61.605,128.646 c 1.234,4.277 0.48,10.429 0.474,13.974"
   id="path39"
   inkscape:connector-curvature="0"
   style="fill:#8b5c29;stroke:#000000;stroke-width:2.64669991" />
	<path
   d="m 148.405,55.414 c 20.349,-0.549 43.813,14.612 51.552,33.51 1.956,4.771 9.131,27.308 4.369,31.208 -4.616,3.779 -18.757,-3 -22.766,-5.033 -9.319,-4.727 -16.3,-11.893 -21.749,-20.71 -3.403,-5.508 -17.728,-28.375 -5.2,-31.587 11.03,-2.828 29.72,14.112 34.986,22.44"
   id="path41"
   inkscape:connector-curvature="0"
   style="fill:#8b5c29;stroke:#000000;stroke-width:3.64229989" />
	<path
   d="m 63.13,125.533 c 5.661,-0.561 6.678,-6.102 11.028,-8.197 4.553,-2.192 7.58,3.205 11.321,1.734 3.04,-1.193 6.47,-12.337 7.054,-15.399 0.804,1.43 2.257,1.999 3.143,3 -0.045,-8.556 6.555,-51.733 24.604,-45.651 -1.229,-3.482 -4.928,-5.773 -6.775,-8.868 1.807,-1.028 1.694,-1.89 2.699,-3.377 -10.065,3.733 -5.024,-7.418 -5.495,-13.461 -3.554,2.888 -8.234,4.055 -12.174,6.239 0.47,-4.57 2.861,-8.856 -1.072,-12.659 -3.635,1.842 -5.14,6.093 -7.245,9.454 -2.213,3.534 -5.78,6.543 -7.247,10.379 -0.459,-1.675 -2.7,-4.417 -4.852,-3.496 -2.118,0.905 -1.08,7.292 -1.589,9.447 -2.727,-1.856 -7.769,-1.864 -10.81,-0.724 2.535,4.763 4.233,10.089 5.357,15.364 -5.606,-2.028 -16.156,25.208 -17.835,30.01 -1.824,5.214 -4.823,12.805 -2.109,18.25 1.631,3.273 8.15,8.334 11.997,7.955 z"
   id="path43"
   inkscape:connector-curvature="0"
   style="fill:#d59758" />
</g>
</svg>