<?xml version="1.0" encoding="utf-8"?>
<!-- Generator: Adobe Illustrator 12.0.0, SVG Export Plug-In . SVG Version: 6.00 Build 51448)  -->
<!DOCTYPE svg PUBLIC "-//W3C//DTD SVG 1.1//EN" "http://www.w3.org/Graphics/SVG/1.1/DTD/svg11.dtd" >
<svg  version="1.1" id="Layer_1" xmlns="http://www.w3.org/2000/svg" xmlns:xlink="http://www.w3.org/1999/xlink" width="454.614" height="428"
	 viewBox="0 0 454.614 428" overflow="visible" enable-background="new 0 0 454.614 428" xml:space="preserve">
<g>
	<path fill="#F7E3EE" d="M251.3,388.496c-5.173-0.56-9.356-2.404-13.401-4.19c-3.466-1.532-6.742-2.979-10.578-3.646
		c-6.06-1.058-12.389,0.972-18.51,2.939l-4.542,1.407c-8.565,2.476-17.773,5.131-26.132,3.766c0.842,2.484,1.757,5.04,3.137,7.713
		c4.357,8.454,17.329,8.985,27.751,9.412l3.046,0.133c15.815,0.792,28.981-0.777,39.128-4.655c7.78-2.978,9.625-7.141,11-12.717
		C258.778,388.951,255.151,388.908,251.3,388.496z"/>
	<path fill="#F7E3EE" d="M293.6,324.786c-1.988-9.89-5.331-19.88-8.563-29.543l-0.892-2.67c-3.19-9.558-5.613-19.533-7.956-29.183
		c-3.466-14.257-7.048-28.998-13.152-42.601l-2.878-6.88c-2.228-5.542-4.272-10.611-7.676-14.911
		c-10.445,4.983-23.486,0.995-34.375-6.05c-1.775,4.613-5.671,9.241-11.483,13.328c-2.556,1.797-5.287,3.381-8.08,4.718
		l-4.694,7.899c-24.256,36.788-58.067,111.071-30.928,156.132c9.236,15.329,22.685,12.84,40.671,7.648l4.473-1.39
		c3.729-1.194,7.532-2.394,11.37-2.977c1.422-3.974,3.184-12.61,0.192-16.313c2.333,2.887,3.015,3.219,6.275,1
		c-1.591,3.76-2.018,9.321,0.474,12.807c2.686,3.757,8.509,4.521,12.5,6.284c3.874,1.711,7.88,3.479,12.679,3.997
		c14.148,1.518,25.207-1.973,32.874-10.374C294.395,364.794,297.82,345.757,293.6,324.786z M216.71,354.311
		c-0.725-0.306-1.446-0.616-2.181-0.884c2.902-6.307-6.913-10.755-11.649-10.581c-2.053,0.076-6.642,0.202-6.376,3.347
		c0.279,3.304,5.161,1.708,6.718,3.02c-2.548,4.314-11.256,4.547-11.494-1.515c-0.144-3.655,4.007-7.904,10.195-8.155
		c4.471-0.176,10.874,2.01,13.927,6.419C217.632,348.536,217.929,351.424,216.71,354.311z M247.596,349.843
		c7.104-3.057,1.806-8.641-4.055-8.218c-3.414,0.249-7.522,2.573-9.803,5.064c-0.999,1.09-2.141,2.418-1.944,4.014
		c0.097,0.787,2.875,3.544,2.909,3.44c-0.991,2.849-4.492,5.25-7.439,6.021c1.32-1.066,2.788-2.227,3.305-3.892
		c0.739-2.384-1.47-4.365-1.005-6.859c0.406-2.154,2.267-4.021,3.817-5.429c3.176-2.883,7.799-5.685,12.145-6.188
		c3.914-0.453,11.445,1.678,12.56,6.183C259.469,349.574,250.53,348.581,247.596,349.843z M265.759,346.505
		c-1.579,2.389-3.904,4.3-6.088,6.007c3.462-4.754,6.614-14.077,0.905-18.482c-4.359-3.36-12.394-6.376-17.941-5.663
		c-2.605,0.332-5.025,1.028-7.588,1.764c-4.815,1.38-9.793,2.812-16.18,1.825l-2.867-0.455c-6.877-1.119-13.339-1.896-20.243-0.813
		c-5.647,0.885-8.046,4.699-8.952,10.347c-0.858,5.337,0.735,9.12,3.89,13.299c-7.692-5.462-10.111-18.282-2.842-24.852
		c7.007-6.334,19.16-4.362,28.927-2.773l2.826,0.45c5.332,0.82,9.592-0.403,14.101-1.697c2.625-0.749,5.338-1.532,8.312-1.911
		C253.2,322.117,274.753,332.911,265.759,346.505z"/>
	<path fill="#F9EEC7" d="M421.371,192.096c-6.091-8.54-14.424-15.116-22.867-18.037l-4.258-1.474l3.574-2.745
		c2.541-1.954,3.438-3.907,4.357-6.681c-0.455-0.232-0.912-0.459-0.912-0.459l-3.583-1.702l4.06-2.219
		c4.243-2.318,6.4-5.485,6.595-9.691c0.009-0.209,0.017-0.417,0.017-0.626c0-11.266-13.612-26.575-20.813-31.426
		c-1.435-0.962-2.885-1.797-4.341-2.584c-0.779,3.016-1.744,6.114-3.411,8.627c0,1.095,0,1.686,0,2.269
		c1.745,0.055,3.229,0.162,3.612,0.32c2.016,0.833,5.491,3.357,6.061,5.579c-4.42-4.295-12.115-2.618-17.169-0.469l-2.307,0.981
		l-0.903-2.342c-0.42-1.081-0.934-2.129-1.508-3.148c-1.269-1.09-2.333-2.57-3.38-4.04c-0.549-0.764-1.114-1.527-1.702-2.276
		c-2.751-2.442-6.041-4.21-9.625-4.931c-0.654,0.004-1.315,0.023-1.959,0.047c-1.969,0.062-3.446,0.066-4.579-0.138
		c-1.034,0.176-2.074,0.417-3.125,0.787l-3.011,1.072l-0.224-3.191c-0.389-5.566-2.576-13.958-6.527-21.412
		c-0.399-0.327-0.802-0.649-1.203-0.972c-2.571-2.067-5.185-4.187-7.151-6.771l6.746,4.95c-2.066-3.362-4.514-6.42-7.354-8.767
		c-6.647-5.49-12.403-5.206-20.142-2.043c1.639-0.975,2.783-2.356,4.377-3.376c1.792-1.143,4.902-2.731,6.965-3.153
		c0.729-0.15,6.585,0.211,6.418,1.333c0.562-3.731,2.42-7.416,4.617-10.778c-3.914-4.57-8.109-8.852-12.83-12.441
		c-18.133-13.792-42.712-27.253-56.847-13.053l-3.435,3.452l-0.69-4.822c-0.54-3.784-4.66-5.732-7.064-6.558
		c-6.666-2.29-15.466-1.446-18.835,1.807l-1.254,1.209l-1.545-0.801c-11.768-6.083-19.06-8.089-31.16-3.897
		c-10.874,3.765-37.353,14.807-48.349,35.939l-0.499,0.958l-1.045,0.271c-2.902,0.754-5.848,1.55-8.8,2.442
		c1.021-0.308,4.103,3.122,5.006,3.625c2.17,1.209,1.959,0.768,4.403,0.787c3.268,0.028,6.537,0.526,9.313,2.406
		c-11.89-0.285-22.627,12.46-15.277,23.527l3.395,5.111l-5.973-1.403c-6.142-1.441-11.918,2.248-15.683,5.6
		c-5.658,5.035-9.998,11.86-12.546,18.97c-1.707,4.763-6.376,14.99-2.489,19.764c-2.224-2.731-3.579-6.088-3.605-9.594
		c-0.027-3.54,0.268-3.727-2.979-6.178c-6.456-4.872-13.386-9.153-20.57-12.858c-7.254,3.238-12.721,6.96-13.494,19.848
		c-0.142,2.39,0.603,5.187,1.323,7.889c0.968,3.623,1.964,7.364,1.094,10.825c-0.859,3.418-4.049,6.652-7.134,9.781
		c-1.582,1.603-3.075,3.12-3.935,4.362c-11.283,16.324-16.637,46.489,2.658,60.661l2.882,2.115l-3.03,1.896
		c-4.263,2.673-8.35,11.209-8.925,18.648c-0.217,2.812-0.099,7.945,3.127,10.738l1.776,1.541L52.219,267
		c-9.588,11.823-9.175,31.567,1.007,48.016c7.454,12.042,21.63,23.525,39.061,19.643l1.055,4.741
		c0.657-0.146,1.036-0.673,1.094-0.92c-0.502,2.181,3.708,12.906,4.955,14.85c3.552,5.183,8.045,7.084,13.733,9.492l3.786,1.646
		c14.332,6.52,25.41,7.373,41.804,7.938c-1.441-0.05-4.381-10.692-4.798-12.114c-1.299-4.424-2.181-8.962-2.726-13.539
		c-2.341-19.713,1.373-39.86,7.15-58.679c2.991-9.756,6.642-19.305,10.77-28.633c3.772-8.528,9.568-16.922,12.188-25.831
		c-2.484-1.562-5.259-1.413-7.866-3.568c-2.399-1.987-4.244-4.509-5.448-7.342c-1.783-4.198-0.991-9.208-3.182-13.233
		c-1.503-2.757-5.531-5.161-8.382-6.356c-1.679-0.702-4.092-0.721-6.427-0.735c-3.824-0.028-7.778-0.052-10.313-2.878
		c-0.986-1.095-1.491-2.594-1.774-4.295c-8.91,4.068-20.011,4.523-29.939,0.967c-10.989-3.93-20.153-14.2-23.348-26.163
		c-1.481-5.549-2.068-12.318,0.686-17.488c2.325-4.367,6.591-8.205,6.282-13.563c2.66,3.378,0.308,8.847-0.999,12.271
		c-2.235,5.849-2.919,11.372-1.277,17.524c2.751,10.308,10.906,19.492,20.292,22.849c9.76,3.494,21.244,2.584,29.257-2.319
		l4.171-2.556l-0.488,4.865c-0.158,1.574-0.156,3.66,0.749,4.666c1.102,1.228,3.966,1.247,6.735,1.266
		c2.81,0.019,5.711,0.038,8.271,1.114c3.328,1.398,5.697,3.703,7.987,5.927c2.786,2.708,5.412,5.268,9.72,6.164
		c6.967,1.456,18.932-2.167,27.829-8.42c6.055-4.253,9.872-9.161,10.479-13.456l0.56-3.973l3.257,2.337
		c6.174,4.429,27.248,17.647,39.287,1.721l3.385-4.476l0.944,5.533c1.991,11.688,15.233,16.761,27.286,15.736
		c10.483-0.896,22.721-6.794,22.721-20.463c0-0.038,4.855-0.047,4.855-0.047c0.007,4.471,1.706,7.387,5.191,8.904
		c9.094,3.959,28.268-2.532,40.229-13.622c5.785-5.365,9.725-12.048,10.594-19.921c0.301-2.722,0.763-15.637,6.229-13.157
		c-4.934,6.041-1.418,11.818-2.336,18.307c-1.012,7.168-6.047,13.56-11.187,18.327c-12.167,11.285-33.335,19.8-45.47,14.519
		c-1.756-0.769-3.655-2.039-5.182-3.983c1.862,2.371-9.108,10.682-10.669,11.576c-5.665,3.252-11.114,3.862-17.336,5.348
		c0.635,1.847-0.558,5.879-1.255,7.83c-1.981,5.557-9.914,13.401-16.338,10.97c0.564,0.213,1.91,4.66,2.219,5.497
		c1.105,2.987,1.883,6.142,2.73,9.208c1.629,5.9,3.072,11.851,4.519,17.799c2.333,9.601,4.746,19.524,7.899,28.988l0.892,2.669
		c3.257,9.73,6.624,19.796,8.644,29.833c3.939,19.582,1.347,37.599-6.87,49.376c0.919,0.337,1.832,0.684,2.74,1.029
		c6.578,2.504,12.792,4.869,20.307,3.187c6.435-1.441,12.067-5.709,17.729-13.428l0.585-0.797
		c6.271-8.553,6.812-8.933,14.517-10.132l4.897-0.815c17.301-3.153,43.015-23.702,48.997-44.488
		c3.127-10.862,0.573-20.155-7.591-27.623l-6.387-5.836l8.491,1.663c0.633,0.124,1.795-0.052,2.821-0.208
		c0,0,0.732-0.042,1.315-0.081c0.056-2.053,0.377-14.536,0.377-14.536l2.514,0.16c4.163,0.262,8.392-1.517,12.566-5.296
		c10.311-9.326,17.121-28.106,17.465-37.465c0.017-0.394,0.023-0.792,0.023-1.19C430.478,209.458,427.269,200.369,421.371,192.096z"
		/>
	<path fill="#F7E3EE" d="M379.116,124.1l-1.944-1.427c2.044-2.47,3.002-6.164,3.926-9.777c0.711-2.792,1.385-5.429,2.542-7.572
		c2.451-4.537,5.808-7.776,9.055-10.915c3.059-2.949,5.946-5.742,8.223-9.573c2.603-4.386,4.48-9.317,5.741-15.078
		c1.958-8.928,2.119-18.577,2.278-27.903c0.103-6.107,0.211-12.417,0.833-18.335c0.12-1.133,0.18-2.19,0.18-3.158
		c0-3.66-0.852-6.116-2.544-7.32c-4.45-3.167-14.758,1.659-23.856,5.917l-4.75,2.2c-15.749,7.088-32.906,20.762-44.88,35.811
		c-3.705,4.651-9.001,11.328-9.518,17.667c1.073,0.659,2.136,1.389,3.172,2.243c5.369,4.433,9.639,11.17,12.593,18.221
		c0.296,0.332,0.573,0.683,0.852,1.034l-0.612-0.451c2.043,5.007,3.431,10.147,4.057,14.708c11.166-2.399,22.77,3.831,28.185,15.224
		c-0.138-0.289,3.947-0.37,7.143-0.27c0-0.583,0-1.173,0-2.269C379.566,123.417,379.372,123.785,379.116,124.1z M367.3,107.06
		c-4.794-1.769-8.155-7.278-8.568-14.04c-0.592-9.687,5.975-17.51,11.252-23.792l9.701-10.639
		c10.655-11.171,19.074-19.995,19.188-37.343l4.855,0.033c-0.128,19.274-9.582,29.183-20.53,40.662l-9.497,10.407
		c-4.72,5.624-10.597,12.627-10.122,20.379c0.289,4.76,2.46,8.69,5.404,9.776c2.914,1.076,5.692-0.938,7.511-2.821l3.489,3.376
		C374.602,108.624,369.727,107.956,367.3,107.06z"/>
	<path fill="#F7E3EE" d="M116.318,103.138c5.137-4.571,10.445-6.941,15.586-7.093c-0.249-0.726-0.457-1.465-0.641-2.214
		c-0.472-1.323-0.764-2.646-0.764-3.94c0-0.854,0.099-1.697,0.286-2.522c0.223-2.442,0.843-4.855,1.9-7.07
		c1.431-3.001,3.508-5.319,5.988-6.851c-25.019-22.071-69.039-6.017-95.966,3.85l-4.145,1.38
		c-6.638,2.114-15.721,5.012-15.721,10.497v0.047c0.077,8.274,11.271,11.806,20.647,13.309c18.536,2.978,39.792,12.83,57.473,26.485
		C102.997,119.951,108.792,109.838,116.318,103.138z M98.358,111.038c-4.161-7.416-23.314-9.853-38.705-11.815
		c-17.218-2.19-27.03-3.708-28.481-9.388l4.703-1.204c0.706,2.759,14.959,4.576,24.391,5.78c17.329,2.205,36.97,4.708,42.326,14.252
		c1.935,3.447,1.902,7.454-0.094,11.911l-4.431-1.987C99.42,115.565,99.515,113.095,98.358,111.038z"/>
	<path fill="#E28691" d="M102.498,120.572c1.997-4.457,2.029-8.463,0.094-11.911c-5.356-9.544-24.998-12.047-42.326-14.252
		c-9.432-1.204-23.685-3.021-24.391-5.78l-4.703,1.204c1.452,5.68,11.263,7.198,28.481,9.388
		c15.39,1.963,34.544,4.399,38.705,11.815c1.157,2.057,1.063,4.528-0.292,7.548L102.498,120.572z"/>
	<path fill="#82151F" d="M201.922,339.542c-6.188,0.251-10.339,4.5-10.195,8.155c0.237,6.062,8.945,5.829,11.494,1.515
		c-1.558-1.312-6.439,0.284-6.718-3.02c-0.266-3.145,4.324-3.271,6.376-3.347c4.737-0.174,14.551,4.274,11.649,10.581
		c0.735,0.268,1.456,0.578,2.181,0.884c1.219-2.887,0.922-5.774-0.86-8.35C212.796,341.552,206.393,339.366,201.922,339.542z"/>
	<path fill="#E28691" d="M376.494,99.682c-1.818,1.883-4.597,3.897-7.511,2.821c-2.944-1.086-5.115-5.016-5.404-9.776
		c-0.475-7.752,5.402-14.755,10.122-20.379l9.497-10.407c10.948-11.479,20.402-21.388,20.53-40.662l-4.855-0.033
		c-0.113,17.348-8.532,26.172-19.188,37.343l-9.701,10.639c-5.277,6.282-11.844,14.105-11.252,23.792
		c0.413,6.761,3.774,12.271,8.568,14.04c2.427,0.896,7.302,1.564,12.683-4.002L376.494,99.682z"/>
	<path fill="#82151F" d="M245.526,337.797c-4.346,0.503-8.969,3.305-12.145,6.188c-1.55,1.408-3.411,3.274-3.817,5.429
		c-0.464,2.494,1.745,4.476,1.005,6.859c-0.517,1.665-1.984,2.825-3.305,3.892c2.947-0.771,6.448-3.172,7.439-6.021
		c-0.033,0.104-2.812-2.653-2.909-3.44c-0.197-1.596,0.945-2.924,1.944-4.014c2.28-2.491,6.389-4.815,9.803-5.064
		c5.86-0.423,11.158,5.161,4.055,8.218c2.934-1.262,11.873-0.269,10.489-5.863C256.971,339.475,249.44,337.344,245.526,337.797z"/>
	<path d="M425.323,189.274l0.002,0.004c-5.842-8.188-13.646-14.57-21.792-18.249c2.025-2.46,2.874-5.068,3.789-7.965l0.674-2.139
		c0,0-0.267-0.123-0.534-0.242c3.523-2.963,5.514-6.813,5.726-11.37c0.014-0.275,0.019-0.55,0.019-0.825
		c0-13.328-14.559-29.823-22.953-35.479c-1.925-1.294-3.843-2.385-5.746-3.376c0.364-1.162,0.77-2.233,1.269-3.157
		c2.273-4.201,5.35-7.174,8.607-10.322c3.035-2.931,6.179-5.965,8.62-10.081c2.735-4.608,4.708-9.777,6.025-15.793
		c2.012-9.17,2.177-18.937,2.335-28.386c0.107-6.33,0.207-12.309,0.819-18.117c0.683-6.453-0.423-10.611-3.369-12.711
		c-5.602-3.992-16.119,0.934-26.293,5.699l-4.718,2.181c-16.081,7.24-33.583,21.18-45.678,36.38
		c-0.793,0.996-1.646,2.077-2.514,3.21c-3.879-4.448-8.056-8.634-12.785-12.232c-26.326-20.023-47.074-25.068-60.421-14.936
		c-1.65-2.944-4.689-5.301-8.98-6.775c-6.924-2.375-16.656-2.167-22.308,1.839c-10.445-5.3-19.311-8.482-33.649-3.518
		c-11.249,3.897-38.345,15.31-50.443,37.31c-4.217,1.104-8.516,2.304-12.81,3.764c-26.33-10.952-62.769,2.39-86.341,11.028
		l-4.048,1.347c-7.376,2.351-17.48,5.576-17.412,12.882c0.074,7.89,7.921,13.313,22.691,15.685
		c9.017,1.446,18.919,4.689,28.726,9.236c-6.511,3.528-12.017,8.994-12.812,22.261c-0.02,0.304-0.027,0.611-0.027,0.915
		c0,2.869,0.763,5.732,1.505,8.516c0.646,2.423,1.265,4.746,1.265,6.704c0,0.597-0.057,1.162-0.188,1.683
		c-0.538,2.138-3.377,5.016-5.882,7.558c-1.734,1.759-3.372,3.418-4.472,5.012c-6.367,9.213-10.938,22.488-10.938,35.394
		c0,11.328,3.596,22.332,12.525,30.084c-4.53,4.438-8.252,12.488-8.85,20.227c-0.056,0.73-0.084,1.45-0.084,2.146
		c0,4.515,1.223,8.266,3.425,11.006c-4.813,6.718-6.957,14.479-6.957,22.375c0,10.464,3.53,21.079,8.758,29.523
		c9.854,15.917,25.142,24.053,40.591,22.232c0.533,5.965,5.34,15.75,5.698,16.272c4.354,6.354,9.935,8.714,15.843,11.218l3.67,1.593
		c15.264,6.941,26.813,7.8,44.019,8.383c1.005,0.033,1.901,0.118,2.748,0.224c3.165,4.798,6.806,7.846,10.763,9.591
		c0.247,0.702,0.496,1.428,0.754,2.2c0.956,2.835,2.037,6.05,3.774,9.426c5.654,10.967,20.807,11.588,31.869,12.038l3.003,0.133
		c16.492,0.824,30.324-0.849,41.105-4.973c10.986-4.207,12.811-10.887,14.428-18.014c7.368-1.526,13.561-4.93,18.501-10.198
		c1.394,0.474,2.808,1,4.262,1.556c6.636,2.527,14.153,5.386,23.096,3.385c7.541-1.688,14.271-6.69,20.582-15.291l0.586-0.801
		c5.326-7.269,5.326-7.269,11.346-8.208l5.023-0.834c19.032-3.471,46.24-25.157,52.79-47.921c0.984-3.418,1.473-6.737,1.473-9.933
		c0-6.908-2.396-13.201-6.896-18.714c0.73-0.063,3.645-0.309,3.645-0.309l0.557-2.082c0,0,0.261-9.976,0.313-12.033
		c4.651-0.365,9.22-2.456,13.609-6.425c10.702-9.682,18.637-29.321,19.063-40.889c0.015-0.451,0.023-0.906,0.023-1.361
		C435.333,208.458,431.806,198.368,425.323,189.274z M43.489,102.531c-9.376-1.503-20.57-5.035-20.647-13.309v-0.047
		c0-5.485,9.083-8.383,15.721-10.497l4.145-1.38c26.927-9.867,70.947-25.921,95.966-3.85c-2.48,1.532-4.558,3.85-5.988,6.851
		c-1.058,2.214-1.678,4.628-1.9,7.07c-0.187,0.825-0.286,1.668-0.286,2.522c0,1.294,0.292,2.617,0.764,3.94
		c0.184,0.749,0.392,1.489,0.641,2.214c-5.141,0.152-10.45,2.522-15.586,7.093c-7.526,6.7-13.321,16.813-15.356,25.878
		C83.28,115.361,62.025,105.509,43.489,102.531z M251.199,401.374c-10.146,3.878-23.313,5.447-39.128,4.655l-3.046-0.133
		c-10.422-0.427-23.394-0.958-27.751-9.412c-1.38-2.673-2.295-5.229-3.137-7.713c8.359,1.365,17.567-1.29,26.132-3.766l4.542-1.407
		c6.121-1.968,12.451-3.997,18.51-2.939c3.835,0.668,7.112,2.114,10.578,3.646c4.045,1.786,8.229,3.631,13.401,4.19
		c3.851,0.412,7.478,0.455,10.898,0.161C260.824,394.233,258.979,398.396,251.199,401.374z M284.433,375.709
		c-7.667,8.401-18.726,11.892-32.874,10.374c-4.799-0.518-8.805-2.286-12.679-3.997c-3.991-1.764-9.814-2.527-12.5-6.284
		c-2.492-3.485-2.064-9.047-0.474-12.807c-3.26,2.219-3.943,1.887-6.275-1c2.992,3.702,1.23,12.339-0.192,16.313
		c-3.838,0.583-7.641,1.782-11.37,2.977l-4.473,1.39c-17.986,5.191-31.435,7.681-40.671-7.648
		c-27.14-45.061,6.671-119.344,30.928-156.132l4.694-7.899c2.792-1.337,5.524-2.921,8.08-4.718
		c5.813-4.086,9.708-8.714,11.483-13.328c10.889,7.045,23.93,11.033,34.375,6.05c3.403,4.3,5.448,9.369,7.676,14.911l2.878,6.88
		c6.104,13.603,9.687,28.344,13.152,42.601c2.343,9.649,4.766,19.625,7.956,29.183l0.892,2.67
		c3.231,9.663,6.574,19.653,8.563,29.543C297.82,345.757,294.395,364.794,284.433,375.709z M430.455,219.017
		c-0.344,9.359-7.154,28.139-17.465,37.465c-4.175,3.779-8.403,5.558-12.566,5.296l-2.514-0.16c0,0-0.321,12.483-0.377,14.536
		c-0.583,0.039-1.315,0.081-1.315,0.081c-1.026,0.156-2.188,0.332-2.821,0.208l-8.491-1.663l6.387,5.836
		c8.164,7.468,10.718,16.761,7.591,27.623c-5.982,20.786-31.696,41.335-48.997,44.488l-4.897,0.815
		c-7.705,1.199-8.246,1.579-14.517,10.132l-0.585,0.797c-5.661,7.719-11.294,11.986-17.729,13.428
		c-7.515,1.683-13.729-0.683-20.307-3.187c-0.908-0.346-1.821-0.692-2.74-1.029c8.217-11.777,10.81-29.794,6.87-49.376
		c-2.02-10.037-5.387-20.103-8.644-29.833l-0.892-2.669c-3.153-9.464-5.566-19.388-7.899-28.988
		c-1.446-5.948-2.89-11.899-4.519-17.799c-0.848-3.065-1.625-6.22-2.73-9.208c-0.309-0.837-1.654-5.284-2.219-5.497
		c6.424,2.432,14.356-5.413,16.338-10.97c0.697-1.951,1.89-5.983,1.255-7.83c6.222-1.486,11.671-2.096,17.336-5.348
		c1.561-0.894,12.531-9.206,10.669-11.576c1.526,1.944,3.426,3.214,5.182,3.983c12.135,5.282,33.303-3.233,45.47-14.519
		c5.14-4.767,10.175-11.159,11.187-18.327c0.918-6.488-2.598-12.266,2.336-18.307c-5.467-2.48-5.929,10.436-6.229,13.157
		c-0.869,7.873-4.809,14.556-10.594,19.921c-11.962,11.09-31.136,17.581-40.229,13.622c-3.485-1.517-5.185-4.433-5.191-8.904
		c0,0-4.855,0.009-4.855,0.047c0,13.669-12.237,19.567-22.721,20.463c-12.053,1.024-25.295-4.049-27.286-15.736l-0.944-5.533
		l-3.385,4.476c-12.039,15.926-33.113,2.708-39.287-1.721l-3.257-2.337l-0.56,3.973c-0.607,4.295-4.423,9.203-10.479,13.456
		c-8.897,6.254-20.862,9.876-27.829,8.42c-4.308-0.896-6.934-3.456-9.72-6.164c-2.29-2.224-4.659-4.528-7.987-5.927
		c-2.561-1.076-5.462-1.095-8.271-1.114c-2.769-0.019-5.633-0.038-6.735-1.266c-0.905-1.005-0.907-3.091-0.749-4.666l0.488-4.865
		l-4.171,2.556c-8.013,4.903-19.498,5.813-29.257,2.319c-9.386-3.357-17.541-12.541-20.292-22.849
		c-1.642-6.152-0.958-11.675,1.277-17.524c1.307-3.423,3.659-8.892,0.999-12.271c0.309,5.358-3.957,9.196-6.282,13.563
		c-2.754,5.17-2.167,11.939-0.686,17.488c3.195,11.963,12.358,22.232,23.348,26.163c9.928,3.556,21.029,3.101,29.939-0.967
		c0.283,1.702,0.788,3.2,1.774,4.295c2.535,2.826,6.49,2.85,10.313,2.878c2.335,0.014,4.749,0.033,6.427,0.735
		c2.852,1.195,6.879,3.599,8.382,6.356c2.19,4.025,1.398,9.035,3.182,13.233c1.204,2.833,3.049,5.355,5.448,7.342
		c2.607,2.155,5.382,2.006,7.866,3.568c-2.62,8.909-8.416,17.303-12.188,25.831c-4.127,9.328-7.778,18.877-10.77,28.633
		c-5.778,18.818-9.491,38.966-7.15,58.679c0.545,4.577,1.427,9.115,2.726,13.539c0.417,1.422,3.357,12.064,4.798,12.114
		c-16.395-0.564-27.472-1.418-41.804-7.938l-3.786-1.646c-5.688-2.408-10.182-4.31-13.733-9.492
		c-1.247-1.943-5.457-12.669-4.955-14.85c-0.058,0.247-0.438,0.773-1.094,0.92l-1.055-4.741
		c-17.43,3.883-31.607-7.601-39.061-19.643C43.044,298.567,42.631,278.823,52.219,267l1.479-1.826l-1.776-1.541
		c-3.226-2.793-3.344-7.927-3.127-10.738c0.575-7.439,4.662-15.975,8.925-18.648l3.03-1.896l-2.882-2.115
		c-19.295-14.172-13.941-44.337-2.658-60.661c0.859-1.242,2.353-2.76,3.935-4.362c3.085-3.129,6.275-6.363,7.134-9.781
		c0.87-3.461-0.126-7.202-1.094-10.825c-0.721-2.702-1.465-5.5-1.323-7.889c0.773-12.887,6.24-16.609,13.494-19.848
		c7.184,3.706,14.115,7.987,20.57,12.858c3.247,2.452,2.952,2.639,2.979,6.178c0.026,3.506,1.381,6.863,3.605,9.594
		c-3.888-4.774,0.782-15.001,2.489-19.764c2.548-7.11,6.888-13.935,12.546-18.97c3.764-3.352,9.541-7.041,15.683-5.6l5.973,1.403
		l-3.395-5.111c-7.35-11.066,3.387-23.812,15.277-23.527c-2.775-1.88-6.044-2.378-9.313-2.406c-2.444-0.019-2.233,0.422-4.403-0.787
		c-0.903-0.502-3.985-3.933-5.006-3.625c2.953-0.892,5.898-1.688,8.8-2.442l1.045-0.271l0.499-0.958
		c10.996-21.132,37.475-32.175,48.349-35.939c12.1-4.191,19.392-2.186,31.16,3.897l1.545,0.801l1.254-1.209
		c3.369-3.252,12.169-4.097,18.835-1.807c2.404,0.825,6.524,2.774,7.064,6.558l0.69,4.822l3.435-3.452
		c14.135-14.2,38.714-0.74,56.847,13.053c4.721,3.589,8.916,7.871,12.83,12.441c-2.197,3.362-4.056,7.046-4.617,10.778
		c0.167-1.122-5.688-1.482-6.418-1.333c-2.063,0.422-5.173,2.01-6.965,3.153c-1.594,1.02-2.738,2.401-4.377,3.376
		c7.738-3.163,13.494-3.447,20.142,2.043c2.84,2.347,5.287,5.405,7.354,8.767l-6.746-4.95c1.967,2.584,4.58,4.703,7.151,6.771
		c0.401,0.322,0.804,0.645,1.203,0.972c3.951,7.454,6.139,15.846,6.527,21.412l0.224,3.191l3.011-1.072
		c1.051-0.37,2.091-0.611,3.125-0.787c1.133,0.204,2.61,0.2,4.579,0.138c0.644-0.024,1.305-0.042,1.959-0.047
		c3.584,0.72,6.874,2.489,9.625,4.931c0.588,0.749,1.153,1.512,1.702,2.276c1.047,1.47,2.111,2.949,3.38,4.04
		c0.574,1.019,1.088,2.067,1.508,3.148l0.903,2.342l2.307-0.981c5.054-2.148,12.749-3.826,17.169,0.469
		c-0.569-2.222-4.045-4.746-6.061-5.579c-1.085-0.45-10.967-0.495-10.755-0.05c-5.415-11.393-17.019-17.623-28.185-15.224
		c-0.626-4.561-2.014-9.701-4.057-14.708l0.612,0.451c-0.278-0.351-0.556-0.702-0.852-1.034c-2.954-7.05-7.224-13.788-12.593-18.221
		c-1.036-0.854-2.099-1.584-3.172-2.243c0.517-6.339,5.813-13.015,9.518-17.667c11.974-15.049,29.131-28.723,44.88-35.811l4.75-2.2
		c9.099-4.258,19.406-9.084,23.856-5.917c1.692,1.204,2.544,3.66,2.544,7.32c0,0.967-0.06,2.025-0.18,3.158
		c-0.622,5.917-0.73,12.228-0.833,18.335c-0.159,9.326-0.32,18.975-2.278,27.903c-1.261,5.761-3.139,10.691-5.741,15.078
		c-2.276,3.831-5.164,6.624-8.223,9.573c-3.247,3.139-6.604,6.377-9.055,10.915c-1.157,2.143-1.831,4.779-2.542,7.572
		c-0.924,3.613-1.882,7.307-3.926,9.777l1.944,1.427c2.133-2.646,3.2-6.226,4.084-9.649c1.456,0.787,2.906,1.622,4.341,2.584
		c7.2,4.851,20.813,20.16,20.813,31.426c0,0.208-0.008,0.417-0.017,0.626c-0.194,4.206-2.352,7.373-6.595,9.691l-4.06,2.219
		l3.583,1.702c0,0,0.457,0.228,0.912,0.459c-0.92,2.774-1.816,4.728-4.357,6.681l-3.574,2.745l4.258,1.474
		c8.443,2.921,16.776,9.497,22.867,18.037c5.898,8.273,9.107,17.363,9.107,25.731C430.478,218.225,430.471,218.623,430.455,219.017z
		"/>
	<path fill="#B72025" d="M242.02,323.549c-2.974,0.379-5.688,1.162-8.312,1.911c-4.509,1.294-8.77,2.518-14.101,1.697l-2.826-0.45
		c-9.767-1.589-21.919-3.561-28.927,2.773c-7.269,6.569-4.85,19.39,2.842,24.852c-3.155-4.179-4.749-7.962-3.89-13.299
		c0.905-5.647,3.305-9.462,8.952-10.347c6.903-1.082,13.366-0.306,20.243,0.813l2.867,0.455c6.386,0.986,11.365-0.445,16.18-1.825
		c2.563-0.735,4.982-1.432,7.588-1.764c5.548-0.713,13.582,2.303,17.941,5.663c5.709,4.405,2.557,13.729-0.905,18.482
		c2.184-1.707,4.509-3.618,6.088-6.007C274.753,332.911,253.2,322.117,242.02,323.549z"/>
</g>
</svg>
