<?xml version="1.0" encoding="UTF-8" standalone="no"?>
<!-- Generator: Adobe Illustrator 12.0.0, SVG Export Plug-In . SVG Version: 6.00 Build 51448)  -->

<svg
   xmlns:dc="http://purl.org/dc/elements/1.1/"
   xmlns:cc="http://creativecommons.org/ns#"
   xmlns:rdf="http://www.w3.org/1999/02/22-rdf-syntax-ns#"
   xmlns:svg="http://www.w3.org/2000/svg"
   xmlns="http://www.w3.org/2000/svg"
   xmlns:sodipodi="http://sodipodi.sourceforge.net/DTD/sodipodi-0.dtd"
   xmlns:inkscape="http://www.inkscape.org/namespaces/inkscape"
   version="1.1"
   id="Layer_1"
   width="100"
   height="100"
   viewBox="0 0 99.999997 100"
   overflow="visible"
   enable-background="new 0 0 454.614 428"
   xml:space="preserve"
   inkscape:version="0.48.2 r9819"
   sodipodi:docname="player_sheep.svg"
   style="overflow:visible"><metadata
   id="metadata3777"><rdf:RDF><cc:Work
       rdf:about=""><dc:format>image/svg+xml</dc:format><dc:type
         rdf:resource="http://purl.org/dc/dcmitype/StillImage" /></cc:Work></rdf:RDF></metadata><defs
   id="defs3775" /><sodipodi:namedview
   pagecolor="#ffffff"
   bordercolor="#666666"
   borderopacity="1"
   objecttolerance="10"
   gridtolerance="10"
   guidetolerance="10"
   inkscape:pageopacity="0"
   inkscape:pageshadow="2"
   inkscape:window-width="1440"
   inkscape:window-height="852"
   id="namedview3773"
   showgrid="false"
   inkscape:zoom="0.55140187"
   inkscape:cx="-4.8285864"
   inkscape:cy="214"
   inkscape:window-x="0"
   inkscape:window-y="0"
   inkscape:window-maximized="1"
   inkscape:current-layer="Layer_1" />
<g
   id="g3749"
   transform="matrix(0.20046432,0,0,0.20046432,4.3191256,7.8338069)">
	<path
   d="m 251.3,388.496 c -5.173,-0.56 -9.356,-2.404 -13.401,-4.19 -3.466,-1.532 -6.742,-2.979 -10.578,-3.646 -6.06,-1.058 -12.389,0.972 -18.51,2.939 l -4.542,1.407 c -8.565,2.476 -17.773,5.131 -26.132,3.766 0.842,2.484 1.757,5.04 3.137,7.713 4.357,8.454 17.329,8.985 27.751,9.412 l 3.046,0.133 c 15.815,0.792 28.981,-0.777 39.128,-4.655 7.78,-2.978 9.625,-7.141 11,-12.717 -3.421,0.293 -7.048,0.25 -10.899,-0.162 z"
   id="path3751"
   inkscape:connector-curvature="0"
   style="fill:#f7e3ee" />
	<path
   d="m 293.6,324.786 c -1.988,-9.89 -5.331,-19.88 -8.563,-29.543 l -0.892,-2.67 c -3.19,-9.558 -5.613,-19.533 -7.956,-29.183 -3.466,-14.257 -7.048,-28.998 -13.152,-42.601 l -2.878,-6.88 c -2.228,-5.542 -4.272,-10.611 -7.676,-14.911 -10.445,4.983 -23.486,0.995 -34.375,-6.05 -1.775,4.613 -5.671,9.241 -11.483,13.328 -2.556,1.797 -5.287,3.381 -8.08,4.718 l -4.694,7.899 c -24.256,36.788 -58.067,111.071 -30.928,156.132 9.236,15.329 22.685,12.84 40.671,7.648 l 4.473,-1.39 c 3.729,-1.194 7.532,-2.394 11.37,-2.977 1.422,-3.974 3.184,-12.61 0.192,-16.313 2.333,2.887 3.015,3.219 6.275,1 -1.591,3.76 -2.018,9.321 0.474,12.807 2.686,3.757 8.509,4.521 12.5,6.284 3.874,1.711 7.88,3.479 12.679,3.997 14.148,1.518 25.207,-1.973 32.874,-10.374 9.964,-10.913 13.389,-29.95 9.169,-50.921 z m -76.89,29.525 c -0.725,-0.306 -1.446,-0.616 -2.181,-0.884 2.902,-6.307 -6.913,-10.755 -11.649,-10.581 -2.053,0.076 -6.642,0.202 -6.376,3.347 0.279,3.304 5.161,1.708 6.718,3.02 -2.548,4.314 -11.256,4.547 -11.494,-1.515 -0.144,-3.655 4.007,-7.904 10.195,-8.155 4.471,-0.176 10.874,2.01 13.927,6.419 1.782,2.574 2.079,5.462 0.86,8.349 z m 30.886,-4.468 c 7.104,-3.057 1.806,-8.641 -4.055,-8.218 -3.414,0.249 -7.522,2.573 -9.803,5.064 -0.999,1.09 -2.141,2.418 -1.944,4.014 0.097,0.787 2.875,3.544 2.909,3.44 -0.991,2.849 -4.492,5.25 -7.439,6.021 1.32,-1.066 2.788,-2.227 3.305,-3.892 0.739,-2.384 -1.47,-4.365 -1.005,-6.859 0.406,-2.154 2.267,-4.021 3.817,-5.429 3.176,-2.883 7.799,-5.685 12.145,-6.188 3.914,-0.453 11.445,1.678 12.56,6.183 1.383,5.595 -7.556,4.602 -10.49,5.864 z m 18.163,-3.338 c -1.579,2.389 -3.904,4.3 -6.088,6.007 3.462,-4.754 6.614,-14.077 0.905,-18.482 -4.359,-3.36 -12.394,-6.376 -17.941,-5.663 -2.605,0.332 -5.025,1.028 -7.588,1.764 -4.815,1.38 -9.793,2.812 -16.18,1.825 L 216,331.501 c -6.877,-1.119 -13.339,-1.896 -20.243,-0.813 -5.647,0.885 -8.046,4.699 -8.952,10.347 -0.858,5.337 0.735,9.12 3.89,13.299 -7.692,-5.462 -10.111,-18.282 -2.842,-24.852 7.007,-6.334 19.16,-4.362 28.927,-2.773 l 2.826,0.45 c 5.332,0.82 9.592,-0.403 14.101,-1.697 2.625,-0.749 5.338,-1.532 8.312,-1.911 11.181,-1.434 32.734,9.36 23.74,22.954 z"
   id="path3753"
   inkscape:connector-curvature="0"
   style="fill:#f7e3ee" />
	<path
   d="m 421.371,192.096 c -6.091,-8.54 -14.424,-15.116 -22.867,-18.037 l -4.258,-1.474 3.574,-2.745 c 2.541,-1.954 3.438,-3.907 4.357,-6.681 -0.455,-0.232 -0.912,-0.459 -0.912,-0.459 l -3.583,-1.702 4.06,-2.219 c 4.243,-2.318 6.4,-5.485 6.595,-9.691 0.009,-0.209 0.017,-0.417 0.017,-0.626 0,-11.266 -13.612,-26.575 -20.813,-31.426 -1.435,-0.962 -2.885,-1.797 -4.341,-2.584 -0.779,3.016 -1.744,6.114 -3.411,8.627 0,1.095 0,1.686 0,2.269 1.745,0.055 3.229,0.162 3.612,0.32 2.016,0.833 5.491,3.357 6.061,5.579 -4.42,-4.295 -12.115,-2.618 -17.169,-0.469 l -2.307,0.981 -0.903,-2.342 c -0.42,-1.081 -0.934,-2.129 -1.508,-3.148 -1.269,-1.09 -2.333,-2.57 -3.38,-4.04 -0.549,-0.764 -1.114,-1.527 -1.702,-2.276 -2.751,-2.442 -6.041,-4.21 -9.625,-4.931 -0.654,0.004 -1.315,0.023 -1.959,0.047 -1.969,0.062 -3.446,0.066 -4.579,-0.138 -1.034,0.176 -2.074,0.417 -3.125,0.787 l -3.011,1.072 -0.224,-3.191 c -0.389,-5.566 -2.576,-13.958 -6.527,-21.412 -0.399,-0.327 -0.802,-0.649 -1.203,-0.972 -2.571,-2.067 -5.185,-4.187 -7.151,-6.771 l 6.746,4.95 c -2.066,-3.362 -4.514,-6.42 -7.354,-8.767 -6.647,-5.49 -12.403,-5.206 -20.142,-2.043 1.639,-0.975 2.783,-2.356 4.377,-3.376 1.792,-1.143 4.902,-2.731 6.965,-3.153 0.729,-0.15 6.585,0.211 6.418,1.333 0.562,-3.731 2.42,-7.416 4.617,-10.778 -3.914,-4.57 -8.109,-8.852 -12.83,-12.441 C 295.753,36.377 271.174,22.916 257.039,37.116 l -3.435,3.452 -0.69,-4.822 c -0.54,-3.784 -4.66,-5.732 -7.064,-6.558 -6.666,-2.29 -15.466,-1.446 -18.835,1.807 l -1.254,1.209 -1.545,-0.801 c -11.768,-6.083 -19.06,-8.089 -31.16,-3.897 -10.874,3.765 -37.353,14.807 -48.349,35.939 l -0.499,0.958 -1.045,0.271 c -2.902,0.754 -5.848,1.55 -8.8,2.442 1.021,-0.308 4.103,3.122 5.006,3.625 2.17,1.209 1.959,0.768 4.403,0.787 3.268,0.028 6.537,0.526 9.313,2.406 -11.89,-0.285 -22.627,12.46 -15.277,23.527 l 3.395,5.111 -5.973,-1.403 c -6.142,-1.441 -11.918,2.248 -15.683,5.6 -5.658,5.035 -9.998,11.86 -12.546,18.97 -1.707,4.763 -6.376,14.99 -2.489,19.764 -2.224,-2.731 -3.579,-6.088 -3.605,-9.594 -0.027,-3.54 0.268,-3.727 -2.979,-6.178 -6.456,-4.872 -13.386,-9.153 -20.57,-12.858 -7.254,3.238 -12.721,6.96 -13.494,19.848 -0.142,2.39 0.603,5.187 1.323,7.889 0.968,3.623 1.964,7.364 1.094,10.825 -0.859,3.418 -4.049,6.652 -7.134,9.781 -1.582,1.603 -3.075,3.12 -3.935,4.362 -11.283,16.324 -16.637,46.489 2.658,60.661 l 2.882,2.115 -3.03,1.896 c -4.263,2.673 -8.35,11.209 -8.925,18.648 -0.217,2.812 -0.099,7.945 3.127,10.738 L 53.7,265.177 52.219,267 c -9.588,11.823 -9.175,31.567 1.007,48.016 7.454,12.042 21.63,23.525 39.061,19.643 l 1.055,4.741 c 0.657,-0.146 1.036,-0.673 1.094,-0.92 -0.502,2.181 3.708,12.906 4.955,14.85 3.552,5.183 8.045,7.084 13.733,9.492 l 3.786,1.646 c 14.332,6.52 25.41,7.373 41.804,7.938 -1.441,-0.05 -4.381,-10.692 -4.798,-12.114 -1.299,-4.424 -2.181,-8.962 -2.726,-13.539 -2.341,-19.713 1.373,-39.86 7.15,-58.679 2.991,-9.756 6.642,-19.305 10.77,-28.633 3.772,-8.528 9.568,-16.922 12.188,-25.831 -2.484,-1.562 -5.259,-1.413 -7.866,-3.568 -2.399,-1.987 -4.244,-4.509 -5.448,-7.342 -1.783,-4.198 -0.991,-9.208 -3.182,-13.233 -1.503,-2.757 -5.531,-5.161 -8.382,-6.356 -1.679,-0.702 -4.092,-0.721 -6.427,-0.735 -3.824,-0.028 -7.778,-0.052 -10.313,-2.878 -0.986,-1.095 -1.491,-2.594 -1.774,-4.295 -8.91,4.068 -20.011,4.523 -29.939,0.967 -10.989,-3.93 -20.153,-14.2 -23.348,-26.163 -1.481,-5.549 -2.068,-12.318 0.686,-17.488 2.325,-4.367 6.591,-8.205 6.282,-13.563 2.66,3.378 0.308,8.847 -0.999,12.271 -2.235,5.849 -2.919,11.372 -1.277,17.524 2.751,10.308 10.906,19.492 20.292,22.849 9.76,3.494 21.244,2.584 29.257,-2.319 l 4.171,-2.556 -0.488,4.865 c -0.158,1.574 -0.156,3.66 0.749,4.666 1.102,1.228 3.966,1.247 6.735,1.266 2.81,0.019 5.711,0.038 8.271,1.114 3.328,1.398 5.697,3.703 7.987,5.927 2.786,2.708 5.412,5.268 9.72,6.164 6.967,1.456 18.932,-2.167 27.829,-8.42 6.055,-4.253 9.872,-9.161 10.479,-13.456 l 0.56,-3.973 3.257,2.337 c 6.174,4.429 27.248,17.647 39.287,1.721 l 3.385,-4.476 0.944,5.533 c 1.991,11.688 15.233,16.761 27.286,15.736 10.483,-0.896 22.721,-6.794 22.721,-20.463 0,-0.038 4.855,-0.047 4.855,-0.047 0.007,4.471 1.706,7.387 5.191,8.904 9.094,3.959 28.268,-2.532 40.229,-13.622 5.785,-5.365 9.725,-12.048 10.594,-19.921 0.301,-2.722 0.763,-15.637 6.229,-13.157 -4.934,6.041 -1.418,11.818 -2.336,18.307 -1.012,7.168 -6.047,13.56 -11.187,18.327 -12.167,11.285 -33.335,19.8 -45.47,14.519 -1.756,-0.769 -3.655,-2.039 -5.182,-3.983 1.862,2.371 -9.108,10.682 -10.669,11.576 -5.665,3.252 -11.114,3.862 -17.336,5.348 0.635,1.847 -0.558,5.879 -1.255,7.83 -1.981,5.557 -9.914,13.401 -16.338,10.97 0.564,0.213 1.91,4.66 2.219,5.497 1.105,2.987 1.883,6.142 2.73,9.208 1.629,5.9 3.072,11.851 4.519,17.799 2.333,9.601 4.746,19.524 7.899,28.988 l 0.892,2.669 c 3.257,9.73 6.624,19.796 8.644,29.833 3.939,19.582 1.347,37.599 -6.87,49.376 0.919,0.337 1.832,0.684 2.74,1.029 6.578,2.504 12.792,4.869 20.307,3.187 6.435,-1.441 12.067,-5.709 17.729,-13.428 l 0.585,-0.797 c 6.271,-8.553 6.812,-8.933 14.517,-10.132 l 4.897,-0.815 c 17.301,-3.153 43.015,-23.702 48.997,-44.488 3.127,-10.862 0.573,-20.155 -7.591,-27.623 l -6.387,-5.836 8.491,1.663 c 0.633,0.124 1.795,-0.052 2.821,-0.208 0,0 0.732,-0.042 1.315,-0.081 0.056,-2.053 0.377,-14.536 0.377,-14.536 l 2.514,0.16 c 4.163,0.262 8.392,-1.517 12.566,-5.296 10.311,-9.326 17.121,-28.106 17.465,-37.465 0.017,-0.394 0.023,-0.792 0.023,-1.19 0.001,-8.373 -3.208,-17.462 -9.106,-25.735 z"
   id="path3755"
   inkscape:connector-curvature="0"
   style="fill:#f9eec7" />
	<path
   d="m 379.116,124.1 -1.944,-1.427 c 2.044,-2.47 3.002,-6.164 3.926,-9.777 0.711,-2.792 1.385,-5.429 2.542,-7.572 2.451,-4.537 5.808,-7.776 9.055,-10.915 3.059,-2.949 5.946,-5.742 8.223,-9.573 2.603,-4.386 4.48,-9.317 5.741,-15.078 1.958,-8.928 2.119,-18.577 2.278,-27.903 0.103,-6.107 0.211,-12.417 0.833,-18.335 0.12,-1.133 0.18,-2.19 0.18,-3.158 0,-3.66 -0.852,-6.116 -2.544,-7.32 -4.45,-3.167 -14.758,1.659 -23.856,5.917 l -4.75,2.2 c -15.749,7.088 -32.906,20.762 -44.88,35.811 -3.705,4.651 -9.001,11.328 -9.518,17.667 1.073,0.659 2.136,1.389 3.172,2.243 5.369,4.433 9.639,11.17 12.593,18.221 0.296,0.332 0.573,0.683 0.852,1.034 l -0.612,-0.451 c 2.043,5.007 3.431,10.147 4.057,14.708 11.166,-2.399 22.77,3.831 28.185,15.224 -0.138,-0.289 3.947,-0.37 7.143,-0.27 0,-0.583 0,-1.173 0,-2.269 -0.226,0.34 -0.42,0.708 -0.676,1.023 z M 367.3,107.06 c -4.794,-1.769 -8.155,-7.278 -8.568,-14.04 -0.592,-9.687 5.975,-17.51 11.252,-23.792 l 9.701,-10.639 C 390.34,47.418 398.759,38.594 398.873,21.246 l 4.855,0.033 c -0.128,19.274 -9.582,29.183 -20.53,40.662 l -9.497,10.407 c -4.72,5.624 -10.597,12.627 -10.122,20.379 0.289,4.76 2.46,8.69 5.404,9.776 2.914,1.076 5.692,-0.938 7.511,-2.821 l 3.489,3.376 c -5.381,5.566 -10.256,4.898 -12.683,4.002 z"
   id="path3757"
   inkscape:connector-curvature="0"
   style="fill:#f7e3ee" />
	<path
   d="m 116.318,103.138 c 5.137,-4.571 10.445,-6.941 15.586,-7.093 -0.249,-0.726 -0.457,-1.465 -0.641,-2.214 -0.472,-1.323 -0.764,-2.646 -0.764,-3.94 0,-0.854 0.099,-1.697 0.286,-2.522 0.223,-2.442 0.843,-4.855 1.9,-7.07 1.431,-3.001 3.508,-5.319 5.988,-6.851 -25.019,-22.071 -69.039,-6.017 -95.966,3.85 l -4.145,1.38 C 31.924,80.792 22.841,83.69 22.841,89.175 v 0.047 c 0.077,8.274 11.271,11.806 20.647,13.309 18.536,2.978 39.792,12.83 57.473,26.485 2.036,-9.065 7.831,-19.178 15.357,-25.878 z m -17.96,7.9 C 94.197,103.622 75.044,101.185 59.653,99.223 42.435,97.033 32.623,95.515 31.172,89.835 l 4.703,-1.204 c 0.706,2.759 14.959,4.576 24.391,5.78 17.329,2.205 36.97,4.708 42.326,14.252 1.935,3.447 1.902,7.454 -0.094,11.911 l -4.431,-1.987 c 1.353,-3.022 1.448,-5.492 0.291,-7.549 z"
   id="path3759"
   inkscape:connector-curvature="0"
   style="fill:#f7e3ee" />
	<path
   d="m 102.498,120.572 c 1.997,-4.457 2.029,-8.463 0.094,-11.911 C 97.236,99.117 77.594,96.614 60.266,94.409 50.834,93.205 36.581,91.388 35.875,88.629 l -4.703,1.204 c 1.452,5.68 11.263,7.198 28.481,9.388 15.39,1.963 34.544,4.399 38.705,11.815 1.157,2.057 1.063,4.528 -0.292,7.548 l 4.432,1.988 z"
   id="path3761"
   inkscape:connector-curvature="0"
   style="fill:#e28691" />
	<path
   d="m 201.922,339.542 c -6.188,0.251 -10.339,4.5 -10.195,8.155 0.237,6.062 8.945,5.829 11.494,1.515 -1.558,-1.312 -6.439,0.284 -6.718,-3.02 -0.266,-3.145 4.324,-3.271 6.376,-3.347 4.737,-0.174 14.551,4.274 11.649,10.581 0.735,0.268 1.456,0.578 2.181,0.884 1.219,-2.887 0.922,-5.774 -0.86,-8.35 -3.053,-4.408 -9.456,-6.594 -13.927,-6.418 z"
   id="path3763"
   inkscape:connector-curvature="0"
   style="fill:#82151f" />
	<path
   d="m 376.494,99.682 c -1.818,1.883 -4.597,3.897 -7.511,2.821 -2.944,-1.086 -5.115,-5.016 -5.404,-9.776 -0.475,-7.752 5.402,-14.755 10.122,-20.379 l 9.497,-10.407 C 394.146,50.462 403.6,40.553 403.728,21.279 l -4.855,-0.033 c -0.113,17.348 -8.532,26.172 -19.188,37.343 l -9.701,10.639 c -5.277,6.282 -11.844,14.105 -11.252,23.792 0.413,6.761 3.774,12.271 8.568,14.04 2.427,0.896 7.302,1.564 12.683,-4.002 l -3.489,-3.376 z"
   id="path3765"
   inkscape:connector-curvature="0"
   style="fill:#e28691" />
	<path
   d="m 245.526,337.797 c -4.346,0.503 -8.969,3.305 -12.145,6.188 -1.55,1.408 -3.411,3.274 -3.817,5.429 -0.464,2.494 1.745,4.476 1.005,6.859 -0.517,1.665 -1.984,2.825 -3.305,3.892 2.947,-0.771 6.448,-3.172 7.439,-6.021 -0.033,0.104 -2.812,-2.653 -2.909,-3.44 -0.197,-1.596 0.945,-2.924 1.944,-4.014 2.28,-2.491 6.389,-4.815 9.803,-5.064 5.86,-0.423 11.158,5.161 4.055,8.218 2.934,-1.262 11.873,-0.269 10.489,-5.863 -1.114,-4.506 -8.645,-6.637 -12.559,-6.184 z"
   id="path3767"
   inkscape:connector-curvature="0"
   style="fill:#82151f" />
	<path
   d="m 425.323,189.274 0.002,0.004 c -5.842,-8.188 -13.646,-14.57 -21.792,-18.249 2.025,-2.46 2.874,-5.068 3.789,-7.965 l 0.674,-2.139 c 0,0 -0.267,-0.123 -0.534,-0.242 3.523,-2.963 5.514,-6.813 5.726,-11.37 0.014,-0.275 0.019,-0.55 0.019,-0.825 0,-13.328 -14.559,-29.823 -22.953,-35.479 -1.925,-1.294 -3.843,-2.385 -5.746,-3.376 0.364,-1.162 0.77,-2.233 1.269,-3.157 2.273,-4.201 5.35,-7.174 8.607,-10.322 3.035,-2.931 6.179,-5.965 8.62,-10.081 2.735,-4.608 4.708,-9.777 6.025,-15.793 2.012,-9.17 2.177,-18.937 2.335,-28.386 0.107,-6.33 0.207,-12.309 0.819,-18.117 0.683,-6.453 -0.423,-10.611 -3.369,-12.711 -5.602,-3.992 -16.119,0.934 -26.293,5.699 l -4.718,2.181 c -16.081,7.24 -33.583,21.18 -45.678,36.38 -0.793,0.996 -1.646,2.077 -2.514,3.21 -3.879,-4.448 -8.056,-8.634 -12.785,-12.232 C 290.5,26.281 269.752,21.236 256.405,31.368 c -1.65,-2.944 -4.689,-5.301 -8.98,-6.775 -6.924,-2.375 -16.656,-2.167 -22.308,1.839 -10.445,-5.3 -19.311,-8.482 -33.649,-3.518 -11.249,3.897 -38.345,15.31 -50.443,37.31 -4.217,1.104 -8.516,2.304 -12.81,3.764 -26.33,-10.952 -62.769,2.39 -86.341,11.028 l -4.048,1.347 c -7.376,2.351 -17.48,5.576 -17.412,12.882 0.074,7.89 7.921,13.313 22.691,15.685 9.017,1.446 18.919,4.689 28.726,9.236 -6.511,3.528 -12.017,8.994 -12.812,22.261 -0.02,0.304 -0.027,0.611 -0.027,0.915 0,2.869 0.763,5.732 1.505,8.516 0.646,2.423 1.265,4.746 1.265,6.704 0,0.597 -0.057,1.162 -0.188,1.683 -0.538,2.138 -3.377,5.016 -5.882,7.558 -1.734,1.759 -3.372,3.418 -4.472,5.012 -6.367,9.213 -10.938,22.488 -10.938,35.394 0,11.328 3.596,22.332 12.525,30.084 -4.53,4.438 -8.252,12.488 -8.85,20.227 -0.056,0.73 -0.084,1.45 -0.084,2.146 0,4.515 1.223,8.266 3.425,11.006 -4.813,6.718 -6.957,14.479 -6.957,22.375 0,10.464 3.53,21.079 8.758,29.523 9.854,15.917 25.142,24.053 40.591,22.232 0.533,5.965 5.34,15.75 5.698,16.272 4.354,6.354 9.935,8.714 15.843,11.218 l 3.67,1.593 c 15.264,6.941 26.813,7.8 44.019,8.383 1.005,0.033 1.901,0.118 2.748,0.224 3.165,4.798 6.806,7.846 10.763,9.591 0.247,0.702 0.496,1.428 0.754,2.2 0.956,2.835 2.037,6.05 3.774,9.426 5.654,10.967 20.807,11.588 31.869,12.038 l 3.003,0.133 c 16.492,0.824 30.324,-0.849 41.105,-4.973 10.986,-4.207 12.811,-10.887 14.428,-18.014 7.368,-1.526 13.561,-4.93 18.501,-10.198 1.394,0.474 2.808,1 4.262,1.556 6.636,2.527 14.153,5.386 23.096,3.385 7.541,-1.688 14.271,-6.69 20.582,-15.291 l 0.586,-0.801 c 5.326,-7.269 5.326,-7.269 11.346,-8.208 l 5.023,-0.834 c 19.032,-3.471 46.24,-25.157 52.79,-47.921 0.984,-3.418 1.473,-6.737 1.473,-9.933 0,-6.908 -2.396,-13.201 -6.896,-18.714 0.73,-0.063 3.645,-0.309 3.645,-0.309 l 0.557,-2.082 c 0,0 0.261,-9.976 0.313,-12.033 4.651,-0.365 9.22,-2.456 13.609,-6.425 10.702,-9.682 18.637,-29.321 19.063,-40.889 0.015,-0.451 0.023,-0.906 0.023,-1.361 -0.004,-9.377 -3.531,-19.467 -10.014,-28.561 z M 43.489,102.531 C 34.113,101.028 22.919,97.496 22.842,89.222 v -0.047 c 0,-5.485 9.083,-8.383 15.721,-10.497 l 4.145,-1.38 c 26.927,-9.867 70.947,-25.921 95.966,-3.85 -2.48,1.532 -4.558,3.85 -5.988,6.851 -1.058,2.214 -1.678,4.628 -1.9,7.07 -0.187,0.825 -0.286,1.668 -0.286,2.522 0,1.294 0.292,2.617 0.764,3.94 0.184,0.749 0.392,1.489 0.641,2.214 -5.141,0.152 -10.45,2.522 -15.586,7.093 -7.526,6.7 -13.321,16.813 -15.356,25.878 C 83.28,115.361 62.025,105.509 43.489,102.531 z m 207.71,298.843 c -10.146,3.878 -23.313,5.447 -39.128,4.655 l -3.046,-0.133 c -10.422,-0.427 -23.394,-0.958 -27.751,-9.412 -1.38,-2.673 -2.295,-5.229 -3.137,-7.713 8.359,1.365 17.567,-1.29 26.132,-3.766 l 4.542,-1.407 c 6.121,-1.968 12.451,-3.997 18.51,-2.939 3.835,0.668 7.112,2.114 10.578,3.646 4.045,1.786 8.229,3.631 13.401,4.19 3.851,0.412 7.478,0.455 10.898,0.161 -1.374,5.577 -3.219,9.74 -10.999,12.718 z m 33.234,-25.665 c -7.667,8.401 -18.726,11.892 -32.874,10.374 -4.799,-0.518 -8.805,-2.286 -12.679,-3.997 -3.991,-1.764 -9.814,-2.527 -12.5,-6.284 -2.492,-3.485 -2.064,-9.047 -0.474,-12.807 -3.26,2.219 -3.943,1.887 -6.275,-1 2.992,3.702 1.23,12.339 -0.192,16.313 -3.838,0.583 -7.641,1.782 -11.37,2.977 l -4.473,1.39 c -17.986,5.191 -31.435,7.681 -40.671,-7.648 -27.14,-45.061 6.671,-119.344 30.928,-156.132 l 4.694,-7.899 c 2.792,-1.337 5.524,-2.921 8.08,-4.718 5.813,-4.086 9.708,-8.714 11.483,-13.328 10.889,7.045 23.93,11.033 34.375,6.05 3.403,4.3 5.448,9.369 7.676,14.911 l 2.878,6.88 c 6.104,13.603 9.687,28.344 13.152,42.601 2.343,9.649 4.766,19.625 7.956,29.183 l 0.892,2.67 c 3.231,9.663 6.574,19.653 8.563,29.543 4.218,20.969 0.793,40.006 -9.169,50.921 z M 430.455,219.017 c -0.344,9.359 -7.154,28.139 -17.465,37.465 -4.175,3.779 -8.403,5.558 -12.566,5.296 l -2.514,-0.16 c 0,0 -0.321,12.483 -0.377,14.536 -0.583,0.039 -1.315,0.081 -1.315,0.081 -1.026,0.156 -2.188,0.332 -2.821,0.208 l -8.491,-1.663 6.387,5.836 c 8.164,7.468 10.718,16.761 7.591,27.623 -5.982,20.786 -31.696,41.335 -48.997,44.488 l -4.897,0.815 c -7.705,1.199 -8.246,1.579 -14.517,10.132 l -0.585,0.797 c -5.661,7.719 -11.294,11.986 -17.729,13.428 -7.515,1.683 -13.729,-0.683 -20.307,-3.187 -0.908,-0.346 -1.821,-0.692 -2.74,-1.029 8.217,-11.777 10.81,-29.794 6.87,-49.376 -2.02,-10.037 -5.387,-20.103 -8.644,-29.833 l -0.892,-2.669 c -3.153,-9.464 -5.566,-19.388 -7.899,-28.988 -1.446,-5.948 -2.89,-11.899 -4.519,-17.799 -0.848,-3.065 -1.625,-6.22 -2.73,-9.208 -0.309,-0.837 -1.654,-5.284 -2.219,-5.497 6.424,2.432 14.356,-5.413 16.338,-10.97 0.697,-1.951 1.89,-5.983 1.255,-7.83 6.222,-1.486 11.671,-2.096 17.336,-5.348 1.561,-0.894 12.531,-9.206 10.669,-11.576 1.526,1.944 3.426,3.214 5.182,3.983 12.135,5.282 33.303,-3.233 45.47,-14.519 5.14,-4.767 10.175,-11.159 11.187,-18.327 0.918,-6.488 -2.598,-12.266 2.336,-18.307 -5.467,-2.48 -5.929,10.436 -6.229,13.157 -0.869,7.873 -4.809,14.556 -10.594,19.921 -11.962,11.09 -31.136,17.581 -40.229,13.622 -3.485,-1.517 -5.185,-4.433 -5.191,-8.904 0,0 -4.855,0.009 -4.855,0.047 0,13.669 -12.237,19.567 -22.721,20.463 -12.053,1.024 -25.295,-4.049 -27.286,-15.736 l -0.944,-5.533 -3.385,4.476 c -12.039,15.926 -33.113,2.708 -39.287,-1.721 l -3.257,-2.337 -0.56,3.973 c -0.607,4.295 -4.423,9.203 -10.479,13.456 -8.897,6.254 -20.862,9.876 -27.829,8.42 -4.308,-0.896 -6.934,-3.456 -9.72,-6.164 -2.29,-2.224 -4.659,-4.528 -7.987,-5.927 -2.561,-1.076 -5.462,-1.095 -8.271,-1.114 -2.769,-0.019 -5.633,-0.038 -6.735,-1.266 -0.905,-1.005 -0.907,-3.091 -0.749,-4.666 l 0.488,-4.865 -4.171,2.556 c -8.013,4.903 -19.498,5.813 -29.257,2.319 -9.386,-3.357 -17.541,-12.541 -20.292,-22.849 -1.642,-6.152 -0.958,-11.675 1.277,-17.524 1.307,-3.423 3.659,-8.892 0.999,-12.271 0.309,5.358 -3.957,9.196 -6.282,13.563 -2.754,5.17 -2.167,11.939 -0.686,17.488 3.195,11.963 12.358,22.232 23.348,26.163 9.928,3.556 21.029,3.101 29.939,-0.967 0.283,1.702 0.788,3.2 1.774,4.295 2.535,2.826 6.49,2.85 10.313,2.878 2.335,0.014 4.749,0.033 6.427,0.735 2.852,1.195 6.879,3.599 8.382,6.356 2.19,4.025 1.398,9.035 3.182,13.233 1.204,2.833 3.049,5.355 5.448,7.342 2.607,2.155 5.382,2.006 7.866,3.568 -2.62,8.909 -8.416,17.303 -12.188,25.831 -4.127,9.328 -7.778,18.877 -10.77,28.633 -5.778,18.818 -9.491,38.966 -7.15,58.679 0.545,4.577 1.427,9.115 2.726,13.539 0.417,1.422 3.357,12.064 4.798,12.114 -16.395,-0.564 -27.472,-1.418 -41.804,-7.938 l -3.786,-1.646 c -5.688,-2.408 -10.182,-4.31 -13.733,-9.492 -1.247,-1.943 -5.457,-12.669 -4.955,-14.85 -0.058,0.247 -0.438,0.773 -1.094,0.92 l -1.055,-4.741 C 74.858,338.538 60.681,327.054 53.227,315.012 43.044,298.567 42.631,278.823 52.219,267 l 1.479,-1.826 -1.776,-1.541 c -3.226,-2.793 -3.344,-7.927 -3.127,-10.738 0.575,-7.439 4.662,-15.975 8.925,-18.648 l 3.03,-1.896 -2.882,-2.115 C 38.573,216.064 43.927,185.899 55.21,169.575 c 0.859,-1.242 2.353,-2.76 3.935,-4.362 3.085,-3.129 6.275,-6.363 7.134,-9.781 0.87,-3.461 -0.126,-7.202 -1.094,-10.825 -0.721,-2.702 -1.465,-5.5 -1.323,-7.889 0.773,-12.887 6.24,-16.609 13.494,-19.848 7.184,3.706 14.115,7.987 20.57,12.858 3.247,2.452 2.952,2.639 2.979,6.178 0.026,3.506 1.381,6.863 3.605,9.594 -3.888,-4.774 0.782,-15.001 2.489,-19.764 2.548,-7.11 6.888,-13.935 12.546,-18.97 3.764,-3.352 9.541,-7.041 15.683,-5.6 l 5.973,1.403 -3.395,-5.111 c -7.35,-11.066 3.387,-23.812 15.277,-23.527 -2.775,-1.88 -6.044,-2.378 -9.313,-2.406 -2.444,-0.019 -2.233,0.422 -4.403,-0.787 -0.903,-0.502 -3.985,-3.933 -5.006,-3.625 2.953,-0.892 5.898,-1.688 8.8,-2.442 l 1.045,-0.271 0.499,-0.958 c 10.996,-21.132 37.475,-32.175 48.349,-35.939 12.1,-4.191 19.392,-2.186 31.16,3.897 l 1.545,0.801 1.254,-1.209 c 3.369,-3.252 12.169,-4.097 18.835,-1.807 2.404,0.825 6.524,2.774 7.064,6.558 l 0.69,4.822 3.435,-3.452 c 14.135,-14.2 38.714,-0.74 56.847,13.053 4.721,3.589 8.916,7.871 12.83,12.441 -2.197,3.362 -4.056,7.046 -4.617,10.778 0.167,-1.122 -5.688,-1.482 -6.418,-1.333 -2.063,0.422 -5.173,2.01 -6.965,3.153 -1.594,1.02 -2.738,2.401 -4.377,3.376 7.738,-3.163 13.494,-3.447 20.142,2.043 2.84,2.347 5.287,5.405 7.354,8.767 l -6.746,-4.95 c 1.967,2.584 4.58,4.703 7.151,6.771 0.401,0.322 0.804,0.645 1.203,0.972 3.951,7.454 6.139,15.846 6.527,21.412 l 0.224,3.191 3.011,-1.072 c 1.051,-0.37 2.091,-0.611 3.125,-0.787 1.133,0.204 2.61,0.2 4.579,0.138 0.644,-0.024 1.305,-0.042 1.959,-0.047 3.584,0.72 6.874,2.489 9.625,4.931 0.588,0.749 1.153,1.512 1.702,2.276 1.047,1.47 2.111,2.949 3.38,4.04 0.574,1.019 1.088,2.067 1.508,3.148 l 0.903,2.342 2.307,-0.981 c 5.054,-2.148 12.749,-3.826 17.169,0.469 -0.569,-2.222 -4.045,-4.746 -6.061,-5.579 -1.085,-0.45 -10.967,-0.495 -10.755,-0.05 -5.415,-11.393 -17.019,-17.623 -28.185,-15.224 -0.626,-4.561 -2.014,-9.701 -4.057,-14.708 l 0.612,0.451 c -0.278,-0.351 -0.556,-0.702 -0.852,-1.034 -2.954,-7.05 -7.224,-13.788 -12.593,-18.221 -1.036,-0.854 -2.099,-1.584 -3.172,-2.243 0.517,-6.339 5.813,-13.015 9.518,-17.667 11.974,-15.049 29.131,-28.723 44.88,-35.811 l 4.75,-2.2 c 9.099,-4.258 19.406,-9.084 23.856,-5.917 1.692,1.204 2.544,3.66 2.544,7.32 0,0.967 -0.06,2.025 -0.18,3.158 -0.622,5.917 -0.73,12.228 -0.833,18.335 -0.159,9.326 -0.32,18.975 -2.278,27.903 -1.261,5.761 -3.139,10.691 -5.741,15.078 -2.276,3.831 -5.164,6.624 -8.223,9.573 -3.247,3.139 -6.604,6.377 -9.055,10.915 -1.157,2.143 -1.831,4.779 -2.542,7.572 -0.924,3.613 -1.882,7.307 -3.926,9.777 l 1.944,1.427 c 2.133,-2.646 3.2,-6.226 4.084,-9.649 1.456,0.787 2.906,1.622 4.341,2.584 7.2,4.851 20.813,20.16 20.813,31.426 0,0.208 -0.008,0.417 -0.017,0.626 -0.194,4.206 -2.352,7.373 -6.595,9.691 l -4.06,2.219 3.583,1.702 c 0,0 0.457,0.228 0.912,0.459 -0.92,2.774 -1.816,4.728 -4.357,6.681 l -3.574,2.745 4.258,1.474 c 8.443,2.921 16.776,9.497 22.867,18.037 5.898,8.273 9.107,17.363 9.107,25.731 0.005,0.4 -0.002,0.798 -0.018,1.192 z"
   id="path3769"
   inkscape:connector-curvature="0" />
	<path
   d="m 242.02,323.549 c -2.974,0.379 -5.688,1.162 -8.312,1.911 -4.509,1.294 -8.77,2.518 -14.101,1.697 l -2.826,-0.45 c -9.767,-1.589 -21.919,-3.561 -28.927,2.773 -7.269,6.569 -4.85,19.39 2.842,24.852 -3.155,-4.179 -4.749,-7.962 -3.89,-13.299 0.905,-5.647 3.305,-9.462 8.952,-10.347 6.903,-1.082 13.366,-0.306 20.243,0.813 l 2.867,0.455 c 6.386,0.986 11.365,-0.445 16.18,-1.825 2.563,-0.735 4.982,-1.432 7.588,-1.764 5.548,-0.713 13.582,2.303 17.941,5.663 5.709,4.405 2.557,13.729 -0.905,18.482 2.184,-1.707 4.509,-3.618 6.088,-6.007 8.993,-13.592 -12.56,-24.386 -23.74,-22.954 z"
   id="path3771"
   inkscape:connector-curvature="0"
   style="fill:#b72025" />
</g>
</svg>