<?xml version="1.0" encoding="UTF-8" standalone="no"?>
<!-- Generator: Adobe Illustrator 12.0.0, SVG Export Plug-In . SVG Version: 6.00 Build 51448)  -->

<svg
   xmlns:dc="http://purl.org/dc/elements/1.1/"
   xmlns:cc="http://creativecommons.org/ns#"
   xmlns:rdf="http://www.w3.org/1999/02/22-rdf-syntax-ns#"
   xmlns:svg="http://www.w3.org/2000/svg"
   xmlns="http://www.w3.org/2000/svg"
   xmlns:sodipodi="http://sodipodi.sourceforge.net/DTD/sodipodi-0.dtd"
   xmlns:inkscape="http://www.inkscape.org/namespaces/inkscape"
   version="1.1"
   id="Layer_1"
   width="11.11"
   height="11.11"
   viewBox="0 0 11.11 11.11"
   overflow="visible"
   enable-background="new 0 0 226.771 218.286"
   xml:space="preserve"
   inkscape:version="0.48.2 r9819"
   sodipodi:docname="player_cow_20.svg"
   style="overflow:visible"><metadata
   id="metadata3268"><rdf:RDF><cc:Work
       rdf:about=""><dc:format>image/svg+xml</dc:format><dc:type
         rdf:resource="http://purl.org/dc/dcmitype/StillImage" /><dc:title></dc:title></cc:Work></rdf:RDF></metadata><defs
   id="defs3266" /><sodipodi:namedview
   pagecolor="#ffffff"
   bordercolor="#666666"
   borderopacity="1"
   objecttolerance="10"
   gridtolerance="10"
   guidetolerance="10"
   inkscape:pageopacity="0"
   inkscape:pageshadow="2"
   inkscape:window-width="1440"
   inkscape:window-height="852"
   id="namedview3264"
   showgrid="false"
   inkscape:zoom="22.776235"
   inkscape:cx="3.6295141"
   inkscape:cy="7.3995255"
   inkscape:window-x="0"
   inkscape:window-y="0"
   inkscape:window-maximized="1"
   inkscape:current-layer="Layer_1" />
<g
   id="g3218"
   transform="matrix(0.04878403,0,0,0.04878403,-0.0070288,0.18901321)">
	<path
   d="M 92.504,174.033 C 77.711,167.637 63.572,154.754 55.88,140.713 42.794,116.831 36.308,84.063 49.799,59.207 57.696,44.658 70.358,32.739 85.282,25.555 c 7.211,-3.467 21.369,-21.701 29.291,-12.432 5.475,-2.417 12.483,-10.674 18.939,-7.795 4.339,1.937 4.789,7.131 7.729,10.354 2.923,3.204 7.59,5.516 11.141,7.948 10.092,6.908 20.619,13.448 28.411,23.069 11.346,14.014 17.633,31.523 17.633,49.586 0,18.097 -17.313,32.641 -15.987,50.315 0.301,4.01 5.36,9.792 4.836,14.103 -0.138,1.108 -0.53,2.337 -1.129,3.652 -4.334,9.526 -19.459,23.574 -25.555,29.149 -11.218,10.261 -25.103,18.231 -40.597,18.845 -16.227,0.642 -34.123,-8.594 -46.05,-19.301 -8.385,-7.529 -26.121,-20.767 -26.604,-33.099 -0.259,-6.595 5.46,-11.613 6.151,-18.404 3.648,3.597 9.379,8.942 11.506,12.483"
   id="path3220"
   inkscape:connector-curvature="0"
   style="fill:#ffffff" />
	<path
   d="M 176.646,131.085 C 196.923,130.94 199.073,103.992 197.278,88.852 194.907,68.836 183.257,49.449 167.04,37.45 138.405,16.262 126.099,53.606 127.854,75.906 c 2.014,25.59 20.111,55.381 48.792,55.179 z"
   id="path3222"
   inkscape:connector-curvature="0"
   style="fill:#666666" />
	<path
   d="M 92.504,174.033 C 77.711,167.637 63.572,154.754 55.88,140.713 42.794,116.831 36.308,84.063 49.799,59.207 54.202,51.095 60.074,43.801 67.014,37.718 c 6.083,-5.333 13.838,-7.97 19.592,-13.499 4.981,-4.789 10.402,-12.2 18.048,-12.19 2.691,0.002 5.191,1.79 7.904,1.343 2.654,-0.439 4.625,-2.75 6.898,-4 6.573,-3.611 15.958,-5.001 21.501,1.243 3.592,4.049 3.826,15.154 -4.151,12.937 2.938,1.133 6.186,-0.864 7.971,-3.184 2.427,1.993 5.795,3.37 8.485,5.018 3.118,1.917 6.647,3.033 9.756,5.113 7.069,4.732 13.313,10.479 18.556,17.174 10.853,13.863 16.852,30.963 16.852,48.611 0,18.097 -17.313,32.641 -15.987,50.315 0.301,4.01 5.36,9.792 4.836,14.103 -0.138,1.108 -0.53,2.337 -1.129,3.652 -4.334,9.526 -19.459,23.574 -25.555,29.149 -11.218,10.261 -25.103,18.231 -40.597,18.845 -16.227,0.642 -34.123,-8.594 -46.05,-19.301 -8.385,-7.529 -26.121,-20.767 -26.604,-33.099 -0.259,-6.595 5.46,-11.613 6.151,-18.404 3.648,3.597 9.379,8.942 11.506,12.483"
   id="path3224"
   inkscape:connector-curvature="0"
   style="fill:none;stroke:#000000;stroke-width:5.00099993" />
	<path
   d="m 73.279,129.18 c 3.456,-4.264 4.059,-13.721 0.781,-18.099 -7.597,-10.146 -12.822,2.22 -12.458,9.21 0.334,6.474 4.766,17.419 11.677,8.889 z"
   id="path3226"
   inkscape:connector-curvature="0"
   style="fill:#666666" />
	<path
   d="m 163.808,142.408 c -10.451,10.451 -22.663,32.787 0.208,36.606 23.794,3.976 16.835,-40.077 -3.089,-33.596"
   id="path3228"
   inkscape:connector-curvature="0"
   style="fill:#ffcccc;stroke:#af4357;stroke-width:5.00099993" />
	<path
   d="M 71.101,49.598 C 62.205,42.233 54.137,32.375 42.941,28.541 c -5.746,-1.97 -27.694,-7.46 -32.934,-2.972 -9.23,7.91 6.518,28.46 13.675,32.351 8.752,4.754 19.208,3.201 28.202,0.049 0.869,-1.218 -0.53,-0.176 -1.001,-0.752"
   id="path3230"
   inkscape:connector-curvature="0"
   style="fill:#ffffff;stroke:#000000;stroke-width:5.00099993" />
	<path
   d="m 156.136,35.901 c 9.245,-6.92 17.787,-16.373 29.156,-19.655 5.834,-1.688 28.026,-6.098 33.039,-1.357 8.833,8.349 -7.897,28.109 -15.24,31.642 -8.974,4.322 -19.34,2.261 -28.172,-1.328 -0.806,-1.263 0.539,-0.152 1.04,-0.704"
   id="path3232"
   inkscape:connector-curvature="0"
   style="fill:#666666;stroke:#000000;stroke-width:5.00099993" />
	<path
   d="m 181.209,39.657 c 2.898,8.623 19.423,2.771 23.877,-1.208 3.673,-3.287 9.624,-9.988 2.288,-11.226 -5.823,-0.982 -23.078,5.404 -26.309,11.614"
   id="path3234"
   inkscape:connector-curvature="0"
   style="fill:#ffcccc" />
	<path
   d="m 30.973,52.631 c 6.156,0.403 13.128,-2.042 8.791,-8.674 -2.754,-4.212 -10.452,-6.964 -14.828,-8.833 -3.223,-1.37 -11.191,-3.604 -11.809,0.652 -1.03,7.092 11.965,16.462 17.846,16.855 z"
   id="path3236"
   inkscape:connector-curvature="0"
   style="fill:#ffcccc" />
	
		<ellipse
   transform="matrix(0.5799,-0.8147,0.8147,0.5799,33.9913,133.6203)"
   cx="146.563"
   cy="33.849998"
   rx="7.323"
   ry="11.648"
   id="ellipse3238"
   sodipodi:cx="146.563"
   sodipodi:cy="33.849998"
   sodipodi:rx="7.323"
   sodipodi:ry="11.648"
   style="fill:#f9e0a0;stroke:#000000;stroke-width:4.81610012"
   d="m 153.886,33.849998 c 0,6.433013 -3.27862,11.648 -7.323,11.648 -4.04438,0 -7.323,-5.214987 -7.323,-11.648 0,-6.433012 3.27862,-11.647999 7.323,-11.647999 4.04438,0 7.323,5.214987 7.323,11.647999 z" />
	
		<ellipse
   transform="matrix(0.6319,0.7751,-0.7751,0.6319,61.6187,-50.9708)"
   cx="84.467003"
   cy="39.381001"
   rx="7.322"
   ry="11.649"
   id="ellipse3240"
   sodipodi:cx="84.467003"
   sodipodi:cy="39.381001"
   sodipodi:rx="7.322"
   sodipodi:ry="11.649"
   style="fill:#f9e0a0;stroke:#000000;stroke-width:4.81610012"
   d="m 91.789003,39.381001 c 0,6.433565 -3.278171,11.649 -7.322,11.649 -4.043829,0 -7.322,-5.215435 -7.322,-11.649 0,-6.433566 3.278171,-11.649001 7.322,-11.649001 4.043829,0 7.322,5.215435 7.322,11.649001 z" />
	<path
   d="m 130.231,90.61 c -3.912,13.726 -13.989,22.883 -22.512,20.454 -8.525,-2.43 -12.261,-15.526 -8.349,-29.25 3.91,-13.724 13.99,-22.881 22.512,-20.451 8.525,2.43 12.262,15.523 8.349,29.247 z"
   id="path3242"
   inkscape:connector-curvature="0"
   style="fill:#5cddf2" />
	<ellipse
   cx="154.108"
   cy="85.752998"
   rx="12.218"
   ry="9.8699999"
   id="ellipse3244"
   sodipodi:cx="154.108"
   sodipodi:cy="85.752998"
   sodipodi:rx="12.218"
   sodipodi:ry="9.8699999"
   style="fill:#5cddf2"
   d="m 166.326,85.752998 c 0,5.451051 -5.47018,9.87 -12.218,9.87 -6.74781,0 -12.218,-4.418949 -12.218,-9.87 0,-5.45105 5.47019,-9.87 12.218,-9.87 6.74782,0 12.218,4.41895 12.218,9.87 z" />
	<path
   d="m 163.305,162.512 c 2.2,-3.823 3.81,-7.597 3.106,-11.135 -2.745,-13.748 -29.481,14.168 -32.406,17.816 -6.599,8.236 -10.84,18.295 -10.052,28.995 1.319,17.975 19.196,21.73 31.247,9.951 4.669,-4.564 7.665,-11.224 5.27,-17.653 -1.707,-4.603 -5.682,-6.658 -5.105,-11.979 0.551,-5.074 4.831,-10.586 7.94,-15.995 z"
   id="path3246"
   inkscape:connector-curvature="0"
   style="fill:#cc1111;stroke:#4f0909;stroke-width:2.50049996" />
	<path
   d="m 150.016,161.945 c -4.842,6.703 -10.163,11.785 -11.654,20.425 -0.953,5.504 -2.164,15.904 2.07,20.419"
   id="path3248"
   inkscape:connector-curvature="0"
   style="fill:none;stroke:#4f0909;stroke-width:2.50049996" />
	<path
   d="m 208.5,134.12 c 1.316,9.729 -1.346,25.33 -11.553,28.847 -9.325,3.216 -19.948,-3.549 -29.449,-3.17 -9.702,0.386 -18.163,8.796 -28.077,7.057 -9.819,-1.721 -15.636,-12.102 -16.854,-21.112 -2.666,-19.716 14.41,-38.299 38.141,-41.508 23.727,-3.21 45.125,10.17 47.792,29.886 z"
   id="path3250"
   inkscape:connector-curvature="0"
   style="fill:#ffcccc;stroke:#af4357;stroke-width:5.00099993" />
	<path
   d="m 134.573,141.36 c 6.288,2.368 21.994,-3.904 19.104,-12.954 -2.892,-9.053 -14.586,1.775 -5.063,3.074 -0.217,4.388 -3.567,8.093 -8.205,9.047"
   id="path3252"
   inkscape:connector-curvature="0" />
	<path
   d="m 198.188,140.066 c -6.287,2.368 -21.994,-3.905 -19.103,-12.955 2.891,-9.052 14.585,1.775 5.062,3.075 0.218,4.388 3.568,8.092 8.205,9.047"
   id="path3254"
   inkscape:connector-curvature="0" />
	<path
   d="m 122.486,88.117 c -1.964,6.894 -7.025,11.492 -11.307,10.271 -4.278,-1.221 -6.156,-7.797 -4.19,-14.688 1.96,-6.891 7.023,-11.489 11.303,-10.268 4.282,1.217 6.16,7.794 4.194,14.685 z"
   id="path3256"
   inkscape:connector-curvature="0" />
	<ellipse
   cx="154.106"
   cy="85.752998"
   rx="6.4809999"
   ry="5.2350001"
   id="ellipse3258"
   sodipodi:cx="154.106"
   sodipodi:cy="85.752998"
   sodipodi:rx="6.4809999"
   sodipodi:ry="5.2350001"
   d="m 160.587,85.752998 c 0,2.891211 -2.90164,5.235 -6.481,5.235 -3.57935,0 -6.481,-2.343789 -6.481,-5.235 0,-2.89121 2.90165,-5.235 6.481,-5.235 3.57936,0 6.481,2.34379 6.481,5.235 z" />
	<ellipse
   cx="111.182"
   cy="72.330002"
   rx="3.2920001"
   ry="3.543"
   id="ellipse3260"
   sodipodi:cx="111.182"
   sodipodi:cy="72.330002"
   sodipodi:rx="3.2920001"
   sodipodi:ry="3.543"
   style="fill:#ffffff"
   d="m 114.474,72.330002 c 0,1.956745 -1.47388,3.543 -3.292,3.543 -1.81812,0 -3.292,-1.586255 -3.292,-3.543 0,-1.956745 1.47388,-3.543 3.292,-3.543 1.81812,0 3.292,1.586255 3.292,3.543 z" />
	<ellipse
   cx="148.498"
   cy="81.799004"
   rx="2.9159999"
   ry="2.6300001"
   id="ellipse3262"
   sodipodi:cx="148.498"
   sodipodi:cy="81.799004"
   sodipodi:rx="2.9159999"
   sodipodi:ry="2.6300001"
   style="fill:#ffffff"
   d="m 151.414,81.799004 c 0,1.452509 -1.30554,2.63 -2.916,2.63 -1.61046,0 -2.916,-1.177491 -2.916,-2.63 0,-1.452509 1.30554,-2.630001 2.916,-2.630001 1.61046,0 2.916,1.177492 2.916,2.630001 z" />
</g>
</svg>