<?xml version="1.0" encoding="utf-8"?>
<!-- Generator: Adobe Illustrator 12.0.0, SVG Export Plug-In . SVG Version: 6.00 Build 51448)  -->
<!DOCTYPE svg PUBLIC "-//W3C//DTD SVG 1.1//EN" "http://www.w3.org/Graphics/SVG/1.1/DTD/svg11.dtd" [
	<!ENTITY ns_svg "http://www.w3.org/2000/svg">
	<!ENTITY ns_xlink "http://www.w3.org/1999/xlink">
]>
<svg  version="1.1" id="Layer_1" xmlns="&ns_svg;" xmlns:xlink="&ns_xlink;" width="226.771" height="218.286"
	 viewBox="0 0 226.771 218.286" overflow="visible" enable-background="new 0 0 226.771 218.286" xml:space="preserve">
<g>
	<path fill="#FFFFFF" d="M92.504,174.033c-14.793-6.396-28.932-19.279-36.624-33.32c-13.086-23.882-19.572-56.65-6.081-81.506
		c7.897-14.549,20.559-26.468,35.483-33.652c7.211-3.467,21.369-21.701,29.291-12.432c5.475-2.417,12.483-10.674,18.939-7.795
		c4.339,1.937,4.789,7.131,7.729,10.354c2.923,3.204,7.59,5.516,11.141,7.948c10.092,6.908,20.619,13.448,28.411,23.069
		c11.346,14.014,17.633,31.523,17.633,49.586c0,18.097-17.313,32.641-15.987,50.315c0.301,4.01,5.36,9.792,4.836,14.103
		c-0.138,1.108-0.53,2.337-1.129,3.652c-4.334,9.526-19.459,23.574-25.555,29.149c-11.218,10.261-25.103,18.231-40.597,18.845
		c-16.227,0.642-34.123-8.594-46.05-19.301c-8.385-7.529-26.121-20.767-26.604-33.099c-0.259-6.595,5.46-11.613,6.151-18.404
		c3.648,3.597,9.379,8.942,11.506,12.483"/>
	<path fill="#666666" d="M176.646,131.085c20.277-0.145,22.427-27.093,20.632-42.233c-2.371-20.016-14.021-39.403-30.238-51.402
		c-28.635-21.188-40.941,16.156-39.186,38.456C129.868,101.496,147.965,131.287,176.646,131.085z"/>
	<path fill="none" stroke="#000000" stroke-width="5.001" d="M92.504,174.033c-14.793-6.396-28.932-19.279-36.624-33.32
		c-13.086-23.882-19.572-56.65-6.081-81.506c4.403-8.112,10.275-15.406,17.215-21.489c6.083-5.333,13.838-7.97,19.592-13.499
		c4.981-4.789,10.402-12.2,18.048-12.19c2.691,0.002,5.191,1.79,7.904,1.343c2.654-0.439,4.625-2.75,6.898-4
		c6.573-3.611,15.958-5.001,21.501,1.243c3.592,4.049,3.826,15.154-4.151,12.937c2.938,1.133,6.186-0.864,7.971-3.184
		c2.427,1.993,5.795,3.37,8.485,5.018c3.118,1.917,6.647,3.033,9.756,5.113c7.069,4.732,13.313,10.479,18.556,17.174
		c10.853,13.863,16.852,30.963,16.852,48.611c0,18.097-17.313,32.641-15.987,50.315c0.301,4.01,5.36,9.792,4.836,14.103
		c-0.138,1.108-0.53,2.337-1.129,3.652c-4.334,9.526-19.459,23.574-25.555,29.149c-11.218,10.261-25.103,18.231-40.597,18.845
		c-16.227,0.642-34.123-8.594-46.05-19.301c-8.385-7.529-26.121-20.767-26.604-33.099c-0.259-6.595,5.46-11.613,6.151-18.404
		c3.648,3.597,9.379,8.942,11.506,12.483"/>
	<path fill="#666666" d="M73.279,129.18c3.456-4.264,4.059-13.721,0.781-18.099c-7.597-10.146-12.822,2.22-12.458,9.21
		C61.936,126.765,66.368,137.71,73.279,129.18z"/>
	<path fill="#FFCCCC" stroke="#AF4357" stroke-width="5.001" d="M163.808,142.408c-10.451,10.451-22.663,32.787,0.208,36.606
		c23.794,3.976,16.835-40.077-3.089-33.596"/>
	<path fill="#FFFFFF" stroke="#000000" stroke-width="5.001" d="M71.101,49.598c-8.896-7.365-16.964-17.223-28.16-21.057
		c-5.746-1.97-27.694-7.46-32.934-2.972c-9.23,7.91,6.518,28.46,13.675,32.351c8.752,4.754,19.208,3.201,28.202,0.049
		c0.869-1.218-0.53-0.176-1.001-0.752"/>
	<path fill="#666666" stroke="#000000" stroke-width="5.001" d="M156.136,35.901c9.245-6.92,17.787-16.373,29.156-19.655
		c5.834-1.688,28.026-6.098,33.039-1.357c8.833,8.349-7.897,28.109-15.24,31.642c-8.974,4.322-19.34,2.261-28.172-1.328
		c-0.806-1.263,0.539-0.152,1.04-0.704"/>
	<path fill="#FFCCCC" d="M181.209,39.657c2.898,8.623,19.423,2.771,23.877-1.208c3.673-3.287,9.624-9.988,2.288-11.226
		c-5.823-0.982-23.078,5.404-26.309,11.614"/>
	<path fill="#FFCCCC" d="M30.973,52.631c6.156,0.403,13.128-2.042,8.791-8.674c-2.754-4.212-10.452-6.964-14.828-8.833
		c-3.223-1.37-11.191-3.604-11.809,0.652C12.097,42.868,25.092,52.238,30.973,52.631z"/>
	
		<ellipse transform="matrix(0.5799 -0.8147 0.8147 0.5799 33.9913 133.6203)" fill="#F9E0A0" stroke="#000000" stroke-width="4.8161" cx="146.563" cy="33.85" rx="7.323" ry="11.648"/>
	
		<ellipse transform="matrix(0.6319 0.7751 -0.7751 0.6319 61.6187 -50.9708)" fill="#F9E0A0" stroke="#000000" stroke-width="4.8161" cx="84.467" cy="39.381" rx="7.322" ry="11.649"/>
	<path fill="#5CDDF2" d="M130.231,90.61c-3.912,13.726-13.989,22.883-22.512,20.454c-8.525-2.43-12.261-15.526-8.349-29.25
		c3.91-13.724,13.99-22.881,22.512-20.451C130.407,63.793,134.144,76.886,130.231,90.61z"/>
	<ellipse fill="#5CDDF2" cx="154.108" cy="85.753" rx="12.218" ry="9.87"/>
	<path fill="#CC1111" stroke="#4F0909" stroke-width="2.5005" d="M163.305,162.512c2.2-3.823,3.81-7.597,3.106-11.135
		c-2.745-13.748-29.481,14.168-32.406,17.816c-6.599,8.236-10.84,18.295-10.052,28.995c1.319,17.975,19.196,21.73,31.247,9.951
		c4.669-4.564,7.665-11.224,5.27-17.653c-1.707-4.603-5.682-6.658-5.105-11.979C155.916,173.433,160.196,167.921,163.305,162.512z"
		/>
	<path fill="none" stroke="#4F0909" stroke-width="2.5005" d="M150.016,161.945c-4.842,6.703-10.163,11.785-11.654,20.425
		c-0.953,5.504-2.164,15.904,2.07,20.419"/>
	<path fill="#FFCCCC" stroke="#AF4357" stroke-width="5.001" d="M208.5,134.12c1.316,9.729-1.346,25.33-11.553,28.847
		c-9.325,3.216-19.948-3.549-29.449-3.17c-9.702,0.386-18.163,8.796-28.077,7.057c-9.819-1.721-15.636-12.102-16.854-21.112
		c-2.666-19.716,14.41-38.299,38.141-41.508C184.435,101.024,205.833,114.404,208.5,134.12z"/>
	<path d="M134.573,141.36c6.288,2.368,21.994-3.904,19.104-12.954c-2.892-9.053-14.586,1.775-5.063,3.074
		c-0.217,4.388-3.567,8.093-8.205,9.047"/>
	<path d="M198.188,140.066c-6.287,2.368-21.994-3.905-19.103-12.955c2.891-9.052,14.585,1.775,5.062,3.075
		c0.218,4.388,3.568,8.092,8.205,9.047"/>
	<path d="M122.486,88.117c-1.964,6.894-7.025,11.492-11.307,10.271c-4.278-1.221-6.156-7.797-4.19-14.688
		c1.96-6.891,7.023-11.489,11.303-10.268C122.574,74.649,124.452,81.226,122.486,88.117z"/>
	<ellipse cx="154.106" cy="85.753" rx="6.481" ry="5.235"/>
	<ellipse fill="#FFFFFF" cx="111.182" cy="72.33" rx="3.292" ry="3.543"/>
	<ellipse fill="#FFFFFF" cx="148.498" cy="81.799" rx="2.916" ry="2.63"/>
</g>
</svg>
