<?xml version="1.0" encoding="utf-8"?>
<!-- Generator: Adobe Illustrator 12.0.0, SVG Export Plug-In . SVG Version: 6.00 Build 51448)  -->
<!DOCTYPE svg PUBLIC "-//W3C//DTD SVG 1.1//EN" "http://www.w3.org/Graphics/SVG/1.1/DTD/svg11.dtd" [
	<!ENTITY ns_svg "http://www.w3.org/2000/svg">
	<!ENTITY ns_xlink "http://www.w3.org/1999/xlink">
]>
<svg  version="1.1" id="Layer_1" xmlns="&ns_svg;" xmlns:xlink="&ns_xlink;" width="189.534" height="223.86"
	 viewBox="0 0 189.534 223.86" overflow="visible" enable-background="new 0 0 189.534 223.86" xml:space="preserve">
<g>
	<path fill="#8499AE" stroke="#000000" stroke-width="3.6734" d="M169.917,22.745c-3.784-6.064-25.644,17.216-28.39,20.403
		c-3.688,4.278-22.988,27.598-13.391,33.405c1.466,0.888,8.382,0.253,10.126-0.167c12.299-2.963,23-20.832,29.125-30.385
		c3.243-5.055,27.18-44.724,7.672-42.078c-10.498,1.422-21.763,11.169-29.131,17.822c-8.258,7.453-17.969,16.599-23.092,26.638
		c-4.653,9.121-10.98,17.617-10.317,28.544"/>
	<path fill="#8499AE" stroke="#000000" stroke-width="3.6734" d="M82.672,90.704c-6.077-10.758-8.561-22.114-16.568-31.909
		C55.796,46.183,45.667,33.95,32.166,24.347c-3.957-2.816-16.389-10.436-21.779-5.144c-8.421,8.267,10.617,35.05,14.89,40.749
		c7.247,9.659,15.811,18.489,26.184,24.711c4.02,2.413,7.323,5.539,11.244,8.05c1.155,0.741,15.333,5.212,14.852,2.508
		c-2.196-12.34-11.444-21.047-19.623-29.644c-9.076-9.539-17.506-18.167-28.526-25.841"/>
	<path fill="#8499AE" stroke="#000000" stroke-width="3.5397" d="M63,129.227c-11.975,17.386-19.479,31.646-6.253,51.959
		c7.534,11.569,17.117,22.039,28.189,29.66c3.803,2.617,11.479,9.284,16.258,9.524c8.477,0.427,21.538-12.005,27.945-16.735
		c7.584-5.596,16.322-11.658,22.35-19.313c10.078-12.808,8.627-29.103,4.168-44.074"/>
	<path fill="#8499AE" stroke="#000000" stroke-width="3.5576" d="M75.609,178.463c-13.582-4.056-20.595-10.778-25.323-26.084
		c-6.841-22.149-1.418-44.013,8.19-64.132c8.669-18.152,28.485-26.109,46.993-26.109c29.127,0,54.02,21.877,61.313,51.877
		c2.98,12.261,4.247,27.927-0.07,39.991c-3.209,8.965-14.627,21.474-24.492,20.172"/>
	<g>
		<path fill="#FFCFCE" stroke="#000000" stroke-width="3.6734" d="M149.382,168.151c0.386-18.129-8.751-39.987-25.245-48.709
			c-45.321-23.966-75.198,82.842-9.564,80.532C133.538,199.307,148.97,187.518,149.382,168.151z"/>
		<path d="M90.346,145.757c-2.877,0.325-5.316,3.383-4.33,6.472c1.216,3.818,2.585,1.121,4.678,2.714
			c3.698,2.816,6.827,4.221,8.868,8.965c-0.079-5.302-3.008-17.818-9.829-17.539"/>
		<path d="M133.202,144.532c-5.801,1.711-8.198,12.672-5.646,17.09C128.268,157.434,145.613,147.321,133.202,144.532"/>
		<path d="M102.969,175.44c7.505,2.993,12.004,3.104,19.021,0.321c3.394-1.348,14.571-7.765,17.688-2.945
			c3.761,5.82-14.016,15.311-18.319,16.358c-8.625,2.102-19.268-1.8-26.04-7.267c-1.758-1.419-7.731-7.63-6.606-10.183
			C90.367,167.966,100.27,174.362,102.969,175.44z"/>
		<path fill="#FFFFFF" stroke="#000000" stroke-width="3.6734" d="M124.802,188.764c0.274-0.201,0.466-0.358,0.553-0.455
			c2.717-3.02,5.892-9.541,5.323-13.552c-4.982,4.983-18.11,2.585-24.833,2.443c-4.938-0.103-5.423-2.842-6.531,2.731
			c-0.552,2.766,2.077,7.501,3.726,9.563c2.829,3.539,4.486,3.553,9.239,3.923c0.703-3.738,0.992-7.781,1.808-11.38
			c0.694,3.622-0.502,7.155-0.384,10.765C113.792,195.567,122.413,190.515,124.802,188.764z"/>
	</g>
	<path fill="#8C5D29" stroke="#000000" stroke-width="3.6734" stroke-linejoin="round" d="M98.256,74.55
		c-0.262-0.411-0.57-0.841-0.937-1.292c4.449,2.133,15.049,7.159,18.837,0.521c2.105-3.713-0.424-7.67-3.783-9.541
		c7.481-9.614-9.741-14.163-16.65-14.475c-10.102-0.456-19.644,4.705-23.811,14.091c-5.306,11.957,5.342,27.243,10.479,8.558
		C85.628,82.842,103.841,83.393,98.256,74.55z"/>
	<g>
		<circle fill="#FF7F00" cx="80.083" cy="103.938" r="10.621"/>
		<circle cx="80.084" cy="103.938" r="6.471"/>
		<path fill="#FFFFFF" d="M80.084,100.182c0,2.075-1.681,3.756-3.757,3.756c-2.07,0-3.754-1.681-3.754-3.756
			c0-2.07,1.684-3.754,3.754-3.754C78.403,96.427,80.084,98.111,80.084,100.182z"/>
		<ellipse fill="#FFFFFF" cx="78.205" cy="109.024" rx="1.879" ry="2.071"/>
	</g>
	<g>
		<circle fill="#FF7F00" cx="137.628" cy="101.177" r="10.622"/>
		<circle cx="137.628" cy="101.177" r="6.472"/>
		<path fill="#FFFFFF" d="M137.628,97.421c0,2.075-1.681,3.756-3.758,3.756c-2.069,0-3.754-1.681-3.754-3.756
			c0-2.07,1.685-3.754,3.754-3.754C135.948,93.667,137.628,95.351,137.628,97.421z"/>
		<ellipse fill="#FFFFFF" cx="135.75" cy="106.264" rx="1.879" ry="2.072"/>
	</g>
	<path fill="none" stroke="#000000" stroke-width="5.5102" stroke-linecap="round" stroke-linejoin="round" d="M69.815,95.755
		c3.958-4.486,10.974-0.657,14.929,1.867c1.524,0.972,8.163,7.219,8.949,2.725"/>
	<path fill="none" stroke="#000000" stroke-width="5.5102" stroke-linecap="round" stroke-linejoin="round" d="M124.917,99.887
		c6.458-1.812,10.669-14.966,19.286-11.479"/>
	<path fill="none" stroke="#000000" stroke-width="3.6734" stroke-linecap="round" stroke-linejoin="round" d="M72.111,114.581
		c4.291-0.886,8.15-1.851,11.938,0"/>
	<path fill="none" stroke="#000000" stroke-width="3.6734" stroke-linecap="round" stroke-linejoin="round" d="M134.101,112.285
		c3.81-0.195,7.99-4.935,11.479-2.296"/>
</g>
</svg>
