<?xml version="1.0" encoding="UTF-8" standalone="no"?>
<!-- Generator: Adobe Illustrator 12.0.0, SVG Export Plug-In . SVG Version: 6.00 Build 51448)  -->

<svg
   xmlns:dc="http://purl.org/dc/elements/1.1/"
   xmlns:cc="http://creativecommons.org/ns#"
   xmlns:rdf="http://www.w3.org/1999/02/22-rdf-syntax-ns#"
   xmlns:svg="http://www.w3.org/2000/svg"
   xmlns="http://www.w3.org/2000/svg"
   xmlns:sodipodi="http://sodipodi.sourceforge.net/DTD/sodipodi-0.dtd"
   xmlns:inkscape="http://www.inkscape.org/namespaces/inkscape"
   version="1.1"
   id="Layer_1"
   width="100"
   height="100"
   viewBox="0 0 100 100"
   overflow="visible"
   enable-background="new 0 0 189.534 223.86"
   xml:space="preserve"
   inkscape:version="0.48.2 r9819"
   sodipodi:docname="player_donkey.svg"
   style="overflow:visible"><metadata
   id="metadata59"><rdf:RDF><cc:Work
       rdf:about=""><dc:format>image/svg+xml</dc:format><dc:type
         rdf:resource="http://purl.org/dc/dcmitype/StillImage" /></cc:Work></rdf:RDF></metadata><defs
   id="defs57" /><sodipodi:namedview
   pagecolor="#ffffff"
   bordercolor="#666666"
   borderopacity="1"
   objecttolerance="10"
   gridtolerance="10"
   guidetolerance="10"
   inkscape:pageopacity="0"
   inkscape:pageshadow="2"
   inkscape:window-width="1440"
   inkscape:window-height="852"
   id="namedview55"
   showgrid="false"
   inkscape:zoom="3.365018"
   inkscape:cx="46.38335"
   inkscape:cy="56.913559"
   inkscape:window-x="0"
   inkscape:window-y="0"
   inkscape:window-maximized="1"
   inkscape:current-layer="Layer_1" />
<g
   id="g3"
   transform="matrix(0.4408604,0,0,0.4408604,7.9201438,0.59931512)">
	<path
   d="m 169.917,22.745 c -3.784,-6.064 -25.644,17.216 -28.39,20.403 -3.688,4.278 -22.988,27.598 -13.391,33.405 1.466,0.888 8.382,0.253 10.126,-0.167 12.299,-2.963 23,-20.832 29.125,-30.385 3.243,-5.055 27.18,-44.724 7.672,-42.078 -10.498,1.422 -21.763,11.169 -29.131,17.822 -8.258,7.453 -17.969,16.599 -23.092,26.638 -4.653,9.121 -10.98,17.617 -10.317,28.544"
   id="path5"
   inkscape:connector-curvature="0"
   style="fill:#8499ae;stroke:#000000;stroke-width:3.67339993" />
	<path
   d="M 82.672,90.704 C 76.595,79.946 74.111,68.59 66.104,58.795 55.796,46.183 45.667,33.95 32.166,24.347 28.209,21.531 15.777,13.911 10.387,19.203 c -8.421,8.267 10.617,35.05 14.89,40.749 7.247,9.659 15.811,18.489 26.184,24.711 4.02,2.413 7.323,5.539 11.244,8.05 1.155,0.741 15.333,5.212 14.852,2.508 C 75.361,82.881 66.113,74.174 57.934,65.577 48.858,56.038 40.428,47.41 29.408,39.736"
   id="path7"
   inkscape:connector-curvature="0"
   style="fill:#8499ae;stroke:#000000;stroke-width:3.67339993" />
	<path
   d="m 63,129.227 c -11.975,17.386 -19.479,31.646 -6.253,51.959 7.534,11.569 17.117,22.039 28.189,29.66 3.803,2.617 11.479,9.284 16.258,9.524 8.477,0.427 21.538,-12.005 27.945,-16.735 7.584,-5.596 16.322,-11.658 22.35,-19.313 10.078,-12.808 8.627,-29.103 4.168,-44.074"
   id="path9"
   inkscape:connector-curvature="0"
   style="fill:#8499ae;stroke:#000000;stroke-width:3.53970003" />
	<path
   d="M 75.609,178.463 C 62.027,174.407 55.014,167.685 50.286,152.379 43.445,130.23 48.868,108.366 58.476,88.247 67.145,70.095 86.961,62.138 105.469,62.138 c 29.127,0 54.02,21.877 61.313,51.877 2.98,12.261 4.247,27.927 -0.07,39.991 -3.209,8.965 -14.627,21.474 -24.492,20.172"
   id="path11"
   inkscape:connector-curvature="0"
   style="fill:#8499ae;stroke:#000000;stroke-width:3.55760002" />
	<g
   id="g13">
		<path
   d="m 149.382,168.151 c 0.386,-18.129 -8.751,-39.987 -25.245,-48.709 -45.321,-23.966 -75.198,82.842 -9.564,80.532 18.965,-0.667 34.397,-12.456 34.809,-31.823 z"
   id="path15"
   inkscape:connector-curvature="0"
   style="fill:#ffcfce;stroke:#000000;stroke-width:3.67339993" />
		<path
   d="m 90.346,145.757 c -2.877,0.325 -5.316,3.383 -4.33,6.472 1.216,3.818 2.585,1.121 4.678,2.714 3.698,2.816 6.827,4.221 8.868,8.965 -0.079,-5.302 -3.008,-17.818 -9.829,-17.539"
   id="path17"
   inkscape:connector-curvature="0" />
		<path
   d="m 133.202,144.532 c -5.801,1.711 -8.198,12.672 -5.646,17.09 0.712,-4.188 18.057,-14.301 5.646,-17.09"
   id="path19"
   inkscape:connector-curvature="0" />
		<path
   d="m 102.969,175.44 c 7.505,2.993 12.004,3.104 19.021,0.321 3.394,-1.348 14.571,-7.765 17.688,-2.945 3.761,5.82 -14.016,15.311 -18.319,16.358 -8.625,2.102 -19.268,-1.8 -26.04,-7.267 -1.758,-1.419 -7.731,-7.63 -6.606,-10.183 1.654,-3.758 11.557,2.638 14.256,3.716 z"
   id="path21"
   inkscape:connector-curvature="0" />
		<path
   d="m 124.802,188.764 c 0.274,-0.201 0.466,-0.358 0.553,-0.455 2.717,-3.02 5.892,-9.541 5.323,-13.552 -4.982,4.983 -18.11,2.585 -24.833,2.443 -4.938,-0.103 -5.423,-2.842 -6.531,2.731 -0.552,2.766 2.077,7.501 3.726,9.563 2.829,3.539 4.486,3.553 9.239,3.923 0.703,-3.738 0.992,-7.781 1.808,-11.38 0.694,3.622 -0.502,7.155 -0.384,10.765 0.089,2.765 8.71,-2.287 11.099,-4.038 z"
   id="path23"
   inkscape:connector-curvature="0"
   style="fill:#ffffff;stroke:#000000;stroke-width:3.67339993" />
	</g>
	<path
   d="m 98.256,74.55 c -0.262,-0.411 -0.57,-0.841 -0.937,-1.292 4.449,2.133 15.049,7.159 18.837,0.521 2.105,-3.713 -0.424,-7.67 -3.783,-9.541 7.481,-9.614 -9.741,-14.163 -16.65,-14.475 -10.102,-0.456 -19.644,4.705 -23.811,14.091 -5.306,11.957 5.342,27.243 10.479,8.558 3.237,10.43 21.45,10.981 15.865,2.138 z"
   id="path25"
   inkscape:connector-curvature="0"
   style="fill:#8c5d29;stroke:#000000;stroke-width:3.67339993;stroke-linejoin:round" />
	<g
   id="g27">
		<circle
   cx="80.083"
   cy="103.938"
   r="10.621"
   id="circle29"
   sodipodi:cx="80.083"
   sodipodi:cy="103.938"
   sodipodi:rx="10.621"
   sodipodi:ry="10.621"
   style="fill:#ff7f00"
   d="m 90.704,103.938 c 0,5.86582 -4.755183,10.621 -10.621,10.621 -5.865816,0 -10.621,-4.75518 -10.621,-10.621 0,-5.865813 4.755184,-10.620997 10.621,-10.620997 5.865817,0 10.621,4.755184 10.621,10.620997 z" />
		<circle
   cx="80.084"
   cy="103.938"
   r="6.4710002"
   id="circle31"
   sodipodi:cx="80.084"
   sodipodi:cy="103.938"
   sodipodi:rx="6.4710002"
   sodipodi:ry="6.4710002"
   d="m 86.555,103.938 c 0,3.57384 -2.897166,6.471 -6.471,6.471 -3.573835,0 -6.471001,-2.89716 -6.471001,-6.471 0,-3.57383 2.897166,-6.470997 6.471001,-6.470997 3.573834,0 6.471,2.897167 6.471,6.470997 z" />
		<path
   d="m 80.084,100.182 c 0,2.075 -1.681,3.756 -3.757,3.756 -2.07,0 -3.754,-1.681 -3.754,-3.756 0,-2.07 1.684,-3.754 3.754,-3.754 2.076,-10e-4 3.757,1.683 3.757,3.754 z"
   id="path33"
   inkscape:connector-curvature="0"
   style="fill:#ffffff" />
		<ellipse
   cx="78.205002"
   cy="109.024"
   rx="1.8789999"
   ry="2.0710001"
   id="ellipse35"
   sodipodi:cx="78.205002"
   sodipodi:cy="109.024"
   sodipodi:rx="1.8789999"
   sodipodi:ry="2.0710001"
   style="fill:#ffffff"
   d="m 80.084002,109.024 c 0,1.14378 -0.841257,2.071 -1.879,2.071 -1.037743,0 -1.879,-0.92722 -1.879,-2.071 0,-1.14378 0.841257,-2.071 1.879,-2.071 1.037743,0 1.879,0.92722 1.879,2.071 z" />
	</g>
	<g
   id="g37">
		<circle
   cx="137.62801"
   cy="101.177"
   r="10.622"
   id="circle39"
   sodipodi:cx="137.62801"
   sodipodi:cy="101.177"
   sodipodi:rx="10.622"
   sodipodi:ry="10.622"
   style="fill:#ff7f00"
   d="m 148.25001,101.177 c 0,5.86637 -4.75564,10.622 -10.622,10.622 -5.86637,0 -10.622,-4.75563 -10.622,-10.622 0,-5.866367 4.75563,-10.621998 10.622,-10.621998 5.86636,0 10.622,4.755631 10.622,10.621998 z" />
		<circle
   cx="137.62801"
   cy="101.177"
   r="6.4720001"
   id="circle41"
   sodipodi:cx="137.62801"
   sodipodi:cy="101.177"
   sodipodi:rx="6.4720001"
   sodipodi:ry="6.4720001"
   d="m 144.10001,101.177 c 0,3.57439 -2.89762,6.472 -6.472,6.472 -3.57439,0 -6.472,-2.89761 -6.472,-6.472 0,-3.574385 2.89761,-6.471998 6.472,-6.471998 3.57438,0 6.472,2.897613 6.472,6.471998 z" />
		<path
   d="m 137.628,97.421 c 0,2.075 -1.681,3.756 -3.758,3.756 -2.069,0 -3.754,-1.681 -3.754,-3.756 0,-2.07 1.685,-3.754 3.754,-3.754 2.078,0 3.758,1.684 3.758,3.754 z"
   id="path43"
   inkscape:connector-curvature="0"
   style="fill:#ffffff" />
		<ellipse
   cx="135.75"
   cy="106.264"
   rx="1.8789999"
   ry="2.072"
   id="ellipse45"
   sodipodi:cx="135.75"
   sodipodi:cy="106.264"
   sodipodi:rx="1.8789999"
   sodipodi:ry="2.072"
   style="fill:#ffffff"
   d="m 137.629,106.264 c 0,1.14433 -0.84126,2.072 -1.879,2.072 -1.03774,0 -1.879,-0.92767 -1.879,-2.072 0,-1.14433 0.84126,-2.072 1.879,-2.072 1.03774,0 1.879,0.92767 1.879,2.072 z" />
	</g>
	<path
   d="m 69.815,95.755 c 3.958,-4.486 10.974,-0.657 14.929,1.867 1.524,0.972 8.163,7.219 8.949,2.725"
   id="path47"
   inkscape:connector-curvature="0"
   style="fill:none;stroke:#000000;stroke-width:5.51020002;stroke-linecap:round;stroke-linejoin:round" />
	<path
   d="m 124.917,99.887 c 6.458,-1.812 10.669,-14.966 19.286,-11.479"
   id="path49"
   inkscape:connector-curvature="0"
   style="fill:none;stroke:#000000;stroke-width:5.51020002;stroke-linecap:round;stroke-linejoin:round" />
	<path
   d="m 72.111,114.581 c 4.291,-0.886 8.15,-1.851 11.938,0"
   id="path51"
   inkscape:connector-curvature="0"
   style="fill:none;stroke:#000000;stroke-width:3.67339993;stroke-linecap:round;stroke-linejoin:round" />
	<path
   d="m 134.101,112.285 c 3.81,-0.195 7.99,-4.935 11.479,-2.296"
   id="path53"
   inkscape:connector-curvature="0"
   style="fill:none;stroke:#000000;stroke-width:3.67339993;stroke-linecap:round;stroke-linejoin:round" />
</g>
</svg>