<?xml version="1.0" encoding="UTF-8" standalone="no"?>
<svg
   xmlns:dc="http://purl.org/dc/elements/1.1/"
   xmlns:cc="http://creativecommons.org/ns#"
   xmlns:rdf="http://www.w3.org/1999/02/22-rdf-syntax-ns#"
   xmlns:svg="http://www.w3.org/2000/svg"
   xmlns="http://www.w3.org/2000/svg"
   xmlns:xlink="http://www.w3.org/1999/xlink"
   xmlns:sodipodi="http://sodipodi.sourceforge.net/DTD/sodipodi-0.dtd"
   xmlns:inkscape="http://www.inkscape.org/namespaces/inkscape"
   id="svg2837"
   viewBox="0 0 11.11 11.11"
   version="1.1"
   inkscape:version="0.48.2 r9819"
   width="100%"
   height="100%"
   sodipodi:docname="profile_placeholder_small.svg">
  <sodipodi:namedview
     pagecolor="#ffffff"
     bordercolor="#666666"
     borderopacity="1"
     objecttolerance="10"
     gridtolerance="10"
     guidetolerance="10"
     inkscape:pageopacity="0"
     inkscape:pageshadow="2"
     inkscape:window-width="1440"
     inkscape:window-height="852"
     id="namedview12"
     showgrid="false"
     inkscape:zoom="10.488889"
     inkscape:cx="8.366491"
     inkscape:cy="12.711954"
     inkscape:window-x="0"
     inkscape:window-y="0"
     inkscape:window-maximized="1"
     inkscape:current-layer="svg2837" />
  <defs
     id="defs2841">
    <linearGradient
       id="linearGradient2972"
       y2="791.73999"
       gradientUnits="userSpaceOnUse"
       x2="197.48"
       gradientTransform="matrix(0.77826,0,0,3.8321,-257.2,-3317.8)"
       y1="744.77002"
       x1="197.48">
      <stop
         id="stop3688"
         stop-color="#b7b7b7"
         offset="0" />
      <stop
         id="stop3690"
         stop-color="#f2f2f2"
         offset="1" />
    </linearGradient>
    <linearGradient
       inkscape:collect="always"
       xlink:href="#linearGradient2972"
       id="linearGradient2993"
       gradientUnits="userSpaceOnUse"
       gradientTransform="matrix(0.62259326,0,0,3.0656074,-174.39248,-2460.4145)"
       x1="197.48"
       y1="744.77002"
       x2="197.48"
       y2="791.73999" />
  </defs>
  <path
     style="fill:#c8c8c8;fill-opacity:1"
     d="m 5.34825,0.14762934 c -0.636442,0.00355 -1.260916,0.095252 -1.8400945,0.3263565 -0.3348915,0.1336275 -0.616922,0.458373 -0.7846435,0.74645296 -0.02981,0.051211 -0.09383,0.1295225 -0.138875,0.1735935 -0.04505,0.044065 -0.090607,0.113429 -0.1041565,0.1562345 -0.013555,0.042805 -0.074014,0.150013 -0.131931,0.2360875 -0.057916,0.086069 -0.1041565,0.171474 -0.1041565,0.190953 0,0.01948 -0.0301,0.072446 -0.065965,0.118044 -0.046815,0.059513 -0.059083,0.106609 -0.045135,0.170122 0.01069,0.04867 0.00415,0.12965 -0.01389,0.1770655 -0.018025,0.047415 -0.03266,0.157145 -0.03472,0.246503 -0.00475,0.20737 -0.051845,0.3634455 -0.1319315,0.451344 -0.049525,0.054348 -0.056634,0.094301 -0.041665,0.187481 0.01118,0.06959 0.00511,0.1012715 -0.010415,0.076382 -0.019785,-0.031705 -0.038355,-0.013735 -0.076381,0.062493 -0.065935,0.132167 -0.066702,0.132633 0.027775,0.114572 l 0.079853,-0.013885 -0.00345,0.3159405 c -0.0028,0.1746985 0.0122,0.4452845 0.03472,0.6006349 0.051444,0.35488 0.04838,0.48735 -0.013885,0.600634 -0.158448,0.288275 -0.172905,0.344633 -0.173594,0.569388 -4.775e-4,0.1563 0.015045,0.269824 0.05555,0.361075 0.08303,0.187052 0.1736895,0.483519 0.2708065,0.885328 0.04585,0.189701 0.104071,0.392974 0.128459,0.451343 0.02439,0.05838 0.045135,0.129716 0.045135,0.159707 0,0.02998 0.04524,0.142469 0.1006845,0.249975 0.078035,0.151315 0.127666,0.21039 0.225672,0.26039 0.069636,0.03553 0.1434115,0.08754 0.163178,0.114572 0.030485,0.04169 0.04334,0.04301 0.086797,0.0069 0.028175,-0.02337 0.059566,-0.03801 0.065966,-0.03125 0.040095,0.04244 0.130483,0.31765 0.218728,0.656184 0.056242,0.215761 0.111091,0.411564 0.1215155,0.437456 0.011705,0.02908 -0.048965,0.138617 -0.159706,0.281222 -0.169019,0.217661 -0.192118,0.233373 -0.3992655,0.302053 -0.303927,0.10077 -0.82001,0.3431958 -0.840194,0.3957938 -0.00917,0.0239 -0.1235395,0.101674 -0.2569185,0.170122 -0.133379,0.06845 -0.319405,0.197547 -0.4131535,0.288165 -0.093748,0.09062 -0.18488,0.163179 -0.20136853,0.163179 -0.01649,0 -0.031245,0.02271 -0.031245,0.0486 0,0.02589 0.01748,0.04861 0.03819,0.04861 0.081337,0 0.013055,0.02951 -0.1111,0.05902 l 9.22130003,0 c -8e-4,-0.001 -0.0027,-0.0025 -0.0035,-0.0034 C 9.89411,10.700596 9.589225,10.464781 9.43464,10.441762 9.264848,10.416472 9.047403,10.265195 8.851365,10.035552 8.635403,9.7825712 8.631224,9.7166082 8.802755,9.3585372 8.952248,9.0464592 9.080023,8.5429572 9.104808,8.1642122 l 0.01736,-0.274278 0.131932,-0.03472 c 0.274028,-0.07221 0.558878,-0.305349 0.604106,-0.493006 0.01137,-0.04716 0.06411,-0.16628 0.114572,-0.267334 0.144515,-0.289476 0.213718,-0.681884 0.243031,-1.354032 0.01423,-0.326573 0.01444,-0.625162 0,-0.663128 -0.01444,-0.03797 -0.0736,-0.102884 -0.128459,-0.145818 l -0.09721,-0.07638 0.03819,-0.187481 c 0.02169,-0.10173 0.05884,-0.198667 0.08333,-0.218728 0.03822,-0.03131 0.03834,-0.051302 -0.0069,-0.1388754 -0.04341,-0.083954 -0.04603,-0.1230595 -0.01736,-0.218728 0.01916,-0.06393 0.03472,-0.171655 0.03472,-0.2395595 0,-0.067903 0.01518,-0.1401635 0.03472,-0.159706 0.05548,-0.055478 0.03804,-0.351227 -0.03125,-0.5416125 C 10.06395,2.9814423 10.02942,2.8355008 10.01449,2.6994818 10.01029,2.6618168 9.9702,2.5709503 9.92422,2.4981133 9.87824,2.4252803 9.83742,2.3562708 9.83742,2.3418788 c 0,-0.01439 -0.06207,-0.121568 -0.138875,-0.2360875 -0.128318,-0.191332 -0.132606,-0.207828 -0.07638,-0.225672 0.07057,-0.022395 0.08254,-0.1277485 0.01736,-0.1527625 -0.02423,-0.00934 -0.07415,-0.00967 -0.1111,0 -0.07584,0.01983 -0.239633,-0.1481775 -0.378434,-0.38885 -0.07812,-0.1354675 -0.5529,-0.51036546 -0.645769,-0.51036546 -0.02316,0 -0.09612,-0.0367 -0.159706,-0.079853 -0.06359,-0.043155 -0.111556,-0.049395 -0.16665,-0.076382 -0.13268,-0.064979 -0.252116,-0.167327 -0.395832,-0.201387 -0.780153,-0.184892 -1.615502,-0.32743 -2.433784,-0.3228845 z"
     id="path2863"
     inkscape:connector-curvature="0" />
  <metadata
     id="metadata10">
    <rdf:RDF>
      <cc:Work>
        <dc:format>image/svg+xml</dc:format>
        <dc:type
           rdf:resource="http://purl.org/dc/dcmitype/StillImage" />
        <cc:license
           rdf:resource="http://creativecommons.org/licenses/publicdomain/" />
        <dc:publisher>
          <cc:Agent
             rdf:about="http://openclipart.org/">
            <dc:title>Openclipart</dc:title>
          </cc:Agent>
        </dc:publisher>
        <dc:title></dc:title>
        <dc:date>2011-02-24T01:45:53</dc:date>
        <dc:description>clip art, clipart, default, gray, head, image, profile, silhouette, </dc:description>
        <dc:source>http://openclipart.org/detail/122107/default-profile-picture-by-dear_theophilus</dc:source>
        <dc:creator>
          <cc:Agent>
            <dc:title>dear_theophilus</dc:title>
          </cc:Agent>
        </dc:creator>
        <dc:subject>
          <rdf:Bag>
            <rdf:li>clip art</rdf:li>
            <rdf:li>clipart</rdf:li>
            <rdf:li>default</rdf:li>
            <rdf:li>gray</rdf:li>
            <rdf:li>head</rdf:li>
            <rdf:li>image</rdf:li>
            <rdf:li>profile</rdf:li>
            <rdf:li>silhouette</rdf:li>
          </rdf:Bag>
        </dc:subject>
      </cc:Work>
      <cc:License
         rdf:about="http://creativecommons.org/licenses/publicdomain/">
        <cc:permits
           rdf:resource="http://creativecommons.org/ns#Reproduction" />
        <cc:permits
           rdf:resource="http://creativecommons.org/ns#Distribution" />
        <cc:permits
           rdf:resource="http://creativecommons.org/ns#DerivativeWorks" />
      </cc:License>
    </rdf:RDF>
  </metadata>
</svg>
