<?xml version="1.0" encoding="UTF-8" standalone="no"?>
<svg
   xmlns:dc="http://purl.org/dc/elements/1.1/"
   xmlns:cc="http://creativecommons.org/ns#"
   xmlns:rdf="http://www.w3.org/1999/02/22-rdf-syntax-ns#"
   xmlns:svg="http://www.w3.org/2000/svg"
   xmlns="http://www.w3.org/2000/svg"
   xmlns:xlink="http://www.w3.org/1999/xlink"
   xmlns:sodipodi="http://sodipodi.sourceforge.net/DTD/sodipodi-0.dtd"
   xmlns:inkscape="http://www.inkscape.org/namespaces/inkscape"
   id="svg2837"
   viewBox="0 0 22.22 22.22"
   version="1.1"
   inkscape:version="0.48.2 r9819"
   width="100%"
   height="100%"
   sodipodi:docname="profile_placeholder_medium.svg">
  <sodipodi:namedview
     pagecolor="#ffffff"
     bordercolor="#666666"
     borderopacity="1"
     objecttolerance="10"
     gridtolerance="10"
     guidetolerance="10"
     inkscape:pageopacity="0"
     inkscape:pageshadow="2"
     inkscape:window-width="1440"
     inkscape:window-height="852"
     id="namedview12"
     showgrid="false"
     inkscape:zoom="10.488889"
     inkscape:cx="8.366491"
     inkscape:cy="12.711954"
     inkscape:window-x="0"
     inkscape:window-y="0"
     inkscape:window-maximized="1"
     inkscape:current-layer="svg2837" />
  <defs
     id="defs2841">
    <linearGradient
       id="linearGradient2972"
       y2="791.73999"
       gradientUnits="userSpaceOnUse"
       x2="197.48"
       gradientTransform="matrix(0.77826,0,0,3.8321,-257.2,-3317.8)"
       y1="744.77002"
       x1="197.48">
      <stop
         id="stop3688"
         stop-color="#b7b7b7"
         offset="0" />
      <stop
         id="stop3690"
         stop-color="#f2f2f2"
         offset="1" />
    </linearGradient>
    <linearGradient
       inkscape:collect="always"
       xlink:href="#linearGradient2972"
       id="linearGradient2993"
       gradientUnits="userSpaceOnUse"
       gradientTransform="matrix(0.62259326,0,0,3.0656074,-174.39248,-2460.4145)"
       x1="197.48"
       y1="744.77002"
       x2="197.48"
       y2="791.73999" />
  </defs>
  <path
     style="fill:#c8c8c8;fill-opacity:1"
     d="m 10.696447,0.29520759 c -1.2728845,0.0071 -2.5218316,0.190505 -3.6801886,0.652713 -0.669783,0.26725501 -1.233844,0.91674601 -1.569287,1.49290601 -0.05962,0.102423 -0.18766,0.259045 -0.27775,0.347187 -0.0901,0.08813 -0.181214,0.226858 -0.208313,0.312469 -0.02711,0.08561 -0.148027,0.300026 -0.263862,0.472175 -0.115831,0.172139 -0.208313,0.342948 -0.208313,0.381906 0,0.03896 -0.0602,0.144892 -0.131931,0.236088 -0.09363,0.119025 -0.118167,0.213218 -0.09027,0.340244 0.02138,0.09734 0.0083,0.2593 -0.02778,0.354131 -0.03605,0.09483 -0.06532,0.31429 -0.06944,0.493006 -0.0095,0.41474 -0.10369,0.726891 -0.263863,0.902688 -0.09905,0.108697 -0.113269,0.188603 -0.08333,0.374962 0.02236,0.139181 0.01023,0.202543 -0.02083,0.152763 -0.03957,-0.06341 -0.07671,-0.02747 -0.152762,0.124987 -0.13187,0.264334 -0.133405,0.265266 0.05555,0.229144 l 0.159706,-0.02777 -0.0069,0.631881 c -0.0056,0.349397 0.0244,0.890569 0.06944,1.201269 0.102888,0.709761 0.09676,0.974701 -0.02777,1.2012694 -0.316896,0.57655 -0.34581,0.689266 -0.347188,1.138775 -9.55e-4,0.312601 0.03009,0.539648 0.1111,0.72215 0.16606,0.374104 0.347379,0.967038 0.541613,1.770656 0.0917,0.379402 0.208142,0.785948 0.256918,0.902687 0.04878,0.116751 0.09027,0.259432 0.09027,0.319413 0,0.05997 0.09048,0.284938 0.201369,0.49995 0.156069,0.30263 0.255332,0.42078 0.451344,0.520781 0.139271,0.07106 0.286823,0.17508 0.326356,0.229144 0.06097,0.08338 0.08668,0.08602 0.173594,0.01389 0.05635,-0.04675 0.119132,-0.07602 0.131931,-0.06249 0.08019,0.08488 0.260966,0.635299 0.437456,1.312367 0.112484,0.431522 0.222182,0.823129 0.243031,0.874913 0.02341,0.05816 -0.09793,0.277234 -0.319412,0.562444 -0.338038,0.435321 -0.384236,0.466746 -0.798531,0.604106 -0.607854,0.20154 -1.64002,0.686391 -1.680388,0.791587 -0.01834,0.0478 -0.247079,0.203349 -0.513837,0.340244 -0.266758,0.136906 -0.63881,0.395094 -0.826307,0.576331 -0.187496,0.181236 -0.36976,0.326357 -0.402737,0.326357 -0.03298,0 -0.06249,0.04543 -0.06249,0.09721 0,0.05178 0.03496,0.09721 0.07638,0.09721 0.162674,0 0.02611,0.05903 -0.2222,0.118043 l 18.4426006,0 c -0.0016,-0.002 -0.0054,-0.005 -0.0069,-0.0069 -0.41426,-0.516951 -1.02403,-0.988581 -1.3332,-1.034619 -0.339585,-0.05057 -0.774474,-0.353134 -1.16655,-0.812419 -0.431924,-0.505962 -0.440282,-0.637889 -0.09721,-1.354031 0.298985,-0.624155 0.554536,-1.63116 0.604106,-2.388649 l 0.03472,-0.548556 0.263863,-0.06944 c 0.548056,-0.14441 1.117756,-0.610699 1.208212,-0.986012 0.02273,-0.09432 0.128228,-0.33256 0.229144,-0.534669 0.289031,-0.578951 0.427437,-1.363767 0.486062,-2.708063 0.02847,-0.653146 0.02887,-1.250324 0,-1.326256 -0.02887,-0.07594 -0.147199,-0.2057694 -0.256918,-0.2916374 l -0.194425,-0.152763 0.07638,-0.374962 c 0.04337,-0.20346 0.117678,-0.397335 0.16665,-0.437457 0.07644,-0.06262 0.07668,-0.102603 -0.01389,-0.27775 -0.08683,-0.167908 -0.09205,-0.246119 -0.03472,-0.437456 0.03831,-0.127859 0.06944,-0.34331 0.06944,-0.479119 0,-0.135805 0.03035,-0.280327 0.06944,-0.319412 0.110964,-0.110955 0.07608,-0.702454 -0.06249,-1.083225 -0.123285,-0.338767 -0.192337,-0.63065 -0.2222,-0.902688 -0.0083,-0.07533 -0.08858,-0.257063 -0.180538,-0.402737 -0.09196,-0.145666 -0.173593,-0.283685 -0.173593,-0.312469 0,-0.02878 -0.124139,-0.243136 -0.27775,-0.472175 -0.256635,-0.382664 -0.265211,-0.415656 -0.152763,-0.451344 0.141136,-0.04479 0.165088,-0.255497 0.03472,-0.305525 -0.04845,-0.01868 -0.148297,-0.01933 -0.2222,0 -0.151679,0.03966 -0.479267,-0.296355 -0.756869,-0.7777 -0.156247,-0.270935 -1.1058,-1.020731 -1.291537,-1.020731 -0.04631,0 -0.192236,-0.0734 -0.319413,-0.159706 -0.127184,-0.08631 -0.223111,-0.09879 -0.3333,-0.152763 -0.265377,-0.129957 -0.50425,-0.334653 -0.791681,-0.40277301 -1.560307,-0.369784 -3.231004,-0.65486 -4.867569,-0.645769 z"
     id="path2863"
     inkscape:connector-curvature="0" />
  <metadata
     id="metadata10">
    <rdf:RDF>
      <cc:Work>
        <dc:format>image/svg+xml</dc:format>
        <dc:type
           rdf:resource="http://purl.org/dc/dcmitype/StillImage" />
        <cc:license
           rdf:resource="http://creativecommons.org/licenses/publicdomain/" />
        <dc:publisher>
          <cc:Agent
             rdf:about="http://openclipart.org/">
            <dc:title>Openclipart</dc:title>
          </cc:Agent>
        </dc:publisher>
        <dc:title></dc:title>
        <dc:date>2011-02-24T01:45:53</dc:date>
        <dc:description>clip art, clipart, default, gray, head, image, profile, silhouette, </dc:description>
        <dc:source>http://openclipart.org/detail/122107/default-profile-picture-by-dear_theophilus</dc:source>
        <dc:creator>
          <cc:Agent>
            <dc:title>dear_theophilus</dc:title>
          </cc:Agent>
        </dc:creator>
        <dc:subject>
          <rdf:Bag>
            <rdf:li>clip art</rdf:li>
            <rdf:li>clipart</rdf:li>
            <rdf:li>default</rdf:li>
            <rdf:li>gray</rdf:li>
            <rdf:li>head</rdf:li>
            <rdf:li>image</rdf:li>
            <rdf:li>profile</rdf:li>
            <rdf:li>silhouette</rdf:li>
          </rdf:Bag>
        </dc:subject>
      </cc:Work>
      <cc:License
         rdf:about="http://creativecommons.org/licenses/publicdomain/">
        <cc:permits
           rdf:resource="http://creativecommons.org/ns#Reproduction" />
        <cc:permits
           rdf:resource="http://creativecommons.org/ns#Distribution" />
        <cc:permits
           rdf:resource="http://creativecommons.org/ns#DerivativeWorks" />
      </cc:License>
    </rdf:RDF>
  </metadata>
</svg>
