<?xml version="1.0" encoding="UTF-8" standalone="no"?>
<svg
   xmlns:dc="http://purl.org/dc/elements/1.1/"
   xmlns:cc="http://creativecommons.org/ns#"
   xmlns:rdf="http://www.w3.org/1999/02/22-rdf-syntax-ns#"
   xmlns:svg="http://www.w3.org/2000/svg"
   xmlns="http://www.w3.org/2000/svg"
   xmlns:xlink="http://www.w3.org/1999/xlink"
   xmlns:sodipodi="http://sodipodi.sourceforge.net/DTD/sodipodi-0.dtd"
   xmlns:inkscape="http://www.inkscape.org/namespaces/inkscape"
   id="svg2837"
   viewBox="0 0 100 100"
   version="1.1"
   inkscape:version="0.48.2 r9819"
   width="100%"
   height="100%"
   sodipodi:docname="defaultprofile.svg">
  <sodipodi:namedview
     pagecolor="#ffffff"
     bordercolor="#666666"
     borderopacity="1"
     objecttolerance="10"
     gridtolerance="10"
     guidetolerance="10"
     inkscape:pageopacity="0"
     inkscape:pageshadow="2"
     inkscape:window-width="1440"
     inkscape:window-height="852"
     id="namedview12"
     showgrid="false"
     inkscape:zoom="2.6222222"
     inkscape:cx="17.195796"
     inkscape:cy="27.828555"
     inkscape:window-x="0"
     inkscape:window-y="0"
     inkscape:window-maximized="1"
     inkscape:current-layer="svg2837" />
  <defs
     id="defs2841">
    <linearGradient
       id="linearGradient2972"
       y2="791.73999"
       gradientUnits="userSpaceOnUse"
       x2="197.48"
       gradientTransform="matrix(0.77826,0,0,3.8321,-257.2,-3317.8)"
       y1="744.77002"
       x1="197.48">
      <stop
         id="stop3688"
         stop-color="#b7b7b7"
         offset="0" />
      <stop
         id="stop3690"
         stop-color="#f2f2f2"
         offset="1" />
    </linearGradient>
    <linearGradient
       inkscape:collect="always"
       xlink:href="#linearGradient2972"
       id="linearGradient2993"
       gradientUnits="userSpaceOnUse"
       gradientTransform="matrix(0.62259326,0,0,3.0656074,-174.39248,-2460.4145)"
       x1="197.48"
       y1="744.77002"
       x2="197.48"
       y2="791.73999" />
  </defs>
  <path
     style="fill:#c8c8c8;fill-opacity:1"
     d="m 48.139113,1.3285779 c -5.728552,0.03182 -11.349374,0.857359 -16.5625,2.9375 -3.014329,1.202772 -5.552856,4.125772 -7.0625,6.7187501 -0.268314,0.46095 -0.844554,1.165821 -1.25,1.5625 -0.405471,0.39663 -0.815543,1.020963 -0.9375,1.40625 -0.121998,0.385271 -0.666192,1.35025 -1.1875,2.125 -0.521291,0.774702 -0.9375,1.543418 -0.9375,1.71875 0,0.175356 -0.27091,0.652078 -0.59375,1.0625 -0.421355,0.535667 -0.531807,0.959576 -0.40625,1.53125 0.09621,0.43807 0.03726,1.166968 -0.125,1.59375 -0.16226,0.42679 -0.29397,1.414449 -0.3125,2.21875 -0.04296,1.866516 -0.466653,3.271335 -1.1875,4.0625 -0.445755,0.489188 -0.509765,0.8488 -0.375,1.6875 0.100642,0.626375 0.04605,0.911535 -0.09375,0.6875 -0.178076,-0.285361 -0.345212,-0.123628 -0.6875,0.5625 -0.593474,1.18962 -0.60038,1.193814 0.25,1.03125 l 0.71875,-0.125 -0.03125,2.84375 c -0.02501,1.572442 0.109801,4.007963 0.3125,5.40625 0.463045,3.194244 0.435451,4.386594 -0.125,5.40625 -1.426174,2.594738 -1.5563,3.102007 -1.5625,5.125 -0.0043,1.406846 0.135409,2.428659 0.5,3.25 0.747343,1.68364 1.56336,4.35211 2.4375,7.96875 0.41271,1.70748 0.936736,3.53712 1.15625,4.0625 0.219523,0.52543 0.40625,1.16756 0.40625,1.4375 0,0.26991 0.407181,1.28235 0.90625,2.25 0.702383,1.36197 1.149111,1.8937 2.03125,2.34375 0.626785,0.31979 1.290835,0.78794 1.46875,1.03125 0.27441,0.37527 0.390099,0.38713 0.78125,0.0625 0.25361,-0.21042 0.53615,-0.34215 0.59375,-0.28125 0.360872,0.382 1.174465,2.859132 1.96875,5.906246 0.506228,1.94204 0.99992,3.70445 1.09375,3.9375 0.105357,0.26175 -0.440724,1.24768 -1.4375,2.53125 -1.521324,1.95914 -1.729234,2.10057 -3.59375,2.71875 -2.735616,0.90702 -7.380825,3.08907 -7.5625,3.5625 -0.08256,0.21512 -1.111969,0.91516 -2.3125,1.53125 -1.200532,0.61614 -2.874931,1.7781 -3.718751,2.59375 -0.8438197,0.81564 -1.6640867,1.46875 -1.8124997,1.46875 -0.14842,0 -0.28125,0.20446 -0.28125,0.4375 0,0.23305 0.157315,0.4375 0.34375,0.4375 0.732103,0 0.117488,0.26567 -1,0.53125 l 82.9999997,0 c -0.007,-0.009 -0.02433,-0.0226 -0.03125,-0.0312 -1.864356,-2.32651 -4.608593,-4.44906 -6,-4.65625 -1.528283,-0.2276 -3.48548,-1.58926 -5.249999,-3.65625 -1.94385,-2.27706 -1.981464,-2.87079 -0.4375,-6.09375 1.345568,-2.80898 2.495659,-7.340956 2.71875,-10.749996 l 0.15625,-2.46875 1.1875,-0.3125 c 2.466501,-0.64991 5.030405,-2.74842 5.437499,-4.4375 0.102318,-0.42447 0.577085,-1.49667 1.03125,-2.40625 1.300769,-2.60554 1.923658,-6.137567 2.1875,-12.1875 0.128141,-2.939451 0.129925,-5.627022 0,-5.96875 -0.129917,-0.341752 -0.662462,-0.926053 -1.15625,-1.3125 l -0.875,-0.6875 0.34375,-1.6875 c 0.195195,-0.915658 0.529605,-1.788186 0.75,-1.96875 0.344014,-0.281833 0.345114,-0.461763 -0.0625,-1.25 -0.390767,-0.755662 -0.414243,-1.10765 -0.15625,-1.96875 0.172396,-0.575426 0.3125,-1.545049 0.3125,-2.15625 0,-0.611186 0.136601,-1.2616 0.3125,-1.4375 0.499389,-0.499348 0.342415,-3.161361 -0.28125,-4.875 -0.554835,-1.524604 -0.865603,-2.838209 -1,-4.0625 -0.03722,-0.339032 -0.398637,-1.1569 -0.8125,-1.8125 -0.413862,-0.655561 -0.78125,-1.276709 -0.78125,-1.40625 0,-0.129516 -0.55868,-1.094224 -1.25,-2.125 -1.154973,-1.722159 -1.193568,-1.870638 -0.6875,-2.03125 0.635177,-0.201595 0.742972,-1.149853 0.15625,-1.375 -0.218035,-0.08408 -0.6674,-0.08698 -1,0 -0.682624,0.178476 -2.156918,-1.333731 -3.406249,-3.5 -0.703183,-1.219331 -4.9766,-4.5937501 -5.8125,-4.5937501 -0.208395,0 -0.865146,-0.330336 -1.4375,-0.71875 -0.572387,-0.388415 -1.0041,-0.444601 -1.5,-0.6875 -1.193892,-0.584706 -2.26893,-1.505931 -3.5625,-1.8125 -7.022083,-1.664195 -14.540969,-2.947164 -21.90625,-2.90625 z"
     id="path2863"
     inkscape:connector-curvature="0" />
  <metadata
     id="metadata10">
    <rdf:RDF>
      <cc:Work>
        <dc:format>image/svg+xml</dc:format>
        <dc:type
           rdf:resource="http://purl.org/dc/dcmitype/StillImage" />
        <cc:license
           rdf:resource="http://creativecommons.org/licenses/publicdomain/" />
        <dc:publisher>
          <cc:Agent
             rdf:about="http://openclipart.org/">
            <dc:title>Openclipart</dc:title>
          </cc:Agent>
        </dc:publisher>
        <dc:title></dc:title>
        <dc:date>2011-02-24T01:45:53</dc:date>
        <dc:description>clip art, clipart, default, gray, head, image, profile, silhouette, </dc:description>
        <dc:source>http://openclipart.org/detail/122107/default-profile-picture-by-dear_theophilus</dc:source>
        <dc:creator>
          <cc:Agent>
            <dc:title>dear_theophilus</dc:title>
          </cc:Agent>
        </dc:creator>
        <dc:subject>
          <rdf:Bag>
            <rdf:li>clip art</rdf:li>
            <rdf:li>clipart</rdf:li>
            <rdf:li>default</rdf:li>
            <rdf:li>gray</rdf:li>
            <rdf:li>head</rdf:li>
            <rdf:li>image</rdf:li>
            <rdf:li>profile</rdf:li>
            <rdf:li>silhouette</rdf:li>
          </rdf:Bag>
        </dc:subject>
      </cc:Work>
      <cc:License
         rdf:about="http://creativecommons.org/licenses/publicdomain/">
        <cc:permits
           rdf:resource="http://creativecommons.org/ns#Reproduction" />
        <cc:permits
           rdf:resource="http://creativecommons.org/ns#Distribution" />
        <cc:permits
           rdf:resource="http://creativecommons.org/ns#DerivativeWorks" />
      </cc:License>
    </rdf:RDF>
  </metadata>
</svg>
