<?xml version="1.0" encoding="UTF-8" standalone="no"?>
<!-- Generator: Adobe Illustrator 12.0.0, SVG Export Plug-In . SVG Version: 6.00 Build 51448)  -->

<svg
   xmlns:dc="http://purl.org/dc/elements/1.1/"
   xmlns:cc="http://creativecommons.org/ns#"
   xmlns:rdf="http://www.w3.org/1999/02/22-rdf-syntax-ns#"
   xmlns:svg="http://www.w3.org/2000/svg"
   xmlns="http://www.w3.org/2000/svg"
   xmlns:sodipodi="http://sodipodi.sourceforge.net/DTD/sodipodi-0.dtd"
   xmlns:inkscape="http://www.inkscape.org/namespaces/inkscape"
   version="1.1"
   id="Layer_1"
   width="100"
   height="100"
   viewBox="0 0 100 100"
   overflow="visible"
   enable-background="new 0 0 181.172 226.771"
   xml:space="preserve"
   inkscape:version="0.48.2 r9819"
   sodipodi:docname="player_chicken.svg"
   style="overflow:visible"><metadata
   id="metadata33"><rdf:RDF><cc:Work
       rdf:about=""><dc:format>image/svg+xml</dc:format><dc:type
         rdf:resource="http://purl.org/dc/dcmitype/StillImage" /></cc:Work></rdf:RDF></metadata><defs
   id="defs31" /><sodipodi:namedview
   pagecolor="#ffffff"
   bordercolor="#666666"
   borderopacity="1"
   objecttolerance="10"
   gridtolerance="10"
   guidetolerance="10"
   inkscape:pageopacity="0"
   inkscape:pageshadow="2"
   inkscape:window-width="1440"
   inkscape:window-height="852"
   id="namedview29"
   showgrid="false"
   inkscape:zoom="4.1627898"
   inkscape:cx="21.45053"
   inkscape:cy="49.768991"
   inkscape:window-x="0"
   inkscape:window-y="0"
   inkscape:window-maximized="1"
   inkscape:current-layer="Layer_1" />
<g
   id="g3"
   transform="matrix(0.45844298,0,0,0.45844298,9.3278745,-2.2449885)">
	<path
   d="m 167.078,125.534 c 0,45.216 -36.093,81.865 -80.619,81.865 -44.529,0 -80.624,-36.649 -80.624,-81.865 0,-45.209 36.095,-81.86 80.624,-81.86 44.526,0 80.619,36.651 80.619,81.86 z"
   id="path5"
   inkscape:connector-curvature="0"
   style="fill:#ffffff" />
	<path
   d="m 167.078,125.541 c 0,6.512 -1.971,12.993 -1.454,19.311 0.34,4.149 2.295,8.367 2.97,12.511 1.162,7.147 2.15,18.554 -8.247,18.059 7.018,8.784 -2.223,12.209 -9.177,14.712 -5.439,1.957 -4.425,1.434 -7.439,4.914 -2.692,3.11 -2.978,5.331 -6.756,7.731 -6.675,4.254 -16.273,4.916 -23.429,8.047 -7.788,3.411 -15.079,6.253 -21.454,-0.395 -10.275,5.839 -22.07,11.372 -28.708,-1.267 -4.651,0.367 -7.896,2.048 -12.562,-0.058 -5.485,-2.478 -6.642,-9.234 -10.746,-12.675 -4.327,-3.636 -7.941,-0.304 -12.84,-3.496 -3.989,-2.602 -3.49,-7.656 -6.79,-10.352 -2.728,-2.229 -7.002,-1.229 -9.902,-3.355 -6.178,-4.525 -4.622,-13.504 -0.148,-18.78 5.104,5.076 9.076,10.368 15.075,14.33 0.898,0.594 18.257,8.188 17.255,4.639 2.77,9.821 12.168,6.87 18.833,2.599 1.072,2.71 1.415,5.747 1.419,8.601 15.832,11.064 35.2,10.383 53.077,3.043 11.479,-4.714 22.27,-12.799 27.191,-24.611 5.085,-12.2 -4.294,-18.364 -3.514,-29.26 0.305,-4.266 5.519,-9.137 7.142,-13.41 2.005,-5.272 2.99,-11.09 2.309,-16.718 C 146.63,88.6 120.521,59.139 97.55,63.792 83.322,66.677 73.321,79.08 64.911,90.002 c 1.294,-1.684 0.867,-8.268 1.553,-10.618 1.275,-4.37 3.494,-8.409 5.89,-12.254 4.606,-7.38 11.045,-16.469 19.201,-20.229 19.535,-9.016 43.869,11.105 55.668,24.807 12.807,14.874 19.855,34.225 19.855,53.833 z"
   id="path7"
   inkscape:connector-curvature="0"
   style="fill:#b2b2b2" />
	<path
   d="m 167.078,125.534 c 0,12.231 -0.365,19.774 2.646,31.584 0.848,3.334 2.709,8.135 1.451,11.575 -0.447,1.207 -7.189,7.879 -7.583,5.393 1.325,8.346 1.58,13.645 -7.98,16.468 -3.817,1.126 -6.495,0.297 -8.86,2.595 -2.438,2.377 -1.515,6.67 -5.389,9.423 -5.086,3.617 -11.699,2.96 -17.08,4.506 -5.42,1.562 -3.219,1.79 -7.433,4.248 -5.763,3.368 -20.473,10.552 -24.914,1.704 -6.418,5.758 -15.356,9.596 -23.452,3.874 -2.82,-1.988 -3.433,-5.401 -6.599,-6.618 -1.857,-0.711 -5.963,1.108 -9.203,-0.205 -4.989,-2.022 -7.219,-7.005 -11.062,-9.781 -2.974,-2.14 -2.388,-1.728 -6.088,-2.909 C 26.647,194.566 18.933,193 19.881,180.572 7.275,181.267 5.422,174.402 6.984,163.738 8.978,150.128 5.837,139.264 5.837,125.536 c 0,-45.209 36.095,-81.86 80.624,-81.86 44.524,-0.002 80.617,36.649 80.617,81.858 z"
   id="path9"
   inkscape:connector-curvature="0"
   style="fill:none;stroke:#000000;stroke-width:5.26230001" />
	<path
   d="m 66.319,86.867 c -1.607,-5.372 8.329,-18.885 11.252,-22.576 8.851,-11.167 32.092,-17.763 45.01,-11.307 5.687,-8.558 7.228,-22.115 -1.192,-29.482 -0.02,-0.017 -19.512,-17.052 -36.824,0.824 0,0 -12.096,-23.813 -31.98,-14.394 0,0 -20.218,13.758 -7.989,31.728 -1.419,-2.083 -13.85,7.829 -14.905,9.2 -3.777,4.895 -4.939,11.498 -3.737,17.443 2.502,12.384 10.973,21.437 23.939,14.952 0,0 14.015,30.043 13.958,11.453 -0.055,-16.276 2.464,-7.849 2.468,-7.841 z"
   id="path11"
   inkscape:connector-curvature="0"
   style="fill:#bf0000;stroke:#ff0000;stroke-width:4.32320023" />
	<g
   id="g13">
		<ellipse
   cx="26.816999"
   cy="110.334"
   rx="11.696"
   ry="12.277"
   id="ellipse15"
   sodipodi:cx="26.816999"
   sodipodi:cy="110.334"
   sodipodi:rx="11.696"
   sodipodi:ry="12.277"
   style="stroke:#ffbf00;stroke-width:5.26230001"
   d="m 38.513,110.334 c 0,6.7804 -5.236478,12.277 -11.696001,12.277 -6.459522,0 -11.696,-5.4966 -11.696,-12.277 0,-6.7804 5.236478,-12.277001 11.696,-12.277001 6.459523,0 11.696001,5.496601 11.696001,12.277001 z" />
		<ellipse
   cx="20.965"
   cy="104.203"
   rx="4.0970001"
   ry="4.3779998"
   id="ellipse17"
   sodipodi:cx="20.965"
   sodipodi:cy="104.203"
   sodipodi:rx="4.0970001"
   sodipodi:ry="4.3779998"
   style="fill:#ffffff"
   d="m 25.062,104.203 c 0,2.41791 -1.834289,4.378 -4.097,4.378 -2.262711,0 -4.097,-1.96009 -4.097,-4.378 0,-2.4179 1.834289,-4.377997 4.097,-4.377997 2.262711,0 4.097,1.960097 4.097,4.377997 z" />
	</g>
	<g
   id="g19">
		<ellipse
   cx="100.522"
   cy="111.504"
   rx="11.696"
   ry="12.279"
   id="ellipse21"
   sodipodi:cx="100.522"
   sodipodi:cy="111.504"
   sodipodi:rx="11.696"
   sodipodi:ry="12.279"
   style="stroke:#ffbf00;stroke-width:5.26230001"
   d="m 112.218,111.504 c 0,6.7815 -5.23647,12.279 -11.696,12.279 -6.459519,0 -11.695997,-5.4975 -11.695997,-12.279 0,-6.78151 5.236478,-12.279002 11.695997,-12.279002 6.45953,0 11.696,5.497492 11.696,12.279002 z" />
		<path
   d="m 98.769,105.235 c 0,2.491 -1.771,4.516 -3.952,4.516 -2.186,0 -3.951,-2.024 -3.951,-4.516 0,-2.496 1.766,-4.516 3.951,-4.516 2.18,0 3.952,2.02 3.952,4.516 z"
   id="path23"
   inkscape:connector-curvature="0"
   style="fill:#ffffff" />
	</g>
	<path
   d="m 57.622,147.615 c -8.452,7.246 -16.172,22.693 -15.612,33.866 0.615,12.329 15.703,17.25 22.272,6.161 1.906,9.081 10.495,20.534 19.54,11.244 7.899,-8.113 8.68,-25.469 5.867,-35.673 -1.939,-7.055 -4.658,-11.845 -11.813,-13.348 -5.353,-1.124 -15.425,-3.987 -20.444,-1.781"
   id="path25"
   inkscape:connector-curvature="0"
   style="fill:#bf0000;stroke:#ff0000;stroke-width:3.74580002" />
	<path
   d="m 82.95,148.341 c 0,10.655 -11.521,19.294 -25.728,19.294 -6.117,0 -25.778,-12.293 -29.625,-4.885 -4.274,-19.007 11.184,-33.707 29.625,-33.707 14.207,0 25.728,8.644 25.728,19.298 z"
   id="path27"
   inkscape:connector-curvature="0"
   style="fill:#ff7f00;stroke:#8f0000;stroke-width:3.89720011" />
</g>
</svg>